<?xml version="1.0" encoding="UTF-8"?>
<svg width="186px" height="44px" viewBox="0 0 186 44" version="1.1" xmlns="http://www.w3.org/2000/svg" xmlns:xlink="http://www.w3.org/1999/xlink">
    <!-- Generator: Sketch 58 (84663) - https://sketch.com -->
    <title>Icons / arriva</title>
    <desc>Created with Sketch.</desc>
    <g id="Page-1" stroke="none" stroke-width="1" fill="none" fill-rule="evenodd">
        <g id="Desktop" transform="translate(-255.000000, -1196.000000)" fill="#FFFFFF">
            <g id="Icons-/-arriva" transform="translate(255.000000, 1196.000000)">
                <g id="arriva">
                    <path d="M185.9,33.85 L179.75,33.85 L177.3,27.85 L165.85,27.85 L163.35,33.85 L157.5,33.85 C157.5,33.85 166.75,11.3 167.3,10.05 C167.85,8.8 168.65,7.35 170.85,7.35 L174.95,7.35 L185.9,33.85 L185.9,33.85 Z M167.35,23.55 L175.7,23.55 L171.55,12.7 L171.5,12.7 L167.35,23.55 Z" id="Shape" fill-rule="nonzero"></path>
                    <path d="M77.9,33.85 L71.75,33.85 L69.3,27.85 L57.85,27.85 L55.35,33.85 L49.45,33.85 C49.45,33.85 58.7,11.3 59.25,10.05 C59.8,8.8 60.6,7.35 62.8,7.35 L66.9,7.35 L77.9,33.85 L77.9,33.85 Z M59.35,23.55 L67.7,23.55 L63.55,12.7 L63.5,12.7 L59.35,23.55 Z" id="Shape" fill-rule="nonzero"></path>
                    <path d="M93.2,23.2 C94,22.95 94.7,22.65 95.35,22.15 C97.7,20.5 98.9,18 98.9,15.35 C98.9,12.7 97.4,10.15 94.95,8.65 C92.45,7.15 89.75,7.25 86.9,7.25 L80.1,7.25 L80.1,33.75 L85.4,33.75 L85.4,23.7 L85.95,23.7 C85.95,23.7 86.25,23.7 86.5,23.7 C87.15,23.7 87.5,24.2 88.75,26 C90.85,28.95 94.35,33.8 94.35,33.8 L101,33.8 L93.2,23.2 L93.2,23.2 Z M85.4,19.35 L85.4,12.1 L86.4,12.1 C87.6,12.1 89.3,12.05 90.5,12.3 C92.15,12.7 93.35,14.15 93.35,15.8 C93.35,17.35 92.25,18.65 90.65,19.1 C89.3,19.45 87.75,19.4 86.4,19.4 L85.4,19.4 L85.4,19.35 Z" id="Shape" fill-rule="nonzero"></path>
                    <path d="M116.5,23.2 C117.25,22.95 118,22.65 118.65,22.15 C121,20.5 122.2,18 122.2,15.35 C122.2,12.7 120.7,10.15 118.25,8.65 C115.75,7.15 113.05,7.25 110.2,7.25 L103.4,7.25 L103.4,33.75 L108.7,33.75 L108.7,23.7 L109.25,23.7 C109.25,23.7 109.55,23.7 109.8,23.7 C110.45,23.7 110.8,24.2 112.05,26 C114.15,28.95 117.65,33.8 117.65,33.8 L124.25,33.8 L116.5,23.2 L116.5,23.2 Z M108.7,19.35 L108.7,12.1 L109.7,12.1 C110.9,12.1 112.6,12.05 113.8,12.3 C115.45,12.7 116.65,14.15 116.65,15.8 C116.65,17.35 115.55,18.65 113.95,19.1 C112.6,19.45 111.05,19.4 109.7,19.4 L108.7,19.4 L108.7,19.35 Z" id="Shape" fill-rule="nonzero"></path>
                    <path d="M132.7,7.35 L129.9,7.35 C128.65,7.35 127.05,8.15 127.05,10.2 L127.05,33.85 L132.7,33.85 L132.7,7.35" id="Shape" fill-rule="nonzero"></path>
                    <polygon id="Shape" fill-rule="nonzero" points="145.7 33.85 134.75 7.35 141.05 7.35 148.95 27.95 149.05 27.95 157 7.35 163.3 7.35 152.35 33.85"></polygon>
                    <path d="M18.45,15.05 C15.4,17.8 13.35,21.15 13.25,23.6 C13.2,24.55 13.45,25.35 13.95,25.9 C14.45,26.45 15.15,26.75 16,26.85 L16.35,26.9 L16.35,26.55 C16.35,24.25 18.35,21.05 21.35,18.35 C24.35,15.65 27.75,14.05 30.05,14.25 L30.4,14.3 L30.4,13.95 C30.4,13.05 30.2,12.35 29.7,11.8 C29.15,11.2 28.45,10.9 27.45,10.85 C25,10.65 21.45,12.3 18.45,15.05" id="Shape" fill-rule="nonzero"></path>
                    <path d="M7.1,3.55 C4.1,6.05 0.7,11.3 0.5,17.15 C0.25,23.55 2.5,30.25 7.1,35.35 C11.7,40.45 18.25,43.55 24.65,43.9 C30.1,44.2 35.15,42.3 39,38.9 C41.4,36.75 42.2,34.8 43.2,32.65 C41.25,34.8 41,35.05 40.5,35.5 C37,38.65 32.25,40.1 27.25,39.7 C21.4,39.25 15.65,36.55 11.35,31.85 C3.15,22.95 2.85,9.55 10.8,2.4 C11.55,1.7 13.4,0.5 14.55,0 C14.55,0 9.95,1.05 7.1,3.55" id="Shape" fill-rule="nonzero"></path>
                    <path d="M13.3,6 C11.25,7.8 10,10.25 9.3,13.5 C9.3,13.5 11.5,10.3 12.65,9.4 C15.3,7.4 19.4,5.3 25.8,7 C29.95,8.1 31.15,10.1 31.7,10.85 C33.9,13.95 31.6,19.35 26.8,23.95 C22.05,28.55 15.3,30 12.9,28.2 C14,29.6 15.1,30.65 16.25,31.6 C20.35,34.05 26.2,30.7 29.95,27.15 C33.2,23.75 37.2,18.95 34.85,13.8 C36.5,16.75 37.7,20.4 37.7,23 C37.8,31.6 31.5,34.8 29.7,35.7 C32.55,35.55 39.15,33.7 41.3,25.85 C42.85,20.25 41.1,13.75 36.75,8.9 C33.25,5.05 28.5,2.65 23.7,2.45 C19.75,2.25 16.1,3.5 13.3,6" id="Shape" fill-rule="nonzero"></path>
                </g>
            </g>
        </g>
    </g>
</svg>