<?xml version="1.0" encoding="UTF-8"?>
<svg width="192px" height="56px" viewBox="0 0 192 56" version="1.1" xmlns="http://www.w3.org/2000/svg" xmlns:xlink="http://www.w3.org/1999/xlink">
    <!-- Generator: Sketch 58 (84663) - https://sketch.com -->
    <title>Icons / bbc</title>
    <desc>Created with Sketch.</desc>
    <g id="Page-1" stroke="none" stroke-width="1" fill="none" fill-rule="evenodd">
        <g id="Desktop" transform="translate(-247.000000, -937.000000)" fill="#FFFFFF">
            <g id="Icons-/-bbc" transform="translate(247.000000, 937.000000)">
                <g id="bbc">
                    <path d="M192,0 L192,56 L133.898079,56 L133.898079,0 L192,0 Z M125.050505,0 L125.050505,56 L66.9485845,56 L66.9485845,0 L125.050505,0 Z M58.1010106,0 L58.1010106,56 L0,56 L0,0 L58.1010106,0 Z M165.510994,7.33730727 C165.272462,7.33730727 165.135896,7.34196942 164.902826,7.34476672 C164.463087,7.35222618 164.036095,7.37273968 163.614566,7.40071264 C163.374211,7.41656399 163.13841,7.43800992 162.904429,7.45852342 C162.558465,7.49022611 162.216142,7.52845582 161.880194,7.57228013 L161.597959,7.61144227 L161.286591,7.65806387 L160.901479,7.72053681 C160.732139,7.74850978 160.56735,7.7783476 160.403473,7.80911785 C160.175866,7.85294215 159.948258,7.89956371 159.724291,7.9471178 C158.345898,8.245496 157.071294,8.642712 155.893195,9.11265776 C155.286848,9.35509008 154.70053,9.61617104 154.147898,9.89590064 C153.686309,10.1262113 153.241108,10.3658464 152.815026,10.617603 C152.40078,10.8628326 152.002011,11.109927 151.62054,11.3728729 C151.400215,11.522062 151.183533,11.6740484 150.974134,11.8297646 C150.793868,11.9631023 150.614514,12.0964402 150.440621,12.2344401 C150.073717,12.5262912 149.716828,12.8218722 149.38452,13.1249126 C149.073153,13.4074395 148.769979,13.6936962 148.488655,13.9808851 C148.24557,14.2298445 148.002485,14.4816011 147.772146,14.7454794 C147.539986,15.0130873 147.307826,15.2825602 147.085681,15.5632222 C146.844416,15.8690599 146.606794,16.1814246 146.379186,16.5049785 C146.211666,16.7446135 146.047789,16.9879783 145.889374,17.2360052 L145.572543,17.745113 C144.966195,18.759599 144.434504,19.8468148 144.000228,21.0058277 C143.45579,22.4510973 143.062483,24.0045289 142.846711,25.6586633 C142.779339,26.1780279 142.726534,26.7067169 142.69649,27.2475274 C142.673729,27.6624597 142.657342,28.0829865 142.657342,28.5091078 C142.657342,28.8279996 142.660073,29.1431616 142.680102,29.4545939 C142.701042,29.7809451 142.725624,30.1017017 142.762041,30.4205934 L142.784802,30.644377 C142.832144,31.0229445 142.888591,31.3949849 142.957784,31.7632954 C142.985097,31.9050252 143.014231,32.0495521 143.044274,32.1922142 C143.108005,32.4980518 143.178108,32.8001598 143.256406,33.0966732 C143.358374,33.4817677 143.465804,33.8594026 143.587802,34.2305105 C143.738024,34.6846049 143.897349,35.129375 144.073973,35.5601586 C144.354386,36.2454961 144.660291,36.9028606 144.991687,37.521063 C145.18652,37.8847114 145.385905,38.2390355 145.592573,38.5775084 C145.759182,38.8497786 145.929433,39.1089946 146.102414,39.3663458 C146.328201,39.7020214 146.564003,40.0255753 146.796163,40.3332778 C147.041979,40.659629 147.296901,40.9645342 147.542718,41.2563855 C147.852264,41.620034 148.164542,41.9538446 148.464985,42.2606148 L148.628862,42.4237903 C148.87832,42.6699523 149.147808,42.9366279 149.460086,43.2070332 C149.672217,43.3916547 149.89163,43.5856006 150.131074,43.7776816 C150.35413,43.9567085 150.583559,44.14133 150.830286,44.3212894 C151.123444,44.5357487 151.43117,44.7558027 151.758926,44.972127 C152.10489,45.1996403 152.469062,45.4290186 152.857817,45.6509374 C153.62531,46.0910454 154.472012,46.513437 155.404294,46.897599 C155.752078,47.0393286 156.11261,47.1773286 156.485886,47.3078691 C156.854611,47.4365446 157.23244,47.5568284 157.625746,47.6733824 C158.294003,47.8673282 158.997767,48.041693 159.736127,48.1890173 C160.329729,48.3074362 160.948822,48.4053415 161.587944,48.4845982 C162.223426,48.5629225 162.880758,48.624463 163.563582,48.658963 C163.894068,48.6757468 164.230018,48.6888008 164.57143,48.6943954 C164.728023,48.6971927 164.887348,48.7009224 165.044854,48.7009224 C166.267563,48.7009224 167.397408,48.6543009 168.443494,48.5647874 L168.649252,48.5461387 C169.06805,48.5069766 169.46864,48.4622198 169.860126,48.4137334 C170.457369,48.3372739 171.03003,48.2458956 171.571737,48.1479903 C171.91497,48.0827201 172.245456,48.0146525 172.56866,47.9447202 C173.069397,47.8346931 173.544642,47.7153418 173.999858,47.5922608 C174.333986,47.5018149 174.65901,47.4057745 174.969467,47.3097339 C175.342745,47.1950448 175.704186,47.0728962 176.043777,46.9535449 L176.375174,46.835126 C176.539052,46.7754504 176.763928,46.6933964 177.028864,46.5870991 C177.37847,46.4472343 177.80091,46.2765993 178.280707,46.0668022 C178.565672,45.9409238 178.87704,45.7982617 179.194781,45.6472077 C179.477014,45.5166672 179.777457,45.3674781 180.076078,45.218289 L180.458459,45.0290053 L180.458459,37.3923874 L180.191703,37.5583602 L179.680041,37.8753871 C179.170199,38.192414 178.678566,38.4889274 178.184201,38.7649273 C177.642495,39.0651703 177.114445,39.343035 176.590946,39.5966566 C175.667769,40.0414266 174.785561,40.4171967 173.928844,40.7314262 C172.305545,41.3281827 170.811527,41.7104798 169.495043,41.9435878 C169.340269,41.9715608 169.185496,41.9976689 169.034364,42.0219122 C168.670192,42.0806554 168.324228,42.1244797 167.98919,42.161777 C167.468422,42.2205202 166.987714,42.250358 166.550707,42.2718039 C166.268474,42.2839255 166.004448,42.2904526 165.758632,42.2904526 C165.230582,42.2904526 164.686143,42.2764661 164.13169,42.2363715 C163.482553,42.1897499 162.820669,42.1151554 162.154234,41.9995338 C161.075371,41.8149122 159.993779,41.5333178 158.934037,41.1416964 C158.779263,41.0838856 158.621758,41.0186154 158.466074,40.9552099 L158.162902,40.8283992 C157.988098,40.7519398 157.816938,40.6764128 157.643955,40.5934263 C157.281603,40.4162642 156.918341,40.2269806 156.565094,40.022778 C156.392112,39.9202105 156.220951,39.8139132 156.038864,39.6992241 C155.862241,39.584535 155.683796,39.4661161 155.512635,39.3448999 C155.294131,39.1882514 155.079269,39.0297379 154.868049,38.8600353 C154.667754,38.6968597 154.458355,38.5224949 154.285374,38.3658463 L154.037736,38.138333 L153.841993,37.9518466 L153.75095,37.8632655 C153.416822,37.5219954 153.109095,37.177928 152.829593,36.8338606 C152.672999,36.6399147 152.525509,36.445969 152.385302,36.2501582 C152.248738,36.0636718 152.124009,35.8715908 152.002921,35.6851044 C151.887296,35.5079423 151.778955,35.3251857 151.676987,35.1470912 C151.522214,34.8766858 151.382006,34.6062806 151.253636,34.3405374 C151.142563,34.1120916 151.042416,33.8836458 150.94773,33.6579972 C150.787495,33.2757002 150.65002,32.8859435 150.535306,32.5185654 C150.444262,32.2313763 150.368697,31.9451198 150.302235,31.6700522 C150.107402,30.8737554 150.005434,30.1436611 149.948988,29.5254587 C149.928048,29.2848913 149.91257,29.0639049 149.903466,28.8597022 C149.88981,28.5538646 149.885258,28.2890539 149.885258,28.0764594 C149.885258,27.9365946 149.887078,27.7762163 149.894362,27.5915948 C149.91075,27.1552166 149.944435,26.6032169 150.033658,25.9728928 C150.088283,25.5905958 150.16476,25.1803258 150.263086,24.751407 C150.329548,24.4651504 150.408756,24.1770289 150.497978,23.8767858 C150.579917,23.6045156 150.675512,23.331313 150.780212,23.050651 C150.848494,22.8613673 150.927702,22.6730161 151.007819,22.4818675 C151.117071,22.2235839 151.239069,21.9662326 151.370172,21.7032868 C151.468498,21.5074761 151.57775,21.3116654 151.688822,21.1130574 C151.934638,20.6776116 152.212321,20.2458956 152.52642,19.816977 L152.879666,19.357288 L153.12298,19.0618236 L153.378583,18.7698558 C153.466895,18.6747478 153.554297,18.574045 153.64625,18.478937 C155.011898,17.080289 156.550527,16.0322355 158.141961,15.2900197 L158.514782,15.1250958 L158.890336,14.969263 C159.145257,14.8666955 159.393804,14.7753172 159.651457,14.6858038 C159.926407,14.5925605 160.20682,14.5049119 160.482681,14.4247228 C160.744885,14.3501282 161.010731,14.284858 161.270204,14.222385 C161.532408,14.1599121 161.798254,14.1076959 162.057727,14.058277 C162.346334,14.0023311 162.634031,13.9594392 162.919906,13.9184122 C163.207602,13.881115 163.493478,13.8494122 163.775712,13.825169 C164.32015,13.7766826 164.853662,13.7524393 165.373519,13.7524393 L165.892465,13.7552366 C166.277578,13.7645609 166.655407,13.777615 167.023221,13.8018582 C167.279962,13.8205068 167.529422,13.8363582 167.775237,13.859669 C168.245931,13.9044258 168.699326,13.9641014 169.12996,14.0312365 C169.512341,14.0899797 169.883797,14.1580472 170.229761,14.2270472 C170.766916,14.3361417 171.254907,14.4582903 171.692824,14.5757768 C171.97961,14.6522362 172.241815,14.7324253 172.482168,14.805155 C172.8427,14.9151819 173.151336,15.0140198 173.390779,15.098871 C173.805026,15.245263 174.033544,15.331979 174.033544,15.331979 C174.400448,15.4653169 174.757338,15.6135735 175.111495,15.7581005 C175.584919,15.9520463 176.036494,16.1637085 176.47168,16.3641814 C176.833122,16.5301542 177.174534,16.7035865 177.497736,16.8648973 C177.763582,16.9973026 178.010309,17.1315729 178.24429,17.2546538 C178.652164,17.4691132 178.996307,17.6667888 179.280362,17.8234374 L180.040571,18.2476938 L180.040571,10.7509407 C180.040571,10.7509407 179.582625,10.556995 178.793281,10.2530221 C178.445495,10.116887 178.033981,9.9574412 177.566018,9.78680608 C177.304724,9.69356288 177.032506,9.59099536 176.740257,9.4912252 C176.509007,9.411036 176.270474,9.32338744 176.021017,9.24226584 C175.742424,9.15181992 175.453818,9.05298208 175.154286,8.96067136 C174.940334,8.89540112 174.717278,8.82546872 174.495133,8.76019848 L174.294838,8.70238768 C174.078155,8.63898232 173.857831,8.57557696 173.632044,8.5140364 C173.368018,8.4422392 173.09762,8.37137432 172.82358,8.3023744 L172.29553,8.17183392 C172.006013,8.1046988 171.712854,8.03849608 171.416053,7.97602319 C171.115611,7.90795561 170.807885,7.8510773 170.499249,7.7932665 C170.247059,7.74757734 169.984855,7.70375303 169.719009,7.6617936 L169.404,7.615172 C168.960619,7.55269906 168.508135,7.50048286 168.052919,7.45665856 C167.743373,7.42588831 167.433826,7.40444237 167.1261,7.38579373 C166.57711,7.35129375 166.033582,7.33730727 165.510994,7.33730727 Z M94.9716672,7.8510773 L82.1892088,7.8510773 L82.1901192,48.1834226 L97.014676,48.1834226 C97.014676,48.1834226 104.243503,48.3885578 108.234834,44.298911 C110.983498,41.4838271 111.239496,38.2942201 111.253207,37.3794318 L111.254141,36.8546674 C111.245443,35.9075915 111.021386,32.628951 108.476099,30.0205801 C105.913234,27.3967166 102.640233,26.6973925 102.640233,26.6973925 C102.640233,26.6973925 104.118774,25.9868794 105.254992,24.8232042 C105.786684,24.2777315 107.678561,22.5275566 107.678561,18.2793966 C107.678561,13.9995338 104.895371,11.5379133 104.895371,11.5379133 C104.895371,11.5379133 101.849978,7.8510773 94.9716672,7.8510773 Z M28.0230833,7.8510773 L15.2406242,7.8510773 L15.2415346,48.1834226 L30.0651813,48.1834226 C30.0651813,48.1834226 37.2940078,48.3885578 41.2853398,44.298911 C44.0355434,41.4838271 44.290475,38.2942201 44.3038219,37.3794318 L44.3006891,37.1219821 C44.3006891,37.1219821 44.5355805,33.1032002 41.5275146,30.0205801 C38.9646498,27.3967166 35.6916483,26.6973925 35.6916483,26.6973925 C35.6916483,26.6973925 37.1710996,25.9868794 38.3064077,24.8232042 C38.8371893,24.2777315 40.7299765,22.5275566 40.7299765,18.2793966 C40.7299765,13.9995338 37.9486082,11.5379133 37.9486082,11.5379133 C37.9486082,11.5379133 34.9023042,7.8510773 28.0230833,7.8510773 Z M92.5423088,30.8802302 L95.9867984,30.8812148 C96.234436,30.8812148 96.4857152,30.8914716 96.7242488,30.9073229 C97.0001096,30.9231742 97.2641344,30.941823 97.52816,30.9697959 C97.955152,31.0098905 98.3739504,31.0723634 98.7681672,31.1469579 C99.5383928,31.296147 100.241246,31.5040794 100.867623,31.7810117 C101.341047,31.9917413 101.778054,32.2379034 102.160435,32.5250924 C102.388043,32.6966599 102.595622,32.886876 102.786812,33.0826867 C102.884229,33.182457 102.975271,33.2878218 103.05721,33.3931866 C103.495128,33.9461188 103.741854,34.5521995 103.872957,35.0743615 C103.947006,35.3677667 103.982209,35.6487396 104.000148,35.8664452 L104.016806,36.1391988 L104.016434,36.4513563 C104.01549,36.506059 104.012254,36.6125634 104.001328,36.7592661 C103.971284,37.2674414 103.831987,38.1663058 103.285729,39.0483866 C103.11821,39.3187918 102.91063,39.5863998 102.660262,39.8428186 C102.009304,40.5104399 101.156229,40.9636018 100.279484,41.2657098 C99.3126056,41.6013853 98.3184144,41.743115 97.5572928,41.8158447 C97.1548824,41.8503446 96.8225752,41.8624662 96.5876832,41.8717906 C96.4353384,41.8780068 96.3226472,41.8817366 96.2644472,41.8835324 L89.2432328,41.8848446 L89.2405016,30.8784175 L91.8037808,30.8798761 C92.0427696,30.8799958 92.2902176,30.880115 92.5423088,30.8802302 Z M25.597293,30.8802302 L29.0400354,30.8812148 C29.2876727,30.8812148 29.5389518,30.8914716 29.7774849,30.9073229 C30.0533457,30.9231742 30.3173708,30.941823 30.581396,30.9697959 C31.0092988,31.0098905 31.4271869,31.0723634 31.8214037,31.1469579 C32.5934497,31.296147 33.294482,31.5040794 33.9208589,31.7810117 C34.3942833,31.9917413 34.8312905,32.2379034 35.2136718,32.5250924 C35.4412796,32.6966599 35.6479476,32.886876 35.8391382,33.0826867 C35.9365543,33.182457 36.0275976,33.2878218 36.1095364,33.3931866 C36.5474539,33.9461188 36.7932704,34.5521995 36.9243726,35.0743615 C36.9978141,35.3677667 37.0336244,35.6487396 37.0514958,35.8664452 L37.0673104,36.1391988 L37.0673104,36.4513563 C37.0665011,36.506059 37.0636686,36.6125634 37.0527434,36.7592661 C37.0217888,37.2674414 36.8843137,38.1663058 36.3362338,39.0483866 C36.1705353,39.3187918 35.9629569,39.5863998 35.7107674,39.8428186 C35.0607192,40.5104399 34.2076449,40.9636018 33.3308993,41.2657098 C32.3640209,41.6013853 31.3689193,41.743115 30.608709,41.8158447 C30.2062982,41.8503446 29.8758114,41.8624662 29.6390993,41.8717906 C29.4867538,41.8780068 29.3740626,41.8817366 29.3158624,41.8835324 L22.2946479,41.8848446 L22.2946479,30.8821473 L22.2964688,30.8784175 L24.8590265,30.8798761 C25.0979343,30.8799958 25.345296,30.880115 25.597293,30.8802302 Z M89.2432328,14.1496554 L93.8955376,14.1496554 C94.205084,14.1496554 94.5683464,14.1561823 94.967116,14.1841553 C95.88392,14.2456958 96.9718856,14.4172633 97.9232872,14.846182 C98.419472,15.0708981 98.8801504,15.366479 99.2598008,15.7487762 C99.5748096,16.0676679 99.8051488,16.395884 99.9754,16.7371541 C100.324094,17.4485997 100.416049,18.1870858 100.439719,18.6421126 C100.454286,18.9125178 100.447003,19.0850178 100.447003,19.0850178 C100.447003,19.0850178 100.448824,19.3143961 100.41787,19.6752473 C100.383273,20.0799228 100.299513,20.6515036 100.060981,21.24826 C99.8652376,21.7349895 99.5693472,22.2366379 99.1232352,22.6860701 C98.5605896,23.2520564 97.8377064,23.6539345 97.0838688,23.929002 C96.8990512,23.9961371 96.710592,24.0558127 96.5230432,24.1098938 C95.5616272,24.3849612 94.5993008,24.483799 93.9046424,24.5369476 C93.6560944,24.5500017 93.3775024,24.5667854 93.1444312,24.5742449 L93.0022824,24.5781732 L93.0022824,24.5781732 L89.2432328,24.5835693 L89.2432328,14.1496554 L93.8955376,14.1496554 L89.2432328,14.1496554 Z M22.2937375,14.1496554 L26.9460427,14.1496554 C27.2555895,14.1496554 27.6188517,14.1561823 28.0167103,14.1841553 C28.9335149,14.2456958 30.022391,14.4172633 30.9728815,14.846182 C31.4690667,15.0708981 31.929745,15.366479 32.309395,15.7487762 C32.6244044,16.0676679 32.8547435,16.395884 33.0249943,16.7371541 C33.372779,17.4485997 33.4656431,18.1870858 33.4893143,18.6421126 C33.4938665,18.7322477 33.4961932,18.8115044 33.4972722,18.87712 L33.4965978,19.0850178 C33.4965978,19.0850178 33.4984186,19.3143961 33.467464,19.6752473 C33.4328676,20.0799228 33.3491078,20.6515036 33.1096643,21.24826 C32.914832,21.7349895 32.6198522,22.2366379 32.1737407,22.6860701 C31.611094,23.2520564 30.8882114,23.6539345 30.1343741,23.929002 C29.9495565,23.9961371 29.7610971,24.0558127 29.5735482,24.1098938 C28.6121325,24.3849612 27.6498064,24.483799 26.955147,24.5369476 C26.7075097,24.5500017 26.4298281,24.5667854 26.1958471,24.5742449 L26.0536976,24.5781732 L26.0536976,24.5781732 L22.2946479,24.5835693 L22.2937375,14.1496554 L26.9460427,14.1496554 L22.2937375,14.1496554 Z" id="Combined-Shape" fill-rule="nonzero"></path>
                </g>
            </g>
        </g>
    </g>
</svg>