<?xml version="1.0" encoding="UTF-8"?>
<svg width="61px" height="81px" viewBox="0 0 61 81" version="1.1" xmlns="http://www.w3.org/2000/svg" xmlns:xlink="http://www.w3.org/1999/xlink">
    <!-- Generator: Sketch 58 (84663) - https://sketch.com -->
    <title>Icons / channel4</title>
    <desc>Created with Sketch.</desc>
    <g id="Page-1" stroke="none" stroke-width="1" fill="none" fill-rule="evenodd">
        <g id="Desktop" transform="translate(-639.000000, -926.000000)" fill="#FFFFFF">
            <g id="Icons-/-channel4" transform="translate(639.000000, 926.000000)">
                <g id="channel4">
                    <path d="M19.6560008,79.0508983 C18.6858007,78.2940055 17.2197007,77.1516175 16.3980007,76.5122574 L14.9040006,75.3497814 L14.9040006,71.8748957 L14.9040006,68.4000027 L18.4010782,68.4000027 L21.8981558,68.4000027 L23.0040009,69.2640028 C23.6122159,69.7392028 24.1283306,70.1280028 24.1509235,70.1280028 C24.1735164,70.1280028 24.192001,67.1148027 24.192001,63.4320025 L24.192001,56.7360023 L30.9226383,56.7360023 L37.6532749,56.7360023 L37.6726385,53.2799841 L37.6920015,49.8239653 L22.1226921,49.823984 L6.55338324,49.824002 L6.53469175,53.2853488 L6.51600026,56.7466964 L3.25800013,54.203791 L0,51.6608862 L0,48.1874146 L0,44.7139429 L2.37675206,44.6949723 L4.75350405,44.6760018 L3.27993536,43.5261538 C2.00681346,42.5327172 1.81910311,42.3613212 1.89999756,42.2661538 C1.95149449,42.2055701 3.62517278,40.0662016 5.61928256,37.5120015 C7.61339262,34.9578014 10.511657,31.2480012 12.0598694,29.2680012 C14.4378863,26.2267707 21.8015757,16.794509 21.8602773,16.7145105 C21.8705646,16.7004907 22.3809258,17.0811907 22.9944141,17.5605105 C23.6079017,18.0398297 24.1283306,18.4320007 24.1509235,18.4320007 C24.1735164,18.4320007 24.192001,17.3772677 24.192001,16.0881501 L24.192001,13.7442987 L27.6594916,9.30214981 C29.5666111,6.85896723 31.1347892,4.84972169 31.1443328,4.83715906 C31.1538756,4.8245965 31.6635665,5.20529651 32.2769785,5.68315909 C32.8903911,6.16102174 33.4120124,6.55200026 33.4361375,6.55200026 C33.4602625,6.55200026 33.4800013,5.49712289 33.4800013,4.20782834 L33.4800013,1.86365643 L34.2084556,0.928646389 C34.6091061,0.414390904 34.9645636,0.00316818013 34.9983626,0.0145766259 C35.0808069,0.0432358505 41.3909707,4.96713865 41.4338431,5.03650726 C41.4523492,5.06645091 41.1445053,5.50351123 40.7497459,6.00775231 L40.0320016,6.9245542 L40.0320016,12.5758963 L40.0320016,18.2272385 L42.5950203,14.9456195 C44.0046809,13.1407292 45.1839848,11.6640005 45.2156965,11.6640005 C45.318758,11.6640005 46.952369,12.9709899 46.9298531,13.0354313 C46.9178349,13.0698286 45.3609018,15.1234033 43.4700017,17.5989305 L40.0320016,22.0998897 L40.0320016,46.6179463 L40.0320016,71.1360028 L43.4520017,71.1360028 C45.3330018,71.1360028 46.8963019,71.1441028 46.9260019,71.1540028 C46.9557019,71.1639028 46.9888017,70.5483028 46.9995563,69.7860028 L47.0191115,68.4000027 L48.0505865,68.4000027 L49.0820614,68.4000027 L52.2948894,70.9020028 C54.0619452,72.2781029 55.5086816,73.4283029 55.5098605,73.4580029 C55.5110381,73.4877029 52.0293131,73.5120029 47.7726931,73.5120029 L40.0333847,73.5120029 L40.0146928,76.9721215 L39.9960016,80.43224 L38.8254968,79.5221744 L37.6549913,78.6121087 L37.65653,68.844057 L37.6580679,59.0760023 L34.2012707,59.0573111 L30.7444735,59.0386199 L30.7262374,69.7365575 L30.7080012,80.4344936 L29.5740012,79.548872 L28.4400011,78.6632503 L28.4400011,76.0876302 L28.4400011,73.5120029 L24.9486922,73.5120029 L21.457384,73.5120029 L21.4386921,76.9695367 L21.4200009,80.4270704 L19.6560008,79.0508983 Z M18.2497745,46.0980018 L19.3053478,44.7480018 L23.23213,44.7120018 L27.158913,44.6760018 L25.6754566,43.5253755 L24.192001,42.3747492 L24.1933495,40.4293754 L24.1946981,38.4840015 L26.3173496,35.7720602 L28.4400011,33.0601182 L28.4400011,27.4680594 C28.4400011,24.2006935 28.4131682,21.8859777 28.3754553,21.8999377 C28.339955,21.9132009 26.08295,24.775201 23.359889,28.2600011 C20.636828,31.7448013 16.1622741,37.4697238 13.4164352,40.9820517 C10.6705955,44.4943796 8.42400033,47.3860797 8.42400033,47.408052 C8.42400033,47.4300242 10.3972958,47.4480019 12.8091007,47.4480019 L17.1942012,47.4480019 L18.2497745,46.0980018 Z M37.6737293,28.7280004 C37.6837791,18.4319993 37.6699486,10.016099 37.6429954,10.025991 C37.6160422,10.0358997 36.0527422,12.0168912 34.1689953,14.4282023 L30.7440012,18.8124041 L30.7440012,33.130203 L30.7440012,47.4480019 L34.1997292,47.4480019 L37.6554579,47.4480019 L37.6737293,28.7280004 Z M48.1500019,55.8540181 L47.0160019,54.9746395 L47.0160019,49.843321 L47.0160019,44.7120018 L50.382002,44.7135606 L53.7480021,44.7151187 L56.8440023,47.13501 C58.5468023,48.4659502 59.9967024,49.5908429 60.0660024,49.6347709 C60.1353024,49.6786995 60.1920024,49.7392472 60.1920024,49.7693216 C60.1920024,49.799396 57.7461133,49.824002 54.7566934,49.824002 L49.3213851,49.824002 L49.3026932,53.2786996 L49.284002,56.7333966 L48.1500019,55.8540181 Z" id="path2363" fill-rule="nonzero"></path>
                </g>
            </g>
        </g>
    </g>
</svg>