<?xml version="1.0" encoding="UTF-8"?>
<svg width="85px" height="85px" viewBox="0 0 85 85" version="1.1" xmlns="http://www.w3.org/2000/svg" xmlns:xlink="http://www.w3.org/1999/xlink">
    <!-- Generator: Sketch 58 (84663) - https://sketch.com -->
    <title>Icons / donmar</title>
    <desc>Created with Sketch.</desc>
    <g id="Page-1" stroke="none" stroke-width="1" fill="none" fill-rule="evenodd">
        <g id="Desktop" transform="translate(-723.000000, -1052.000000)">
            <g id="Icons-/-donmar" transform="translate(723.000000, 1052.000000)">
                <g id="donmar">
                    <rect id="Rectangle" fill="#FFFFFF" fill-rule="nonzero" x="0" y="0" width="84.24" height="84.24"></rect>
                    <g transform="translate(32.760000, 1.560000)" fill-rule="nonzero" id="Shape">
                        <polyline fill="#FFFFFF" points="0.29328 82.01037 19.7613 82.01037 19.7613 0 0.2925 0"></polyline>
                        <path d="M10.05537,25.86402 C8.92827,25.86402 8.22159,25.18542 8.22159,24.2346 C8.22159,23.28417 8.92827,22.59153 10.05576,22.59153 C11.18286,22.59153 11.90241,23.28417 11.90241,24.2346 C11.90241,25.18503 11.18247,25.86402 10.05576,25.86402 L10.05537,25.86402 Z M13.68081,20.51322 C12.74403,19.56357 11.49447,19.04682 10.05576,19.04682 C8.61666,19.04682 7.38036,19.56357 6.44319,20.51322 C5.49237,21.49212 4.96275,22.78146 4.96275,24.2346 C4.96275,25.6737 5.49237,26.9919 6.42915,27.94194 C7.38075,28.90602 8.61627,29.42199 10.05615,29.42199 C11.48121,29.42199 12.74403,28.90641 13.68081,27.95559 C14.63241,26.97825 15.14721,25.68774 15.14721,24.23499 C15.14721,22.78185 14.63241,21.49212 13.68081,20.51439 L13.68081,20.51322 Z M5.22015,39.546 L5.22015,36.09684 L10.0776,33.2163 L5.22054,33.21786 L5.22054,29.8506 L14.92998,29.8506 L14.92998,33.27207 L10.02924,36.18147 L14.92998,36.17835 L14.92998,39.546 L5.22015,39.546 Z M12.43125,67.4271 C12.43125,68.1057 12.06465,68.45865 11.46795,68.45865 C10.86969,68.45865 10.53,68.09205 10.53,67.42671 L10.53,66.88344 L12.43125,66.88344 L12.43125,67.42632 L12.43125,67.4271 Z M5.22015,63.46158 L5.22015,66.88383 L8.42556,66.88383 L5.22093,68.58033 L5.22093,72.49203 L9.17163,69.89853 C9.30813,71.02563 10.27143,71.7717 11.6571,71.7717 C13.73463,71.7717 14.92998,70.44102 14.92998,67.84752 L14.92998,63.46158 L5.22054,63.46158 L5.22015,63.46158 Z M14.70105,72.31302 L15.30555,72.48189 L14.70105,72.65037 L14.70105,72.8637 L15.71817,73.13046 L15.71817,72.88086 L15.14643,72.74904 L15.71817,72.58914 L15.71817,72.37308 L15.14643,72.21435 L15.71817,72.08175 L15.71817,71.8341 L14.70105,72.10008 L14.70105,72.31302 Z" fill="#000000"></path>
                        <path d="M15.31998,73.2693 C14.87928,73.2693 14.52048,72.9105 14.52048,72.4698 C14.52048,72.02832 14.87928,71.6703 15.31998,71.6703 C15.76068,71.6703 16.11948,72.02832 16.11948,72.4698 C16.11948,72.9105 15.76068,73.2693 15.31998,73.2693 L15.31998,73.2693 Z M15.31998,71.4519 C14.75838,71.4519 14.30208,71.9082 14.30208,72.4698 C14.30208,73.0314 14.75838,73.4877 15.31998,73.4877 C15.88041,73.4877 16.33788,73.0314 16.33788,72.4698 C16.33788,71.9082 15.88041,71.4519 15.31998,71.4519 L15.31998,71.4519 Z M8.7516,57.25278 L11.43597,57.9813 L8.75121,58.70553 L8.75121,57.25278 L8.7516,57.25278 Z M14.9292,41.4453 L5.22015,39.78858 L5.22015,43.21044 C5.22015,43.21044 9.96528,43.7112 10.49022,43.75254 L5.22054,45.32892 L5.22054,47.40684 L10.53897,48.9801 C9.89937,49.03314 9.40524,49.06863 9.06399,49.10412 L5.22093,49.52532 L5.22093,56.36982 L6.44319,56.66817 L6.44319,59.30301 L5.22093,59.61501 L5.22093,63.36291 L14.93037,59.96796 L14.93037,56.08356 L5.85312,52.84656 L14.93037,51.41214 L14.93037,47.814 L10.26987,46.40298 L14.93037,45.04344 L14.93037,41.44491 L14.9292,41.4453 Z M11.9418,13.0728 C11.9418,14.48577 11.3451,15.19167 10.06824,15.19167 C8.75121,15.19167 8.20794,14.47173 8.18064,12.92382 L11.94219,12.92382 L11.94219,13.07319 L11.9418,13.0728 Z M5.22054,9.4614 L5.22054,12.0276 C5.22054,13.9698 5.31531,15.4635 6.18462,16.72632 C7.06719,18.01644 8.46612,18.73599 10.06824,18.73599 C11.91489,18.73599 13.47684,17.79921 14.31924,16.12884 C14.76696,15.23262 14.93037,13.9698 14.93037,12.28578 L14.93037,9.46218 L5.22054,9.46218 L5.22054,9.4614 Z" fill="#000000"></path>
                    </g>
                </g>
            </g>
        </g>
    </g>
</svg>