<?xml version="1.0" encoding="UTF-8"?>
<svg width="63px" height="63px" viewBox="0 0 63 63" version="1.1" xmlns="http://www.w3.org/2000/svg" xmlns:xlink="http://www.w3.org/1999/xlink">
    <!-- Generator: Sketch 58 (84663) - https://sketch.com -->
    <title>Icons / gocogroup</title>
    <desc>Created with Sketch.</desc>
    <g id="Page-1" stroke="none" stroke-width="1" fill="none" fill-rule="evenodd">
        <g id="Desktop" transform="translate(-416.000000, -1061.000000)" fill="#FFFFFF">
            <g id="Icons-/-gocogroup" transform="translate(416.000000, 1061.000000)">
                <g id="goco">
                    <path d="M62.3999977,0 L62.3999977,62.3999977 L0,62.3999977 L0,0 L62.3999977,0 Z M60.3826695,2.01732826 L2.01732826,2.01732826 L2.01732826,60.3826695 L60.3826695,60.3826695 L60.3826695,2.01732826 Z M44.4054296,37.635222 C47.9075114,37.6272064 50.7237016,40.3304263 50.7237016,43.9132015 C50.7237016,47.5201842 48.0043432,50.1669189 44.4054296,50.1669189 C40.8791397,50.1669189 38.0871573,47.4717683 38.0871573,43.8889934 C38.0871573,40.2820104 40.8065159,37.635222 44.4054296,37.635222 Z M30.3890326,32.5596779 C33.5118569,32.5596779 35.9003736,33.9233919 37.6433451,36.6427503 L34.8755709,38.361514 C33.8426988,36.6750277 32.382153,35.7389872 30.4939338,35.7389872 C27.7987832,35.7631952 25.4828904,38.0871573 25.4828904,41.3632984 C25.4828904,44.8976577 28.1780411,46.9876096 30.5181419,46.9876096 C32.5596779,46.9876096 33.8184907,46.0515693 34.7222538,44.6394394 L37.3125032,46.3017179 C35.8277496,48.8758288 33.3827479,50.1346417 30.2357158,50.1346417 C25.4506131,50.1346417 21.8759075,46.3501338 21.8759075,41.3875065 C21.8759075,36.2150768 25.652346,32.5596779 30.3890326,32.5596779 Z M44.3812215,40.6854761 C42.6463193,40.6854761 41.3310212,42.1218138 41.3310212,43.8889934 C41.3310212,45.656173 42.6140419,47.1167186 44.3812215,47.1167186 C46.1484011,47.1167186 47.4314218,45.6481037 47.4314218,43.9132015 C47.4314218,42.1218138 46.124193,40.6854761 44.3812215,40.6854761 Z M37.1027012,17.3086225 C40.6289911,17.300607 43.4209731,20.0038268 43.4209731,23.5866018 C43.4209731,27.1935846 40.7016148,29.8403195 37.1027012,29.8403195 C33.5764112,29.8403195 30.7844292,27.145169 30.7844292,23.5623939 C30.7844292,19.955411 33.5037875,17.3086225 37.1027012,17.3086225 Z M20.4557084,12.2330784 C23.6995722,12.2330784 26.19299,13.6452082 27.9359616,16.372636 L25.1923951,18.0591224 C24.1353151,16.4936757 22.4004128,15.3881798 20.5606094,15.3881798 C17.4619933,15.3881798 15.1703083,17.7605578 15.1703083,21.0366989 C15.1703083,24.5145728 17.8654589,26.7094259 20.5041243,26.7094259 C22.4649673,26.7094259 23.925513,25.9751185 24.6356125,24.31284 L21.787145,24.31284 L21.787145,21.6661053 L29.1705666,21.6661053 L29.1705666,29.5821013 L26.4027921,29.5821013 L26.4027921,26.6529409 C25.1681872,28.694477 23.1024431,29.8080421 20.0038269,29.8080421 C15.3236253,29.8080421 11.6682265,25.8460095 11.6682265,21.0609069 C11.6682265,15.9933783 15.5172888,12.2330784 20.4557084,12.2330784 Z M37.0946318,20.3588766 C35.3597296,20.3588766 34.0444315,21.7952143 34.0444315,23.5623939 C34.0444315,25.3295734 35.3516602,26.790119 37.0946318,26.790119 C38.8618114,26.7820499 40.1448321,25.3215041 40.1448321,23.5866018 C40.1448321,21.7952143 38.8376036,20.3588766 37.0946318,20.3588766 Z" id="Combined-Shape" fill-rule="nonzero"></path>
                </g>
            </g>
        </g>
    </g>
</svg>