<?xml version="1.0" encoding="UTF-8"?>
<svg width="96px" height="80px" viewBox="0 0 96 80" version="1.1" xmlns="http://www.w3.org/2000/svg" xmlns:xlink="http://www.w3.org/1999/xlink">
    <!-- Generator: Sketch 58 (84663) - https://sketch.com -->
    <title>Icons / gov</title>
    <desc>Created with Sketch.</desc>
    <g id="Page-1" stroke="none" stroke-width="1" fill="none" fill-rule="evenodd">
        <g id="Desktop" transform="translate(-87.000000, -925.000000)" fill="#FFFFFF">
            <g id="Icons-/-gov" transform="translate(87.000000, 925.000000)">
                <g id="crown">
                    <path d="M40.9617408,12.9185185 C40.4897628,13.8666667 40.0177852,14.2222222 40.1357796,14.9333333 C40.253774,15.6444445 40.9617408,16 41.1977296,16.7111111 C41.5517128,15.8814815 42.0236904,15.4074074 42.0236904,14.6962963 L40.9617408,12.9185185 L40.9617408,12.9185185 Z M52.6431876,12.9185185 C54.0591204,15.8814815 53.2331596,15.0518518 52.2892044,16.7111111 C51.9352212,15.8814815 51.4632436,15.4074074 51.4632436,14.6962963 C51.6992324,14.3407408 52.4071988,13.3925926 52.6431876,12.9185185 L52.6431876,12.9185185 Z M34.3540534,12.4444445 C34.8260311,12.4444445 35.1800144,12.0888889 35.1800144,11.6148148 C35.1800144,10.5481482 33.646087,10.5481482 33.646087,11.6148148 C33.5280925,12.2074074 33.8820758,12.4444445 34.3540534,12.4444445 L34.3540534,12.4444445 Z M34.8260311,13.6296297 C34.8260311,12.562963 33.2921037,12.562963 33.2921037,13.6296297 C33.2921037,14.6962963 34.8260311,14.5777778 34.8260311,13.6296297 L34.8260311,13.6296297 Z M35.1800144,15.5259259 C35.1800144,14.4592592 33.646087,14.4592592 33.646087,15.5259259 C33.646087,16.5925926 35.1800144,16.5925926 35.1800144,15.5259259 L35.1800144,15.5259259 Z M38.7198468,8.77037032 C39.7817965,8.77037032 39.7817965,7.22962968 38.7198468,7.22962968 C37.657897,7.22962968 37.657897,8.77037032 38.7198468,8.77037032 L38.7198468,8.77037032 Z M36.7139417,9.36296296 C37.7758914,9.36296296 37.7758914,7.82222224 36.7139417,7.82222224 C35.651992,7.82222224 35.651992,9.36296296 36.7139417,9.36296296 L36.7139417,9.36296296 Z M35.1800144,10.6666667 C36.2419641,10.6666667 36.2419641,9.12592596 35.1800144,9.12592596 C34.236059,9.12592596 34.236059,10.6666667 35.1800144,10.6666667 L35.1800144,10.6666667 Z M40.7257519,8.88888892 C41.7877016,8.88888892 41.7877016,7.34814816 40.7257519,7.34814816 C39.6638021,7.34814816 39.6638021,8.88888892 40.7257519,8.88888892 L40.7257519,8.88888892 Z M42.7316568,9.48148148 C43.7936064,9.48148148 43.7936064,7.94074076 42.7316568,7.94074076 C41.5517128,7.94074076 41.6697072,9.48148148 42.7316568,9.48148148 L42.7316568,9.48148148 Z M44.5015731,10.3111111 C45.5635228,10.3111111 45.5635228,8.77037032 44.5015731,8.77037032 C43.4396232,8.77037032 43.4396232,10.3111111 44.5015731,10.3111111 L44.5015731,10.3111111 Z M58.5429084,11.7333333 C58.5429084,12.8 60.0768356,12.8 60.0768356,11.7333333 C60.0768356,10.6666667 58.5429084,10.6666667 58.5429084,11.7333333 L58.5429084,11.7333333 Z M59.4868636,12.8 C58.424914,12.8 58.424914,14.3407408 59.4868636,14.3407408 C59.9588412,14.3407408 60.3128244,13.9851852 60.3128244,13.5111111 C60.3128244,13.1555555 59.9588412,12.8 59.4868636,12.8 L59.4868636,12.8 Z M59.1328804,14.6962963 C58.0709308,14.6962963 58.0709308,16.237037 59.1328804,16.237037 C59.604858,16.237037 59.9588412,15.8814815 59.9588412,15.4074074 C59.9588412,15.0518518 59.604858,14.6962963 59.1328804,14.6962963 L59.1328804,14.6962963 Z M54.8850816,8.77037032 C55.9470312,8.77037032 55.9470312,7.22962968 54.8850816,7.22962968 C54.413104,7.22962968 54.0591204,7.5851852 54.0591204,8.05925924 C54.0591204,8.29629628 54.413104,8.77037032 54.8850816,8.77037032 L54.8850816,8.77037032 Z M56.8909866,9.36296296 C57.9529364,9.36296296 57.9529364,7.82222224 56.8909866,7.82222224 C55.8290368,7.82222224 55.8290368,9.36296296 56.8909866,9.36296296 L56.8909866,9.36296296 Z M58.424914,10.6666667 C59.4868636,10.6666667 59.4868636,9.12592596 58.424914,9.12592596 C57.9529364,9.12592596 57.5989532,9.48148148 57.5989532,9.95555552 C57.5989532,10.4296297 58.0709308,10.6666667 58.424914,10.6666667 L58.424914,10.6666667 Z M52.8791764,8.88888892 C53.941126,8.88888892 53.941126,7.34814816 52.8791764,7.34814816 C51.8172268,7.34814816 51.9352212,8.88888892 52.8791764,8.88888892 L52.8791764,8.88888892 Z M50.991266,9.48148148 C52.0532156,9.48148148 52.0532156,7.94074076 50.991266,7.94074076 C49.8113216,7.94074076 49.8113216,9.48148148 50.991266,9.48148148 L50.991266,9.48148148 Z M48.2773944,9.6 C48.2773944,10.074074 48.6313776,10.4296297 49.1033552,10.4296297 C50.1653048,10.4296297 50.1653048,8.88888892 49.1033552,8.88888892 C48.6313776,8.77037032 48.2773944,9.12592596 48.2773944,9.6 L48.2773944,9.6 Z M45.4455284,13.8666667 L46.3894836,13.8666667 L46.3894836,10.5481482 C46.0355004,10.5481482 45.7995116,10.4296297 45.4455284,10.3111111 L45.4455284,13.8666667 Z M48.1594,10.1925926 C47.9234112,10.3111111 47.569428,10.4296297 47.2154444,10.4296297 L47.2154444,13.7481482 L48.1594,13.7481482 L48.1594,10.1925926 L48.1594,10.1925926 Z M46.2714892,6.4 L46.2714892,4.50370372 C45.2095396,4.74074076 44.5015732,5.57037036 44.3835788,6.51851852 L46.2714892,6.4 Z M47.3334388,6.4 L49.2213496,6.4 C48.9853608,5.33333332 48.2773942,4.62222224 47.3334388,4.3851852 L47.3334388,6.4 Z M44.3835788,7.46666668 C44.9735508,10.074074 48.6313776,10.074074 49.2213496,7.46666668 L44.3835788,7.46666668 Z M48.1594,4.14814816 C47.569428,3.67407408 47.09745,3.08148148 47.09745,2.37037037 C47.8054168,2.48888889 48.3953888,2.96296297 48.8673664,3.43703703 L48.8673664,0.829629628 C48.3953888,1.42222222 47.8054168,1.8962963 47.09745,1.8962963 C47.2154444,1.18518518 47.569428,0.711111108 48.1594,0 L45.5635228,0 C46.1534948,0.711111108 46.6254724,1.18518518 46.6254724,1.8962963 C45.7995116,1.77777778 45.2095396,1.42222222 44.737562,0.829629628 L44.737562,3.55555555 C45.2095396,2.96296297 45.7995116,2.48888889 46.507478,2.48888889 C46.3894836,3.2 45.917506,3.7925926 45.4455284,4.26666668 C45.327534,4.14814816 48.1594,4.14814816 48.1594,4.14814816 L48.1594,4.14814816 Z M48.1594,60.8 C46.9794556,60.8 46.9794556,58.9037036 48.1594,58.9037036 C49.5753328,58.7851852 49.5753328,60.8 48.1594,60.8 L48.1594,60.8 Z M43.5576176,59.2592592 C42.2596792,59.2592592 42.2596792,57.125926 43.5576176,57.125926 C45.0915452,57.125926 45.0915452,59.2592592 43.5576176,59.2592592 L43.5576176,59.2592592 Z M42.0236904,54.5185184 C40.9617408,53.5703704 40.725752,53.925926 39.5458077,55.2296296 C40.6077572,56.1777776 40.3717684,57.2444444 38.7198468,56.2962964 C37.657897,57.9555556 37.657897,57.9555556 39.5458077,59.0222224 C38.483858,59.7333332 35.8879808,58.548148 37.8938858,55.4666668 L37.4219082,54.6370372 C37.7758914,54.6370372 38.0118803,54.7555556 38.3658635,54.874074 C41.5517128,51.4370372 43.08564,55.4666668 42.0236904,54.5185184 L42.0236904,54.5185184 Z M51.1092604,58.3111112 C48.6313776,57.6 45.6815172,56.651852 42.9676456,55.348148 C43.08564,53.925926 41.905696,52.8592592 40.843746,52.8592592 C40.1357796,52.8592592 40.253774,53.451852 38.9558356,51.7925924 C37.8938858,50.6074076 37.0679249,49.0666668 36.4779529,47.525926 C36.1239696,46.5777776 35.8879808,45.748148 35.7699864,44.6814816 C35.651992,45.5111112 34.7080367,46.5777776 33.1741093,46.5777776 C33.4100981,45.1555556 32.820126,47.1703704 30.5782322,46.4592592 C30.814221,47.525926 31.1682042,48.5925924 31.5221875,49.7777776 C32.3481484,52.0296296 33.5280925,54.0444444 35.0620199,55.7037036 C35.5339976,56.2962964 36.1239696,56.7703704 36.5959473,57.2444444 L36.5959473,57.6 C36.5959473,58.6666668 38.2478691,60.5629628 39.8997909,59.2592592 C42.6136624,60.6814816 46.6254724,61.748148 49.339344,61.748148 C50.519288,61.748148 52.17121,61.1555556 53.7051372,60.2074076 C54.413104,59.7333332 54.8850816,59.2592592 55.4750536,58.7851852 C54.2951096,59.0222224 52.5251932,58.6666668 51.1092604,58.3111112 L51.1092604,58.3111112 Z M50.2832992,68.3851852 C50.0473104,68.0296296 49.8113216,67.7925924 49.5753328,67.7925924 C48.5133832,67.7925924 48.9853608,70.5185184 47.8054168,70.5185184 C47.2154444,70.5185184 46.9794556,70.1629628 46.9794556,69.8074076 L47.2154444,68.9777776 C47.2154444,68.3851852 46.1534948,68.3851852 46.1534948,68.9777776 L46.3894836,69.8074076 C46.3894836,70.1629628 46.0355004,70.5185184 45.5635228,70.5185184 C44.3835788,70.5185184 44.737562,67.7925924 43.7936064,67.7925924 C43.5576176,67.7925924 43.3216288,68.0296296 43.08564,68.3851852 C42.3776736,67.0814816 43.08564,66.1333332 44.0295956,66.1333332 C45.327534,66.1333332 45.0915452,67.9111112 45.6815172,67.9111112 C46.0355004,67.9111112 46.1534948,67.674074 46.1534948,67.4370372 C46.1534948,66.3703704 43.675612,66.1333332 46.6254724,63.7629628 C49.5753328,66.1333332 47.09745,66.3703704 47.09745,67.4370372 C47.09745,67.674074 47.3334388,67.9111112 47.569428,67.9111112 C48.2773944,67.9111112 47.9234112,66.1333332 49.2213496,66.1333332 C50.0473104,66.1333332 50.2832992,66.8444444 50.2832992,67.2 C50.6372824,67.5555556 50.519288,67.9111112 50.2832992,68.3851852 L50.2832992,68.3851852 Z M46.8614612,72.0592596 C45.917506,72.0592596 45.917506,70.7555556 46.8614612,70.7555556 C47.6874224,70.7555556 47.6874224,72.0592596 46.8614612,72.0592596 L46.8614612,72.0592596 Z M49.5753328,65.5407408 C49.339344,65.5407408 49.2213496,65.5407408 49.1033552,65.6592592 L49.1033552,62.6962964 C47.8054168,62.6962964 46.2714892,62.4592592 44.737562,61.9851852 L44.737562,65.5407408 C43.2036344,64.948148 41.4337184,66.8444444 43.4396232,68.9777776 C44.5015732,66.251852 44.1475896,70.6370372 45.917506,70.7555556 C45.917506,70.8740744 45.7995116,70.9925924 45.7995116,71.2296296 C45.7995116,73.0074076 48.749372,72.5333332 48.0414056,70.7555556 C49.8113216,70.6370372 49.1033552,66.251852 50.519288,68.9777776 C50.8732716,68.5037036 51.3452492,67.9111112 51.3452492,67.0814816 C51.2272548,66.4888888 50.519288,65.5407408 49.5753328,65.5407408 L49.5753328,65.5407408 Z M84.2656904,69.2148148 C84.147696,69.0962964 84.029702,68.9777776 83.9117076,68.9777776 C76.2420704,71.2296296 61.9647464,52.0296296 57.362964,63.051852 C55.8290368,66.8444444 52.9971708,68.148148 58.3069196,70.7555556 C59.014886,71.1111108 59.3688692,71.348148 59.4868636,71.7037032 C54.413104,73.9555552 45.6815172,74.4296296 39.4278132,73.2444448 C31.8761708,71.9407404 34.3540534,71.2296296 36.1239696,70.2814816 C40.6077572,67.9111112 38.0118803,66.9629628 36.4779529,63.051852 C33.5280925,56.0592592 25.0324947,62.2222224 21.96464,64.3555556 C17.8348354,67.2 13.5870366,69.925926 10.0472041,68.9777776 C9.69322088,68.8592592 9.45723204,69.451852 9.81121524,69.5703704 C15.120964,71.9407404 14.0590142,76.8 24.7965059,69.451852 C27.5103774,67.5555556 30.3422434,65.6592592 33.0561149,65.4222224 C29.2802936,69.3333332 30.814221,67.674074 32.9381205,75.3777776 C34.0000702,79.7629628 42.495668,80 47.09745,80 C52.6431876,80 56.5370032,79.4074076 58.7788972,78.2222224 C62.0827408,76.5629628 60.6668076,75.0222224 62.6727128,71.1111108 C64.4426292,67.7925924 62.7907072,67.2 61.0207912,65.4222224 C66.5665284,65.8962964 72.4662492,73.3629628 77.6580036,73.3629628 C79.8998972,73.3629628 81.669814,70.6370372 84.2656904,69.5703704 L84.2656904,69.2148148 L84.2656904,69.2148148 Z M47.3334388,42.1925924 L47.3334388,29.1555555 C53.5871428,29.5111111 57.9529364,35.437037 58.0709308,42.1925924 L47.3334388,42.1925924 Z M46.8614612,23.7037037 C43.2036344,23.7037037 40.6077572,24.7703703 39.1918244,25.7185185 C38.2478691,25.125926 38.0118803,24.6518518 38.0118803,24.1777778 C38.0118803,22.0444445 43.9116008,21.925926 46.9794556,21.925926 C50.0473104,21.925926 55.9470312,22.162963 55.9470312,24.1777778 C55.9470312,24.7703703 55.593048,25.2444445 54.7670872,25.7185185 C52.9971708,24.7703703 50.519288,23.7037037 46.8614612,23.7037037 L46.8614612,23.7037037 Z M46.6254724,42.1925924 L35.5339976,42.1925924 C35.651992,35.0814815 40.4897628,29.274074 46.6254724,29.1555555 L46.6254724,42.1925924 Z M63.3806792,41.3629628 C63.026696,41.0074076 62.3187296,40.4148148 62.0827408,39.8222222 C59.4868636,34.3703703 58.7788972,34.3703703 59.7228524,33.1851852 L60.7848024,32.1185185 C59.604858,30.1037037 57.5989532,27.8518518 55.2390648,26.3111111 C55.9470312,25.837037 56.5370032,25.2444445 56.5370032,24.1777778 C56.5370032,23.5851852 56.3010144,23.1111111 55.8290368,22.7555555 C56.5370032,20.5037037 57.7169476,17.7777778 58.8968916,16.7111111 L56.6549976,15.762963 C57.2449696,16.7111111 57.362964,17.6592592 57.1269752,18.2518518 C56.5370032,17.7777778 56.0650256,17.1851852 55.9470312,16.5925926 C55.8290368,17.3037037 55.4750536,18.3703703 55.1210704,19.0814815 C55.8290368,18.725926 56.18302,18.6074074 56.8909864,18.8444445 C55.593048,20.6222222 52.5251932,19.674074 52.5251932,18.4888889 C52.5251932,18.1333333 52.8791764,17.6592592 53.351154,17.6592592 C53.8231316,17.6592592 53.941126,18.4888889 53.7051372,18.725926 C54.413104,18.3703703 55.003076,16.474074 54.0591204,16.237037 C53.2331596,16 52.6431876,17.1851852 52.2892044,17.8962963 C51.6992324,14.4592592 49.1033552,16.474074 50.6372824,18.4888889 C50.7552768,17.7777778 51.1092604,17.4222222 51.4632436,17.4222222 C51.6992324,17.4222222 52.17121,17.6592592 52.0532156,18.2518518 C51.9352212,18.8444445 51.1092604,19.3185185 50.1653048,19.3185185 C49.2213496,19.3185185 47.569428,18.962963 47.3334388,17.1851852 C47.9234112,17.3037037 48.8673664,17.7777778 49.339344,18.3703703 C48.749372,13.5111111 50.2832992,16 47.4514332,16.5925926 C47.6874224,15.762963 48.2773944,15.0518518 48.9853608,14.4592592 L44.9735508,14.4592592 C45.7995116,14.9333333 46.3894836,15.762963 46.507478,16.5925926 C45.917506,16.474074 45.0915452,16.1185185 44.6195676,15.4074074 C45.2095396,20.3851852 43.5576176,17.8962963 46.507478,17.1851852 C46.3894836,18.962963 44.737562,19.3185185 43.7936064,19.3185185 C41.5517128,19.3185185 41.4337184,17.6592592 42.495668,17.5407408 C42.8496512,17.5407408 43.2036344,17.8962963 43.2036344,18.6074074 C44.737562,16.5925926 42.1416848,14.5777778 41.5517128,18.0148148 C41.315724,17.1851852 40.4897628,16.1185185 39.7817965,16.3555555 C38.7198468,16.5925926 39.4278132,18.4888889 40.1357796,18.8444445 C39.5458077,17.6592592 41.1977296,17.3037037 41.1977296,18.4888889 C41.1977296,19.0814815 40.3717684,19.5555555 39.6638021,19.674074 C37.1859194,20.2666667 35.8879808,17.5407408 38.6018523,18.8444445 C38.2478691,18.1333333 37.8938858,17.0666667 37.7758914,16.3555555 C37.5399026,17.1851852 37.0679249,17.6592592 36.5959473,18.0148148 C36.4779529,17.4222222 36.4779529,16.3555555 37.0679249,15.4074074 L34.8260311,16.3555555 C35.8879808,17.4222222 37.1859194,20.1481482 37.8938858,22.4 C37.4219082,22.7555555 37.1859194,23.3481482 37.1859194,23.8222222 C37.1859194,24.8888889 37.8938858,25.4814815 38.483858,25.9555555 C37.3039138,26.7851852 36.1239696,27.7333333 35.1800144,28.9185185 C33.646087,30.5777778 32.4661428,32.5925926 31.6401819,34.8444445 C31.9941651,35.2 33.2921037,36.6222222 33.5280925,36.9777778 C35.0620199,38.9925926 33.7640813,39.2296297 35.1800144,41.0074076 C35.2980087,41.2444444 35.651992,42.074074 35.651992,42.4296296 L46.8614612,42.4296296 L46.8614612,54.5185184 C46.3894836,54.5185184 45.917506,54.6370372 45.6815172,55.1111112 C50.991266,57.2444444 48.749372,56.4148148 50.0473104,54.6370372 C50.0473104,54.6370372 48.5133832,54.5185184 47.569428,54.4 L47.569428,42.9037036 L58.3069196,42.9037036 C57.9529364,53.451852 50.6372824,53.2148148 50.2832992,57.2444444 C50.8732716,57.3629628 51.1092604,57.4814816 51.4632436,57.6 C56.4190088,58.7851852 56.4190088,58.6666668 58.7788972,55.8222224 C60.3128244,54.1629628 61.4927688,52.148148 62.3187296,49.8962964 C63.1446904,47.051852 63.4986736,43.851852 63.3806792,41.3629628 L63.3806792,41.3629628 Z M53.351154,34.4888889 C53.2331596,34.6074074 53.2331596,34.725926 53.2331596,34.8444445 C53.2331596,34.962963 53.351154,35.0814815 53.5871428,35.0814815 C53.4691484,35.2 53.351154,35.3185185 53.351154,35.5555555 C53.5871428,35.5555555 53.7051372,35.5555555 53.941126,35.437037 C53.941126,35.674074 53.941126,35.7925926 54.0591204,35.7925926 L54.413104,35.7925926 C55.2390648,37.0962963 55.7110424,38.637037 55.9470312,40.1777776 C55.8290368,40.0592592 55.7110424,40.0592592 55.4750536,40.0592592 C55.4750536,40.2962964 55.593048,40.4148148 55.7110424,40.5333332 L52.9971708,40.5333332 C52.9971708,40.2962964 52.8791764,40.1777776 52.761182,40.1777776 C52.6431876,40.1777776 52.5251932,40.1777776 52.4071988,40.2962964 C52.4071988,40.1777776 52.2892044,39.9407408 52.17121,39.8222222 C52.0532156,39.9407408 51.9352212,40.1777776 51.9352212,40.2962964 C51.8172268,40.1777776 51.6992324,40.0592592 51.581238,40.1777776 C51.4632436,40.1777776 51.3452492,40.4148148 51.3452492,40.5333332 L48.9853608,40.5333332 C49.1033552,40.4148148 49.1033552,40.2962964 49.1033552,40.0592592 C48.8673664,40.0592592 48.749372,40.1777776 48.6313776,40.2962964 L48.6313776,36.6222222 C48.8673664,36.6222222 48.9853608,36.5037037 48.9853608,36.3851852 C48.9853608,36.2666667 48.9853608,36.1481482 48.8673664,36.0296297 C48.9853608,36.0296297 49.2213496,35.9111111 49.339344,35.7925926 C49.2213496,35.674074 48.9853608,35.5555555 48.8673664,35.5555555 C48.9853608,35.437037 48.9853608,35.3185185 48.9853608,35.2 C48.9853608,35.0814815 48.749372,34.962963 48.6313776,34.962963 L48.6313776,31.762963 C48.749372,31.8814815 48.8673664,31.8814815 49.1033552,31.8814815 C49.1033552,31.6444445 49.1033552,31.525926 48.9853608,31.4074074 C50.7552768,32 52.17121,33.0666667 53.351154,34.4888889 L53.351154,34.4888889 Z M56.3010144,40.0592592 C56.5370032,40.1777776 56.4190088,40.5333332 56.18302,40.5333332 C55.9470312,38.637037 55.1210704,36.6222222 54.0591204,34.962963 C54.2951096,34.725926 54.5310984,34.8444445 54.5310984,34.3703703 C54.1771152,34.3703703 53.941126,34.4888889 53.8231316,34.725926 C52.6431876,33.0666667 50.7552768,31.525926 48.6313776,31.0518518 C48.6313776,30.8148148 48.9853608,30.8148148 49.1033552,30.9333333 C49.1033552,30.4592592 48.5133832,30.2222222 48.3953888,30.6962963 C48.0414056,30.2222222 47.569428,30.4592592 48.0414056,30.9333333 L47.8054168,31.0518518 C47.6874224,31.1703703 47.8054168,31.525926 48.1594,31.6444445 C48.0414056,31.525926 48.0414056,31.1703703 48.2773944,31.2888889 L48.2773944,35.5555555 C48.0414056,35.437037 47.8054168,35.5555555 47.569428,35.7925926 C47.8054168,36.0296297 48.0414056,36.0296297 48.2773944,36.0296297 L48.2773944,40.5333332 C48.0414056,40.5333332 47.9234112,40.2962964 48.1594,40.1777776 C47.569428,40.1777776 47.569428,40.8888888 48.0414056,40.8888888 C47.9234112,41.0074076 47.8054168,41.125926 47.8054168,41.3629628 C48.0414056,41.3629628 48.1594,41.2444444 48.2773944,41.125926 C48.2773944,41.3629628 48.3953888,41.4814816 48.5133832,41.4814816 C48.6313776,41.6 48.9853608,41.3629628 48.9853608,41.0074076 C48.8673664,41.2444444 48.5133832,41.125926 48.5133832,40.8888888 L51.6992324,40.8888888 C51.581238,41.125926 51.6992324,41.3629628 51.9352212,41.6 C52.17121,41.3629628 52.17121,41.125926 52.17121,40.8888888 L55.7110424,40.8888888 C55.7110424,41.125926 55.4750536,41.2444444 55.3570592,41.0074076 C55.3570592,41.3629628 55.7110424,41.4814816 55.8290368,41.4814816 C55.9470312,41.4814816 56.0650256,41.3629628 55.9470312,41.125926 C56.0650256,41.2444444 56.18302,41.3629628 56.4190088,41.3629628 C56.4190088,41.125926 56.3010144,41.0074076 56.18302,40.8888888 C56.4190088,40.8888888 56.5370032,40.7703704 56.5370032,40.651852 C56.8909864,40.4148148 56.6549976,40.0592592 56.3010144,40.0592592 L56.3010144,40.0592592 Z M54.413104,38.874074 L54.7670872,38.637037 L54.413104,38.637037 C54.5310984,38.5185185 54.6490928,38.637037 54.5310984,38.4 C54.413104,38.162963 54.2951096,38.162963 54.1771152,38.2814815 C54.0591204,38.4 53.1151652,38.2814815 53.1151652,37.5703703 C53.2331596,37.6888889 53.351154,37.8074074 53.4691484,37.8074074 L54.0591204,37.8074074 C54.2951096,37.8074074 54.413104,37.6888889 54.413104,37.4518518 C54.413104,37.0962963 54.0591204,36.8592592 53.7051372,36.6222222 L53.351154,36.2666667 C53.2331596,36.0296297 53.351154,35.7925926 52.9971708,35.3185185 C52.9971708,35.2 52.9971708,35.0814815 52.8791764,34.8444445 C52.6431876,35.2 52.6431876,35.7925926 53.1151652,36.1481482 C53.4691484,36.6222222 54.1771152,36.9777778 54.1771152,37.2148148 C54.1771152,37.3333333 54.0591204,37.3333333 53.941126,37.4518518 L53.7051372,37.4518518 C53.7051372,37.4518518 53.5871428,37.4518518 53.5871428,37.3333333 C53.4691484,37.3333333 53.351154,37.2148148 53.351154,37.0962963 C52.9971708,36.7407408 52.761182,36.2666667 52.5251932,36.0296297 C52.17121,35.5555555 52.2892044,35.0814815 52.4071988,34.8444445 C52.6431876,34.4888889 52.2892044,33.7777778 52.0532156,33.6592592 L52.0532156,33.3037037 L51.8172268,33.3037037 L51.8172268,33.4222222 C51.6992324,33.4222222 51.6992324,33.3037037 51.6992324,33.1851852 C51.581238,33.3037037 51.581238,33.3037037 51.4632436,33.3037037 L51.2272548,33.3037037 C51.1092604,33.4222222 51.1092604,33.4222222 50.991266,33.4222222 C50.8732716,33.4222222 50.8732716,33.5407408 50.8732716,33.6592592 C50.8732716,33.7777778 50.8732716,33.8962963 50.991266,33.8962963 L51.1092604,34.0148148 L51.2272548,33.8962963 C51.3452492,33.7777778 51.4632436,33.7777778 51.581238,34.0148148 C51.581238,34.1333333 51.581238,34.1333333 51.4632436,34.1333333 L51.1092604,34.1333333 C50.991266,34.1333333 50.991266,34.2518518 50.991266,34.3703703 C50.991266,34.4888889 51.1092604,34.4888889 51.2272548,34.4888889 C51.4632436,34.4888889 51.6992324,34.3703703 51.6992324,34.6074074 C51.6992324,34.962963 51.2272548,34.962963 51.1092604,35.437037 C50.991266,35.3185185 50.8732716,35.3185185 50.8732716,35.2 C50.7552768,35.0814815 50.6372824,34.962963 50.519288,34.725926 C50.4012936,34.6074074 50.2832992,34.4888889 50.1653048,34.4888889 C49.929316,34.3703703 49.929316,34.3703703 49.929316,34.1333333 C49.929316,34.0148148 50.0473104,33.8962963 49.929316,33.7777778 L49.929316,33.6592592 C49.929316,33.5407408 49.8113216,33.5407408 49.6933272,33.5407408 L49.8113216,33.6592592 L49.6933272,33.7777778 L49.6933272,34.0148148 C49.6933272,33.8962963 49.5753328,33.7777778 49.5753328,33.7777778 L49.4573384,33.7777778 C49.4573384,33.6592592 49.339344,33.5407408 49.2213496,33.6592592 L49.339344,33.6592592 L49.339344,33.7777778 C49.339344,33.8962963 49.4573384,33.8962963 49.5753328,33.8962963 C49.339344,33.7777778 49.339344,33.8962963 49.339344,34.0148148 L49.339344,34.1333333 C49.2213496,34.1333333 49.2213496,34.2518518 49.339344,34.3703703 L49.339344,34.2518518 L49.4573384,34.2518518 C49.339344,34.3703703 49.339344,34.4888889 49.4573384,34.4888889 C49.339344,34.6074074 49.2213496,34.6074074 49.2213496,34.3703703 C49.1033552,34.6074074 49.339344,34.8444445 49.5753328,34.725926 L49.5753328,34.962963 C49.5753328,34.962963 49.5753328,35.0814815 49.6933272,35.0814815 L49.6933272,34.962963 L49.8113216,35.0814815 C49.929316,35.3185185 50.1653048,35.7925926 50.6372824,35.9111111 C50.4012936,36.0296297 50.2832992,36.2666667 50.0473104,36.5037037 C49.929316,36.6222222 49.6933272,36.7407408 49.5753328,36.7407408 L49.4573384,36.6222222 L49.339344,36.6222222 C49.2213496,36.6222222 49.1033552,36.6222222 49.1033552,36.7407408 L49.2213496,36.7407408 L49.2213496,36.8592592 C49.2213496,36.8592592 49.2213496,36.9777778 49.4573384,36.9777778 L49.339344,36.9777778 C49.2213496,36.9777778 49.2213496,36.8592592 49.1033552,36.9777778 L49.1033552,37.0962963 C48.9853608,37.0962963 48.8673664,37.3333333 48.9853608,37.4518518 C48.9853608,37.4518518 48.9853608,37.3333333 49.1033552,37.3333333 C49.2213496,37.4518518 49.2213496,37.4518518 49.4573384,37.2148148 C49.4573384,37.3333333 49.339344,37.4518518 49.4573384,37.5703703 L49.5753328,37.5703703 C49.5753328,37.6888889 49.8113216,37.6888889 49.8113216,37.6888889 L49.6933272,37.5703703 L49.8113216,37.5703703 C49.929316,37.4518518 49.8113216,37.3333333 49.8113216,37.3333333 C49.8113216,37.3333333 49.929316,37.4518518 50.0473104,37.4518518 L50.1653048,37.3333333 C50.1653048,36.9777778 50.4012936,36.9777778 50.519288,36.9777778 C50.519288,36.8592592 50.6372824,36.7407408 50.7552768,36.7407408 L51.1092604,36.7407408 C51.1092604,36.6222222 51.2272548,36.5037037 51.3452492,36.3851852 C51.3452492,37.0962963 52.2892044,37.0962963 52.4071988,37.4518518 C52.17121,37.3333333 51.8172268,37.2148148 51.581238,37.3333333 C51.3452492,37.3333333 50.991266,37.5703703 50.8732716,37.8074074 C50.8732716,38.0444445 51.1092604,38.4 51.3452492,38.5185185 L50.7552768,38.5185185 C50.519288,38.5185185 50.519288,38.162963 50.2832992,38.2814815 L50.1653048,38.2814815 C50.0473104,38.2814815 49.929316,38.4 49.929316,38.5185185 L50.0473104,38.4 C50.0473104,38.4 50.0473104,38.5185185 50.1653048,38.5185185 L50.2832992,38.5185185 C50.2832992,38.637037 49.929316,38.5185185 50.0473104,38.7555555 L50.0473104,38.874074 C50.0473104,38.9925926 50.0473104,38.9925926 50.2832992,38.9925926 C50.2832992,38.9925926 50.1653048,38.9925926 50.1653048,38.874074 L50.2832992,38.874074 L50.2832992,39.1111111 C50.2832992,39.2296297 50.4012936,39.3481482 50.519288,39.2296297 C50.519288,39.2296297 50.4012936,39.2296297 50.4012936,39.1111111 L50.519288,39.1111111 L50.519288,38.9925926 L50.6372824,38.9925926 C50.6372824,38.9925926 50.7552768,39.1111111 50.8732716,39.1111111 C50.8732716,39.1111111 50.991266,39.1111111 50.991266,38.9925926 C50.991266,38.9925926 51.1092604,38.9925926 51.1092604,39.1111111 C51.1092604,38.9925926 51.1092604,38.874074 51.3452492,39.1111111 L51.4632436,38.9925926 C51.4632436,38.9925926 51.6992324,39.1111111 51.6992324,38.9925926 C51.8172268,38.874074 51.8172268,38.874074 51.8172268,38.7555555 C51.6992324,38.5185185 51.6992324,38.5185185 51.581238,38.4 C51.4632436,38.0444445 52.0532156,37.8074074 52.2892044,37.925926 C52.2892044,38.162963 52.6431876,38.7555555 53.2331596,38.874074 C53.5871428,38.9925926 53.7051372,38.637037 53.8231316,38.637037 L53.8231316,39.1111111 C53.8231316,39.2296297 53.5871428,39.1111111 53.4691484,39.1111111 L53.351154,39.1111111 C53.2331596,39.1111111 53.1151652,39.2296297 53.1151652,39.3481482 C53.1151652,39.3481482 53.2331596,39.2296297 53.351154,39.2296297 C53.351154,39.3481482 53.4691484,39.4666667 53.5871428,39.3481482 C53.4691484,39.3481482 53.351154,39.5851852 53.4691484,39.5851852 L53.5871428,39.5851852 C53.5871428,39.7037037 53.5871428,39.7037037 53.7051372,39.8222222 L53.7051372,39.7037037 L53.8231316,39.7037037 L53.941126,39.4666667 L53.941126,39.7037037 L54.0591204,39.7037037 C54.0591204,39.8222222 54.1771152,39.8222222 54.2951096,39.8222222 C54.2951096,39.8222222 54.1771152,39.8222222 54.1771152,39.7037037 L54.2951096,39.5851852 C54.413104,39.3481482 54.1771152,39.3481482 54.1771152,39.2296297 C54.1771152,39.1111111 54.2951096,39.1111111 54.413104,38.874074 C54.413104,38.874074 54.5310984,38.7555555 54.5310984,38.637037 C54.5310984,38.874074 54.413104,38.874074 54.413104,38.874074 L54.413104,38.874074 Z M44.3835788,44.9185184 C43.5576176,44.8 43.675612,45.6296296 44.1475896,45.6296296 L44.2655844,45.6296296 C44.2655844,45.8666668 44.0295956,46.9333332 44.0295956,47.2888888 L42.3776736,44.9185184 C44.0295956,44.325926 44.6195676,43.7333332 44.3835788,44.9185184 L44.3835788,44.9185184 Z M43.7936064,49.0666668 L41.1977296,45.3925924 C41.5517128,45.274074 41.7877016,45.274074 42.0236904,45.1555556 L43.9116008,48 L43.7936064,49.0666668 L43.7936064,49.0666668 Z M43.4396232,50.725926 L39.8997909,45.3925924 L40.843746,45.3925924 L43.7936064,49.6592592 L43.4396232,50.725926 L43.4396232,50.725926 Z M39.3098188,45.5111112 L43.3216288,51.3185184 C41.1977296,50.3703704 39.07383,48.474074 39.3098188,45.5111112 L39.3098188,45.5111112 Z M45.327534,45.0370372 L45.0915452,45.0370372 C45.2095396,41.8370372 41.7877016,45.8666668 38.483858,43.9703704 L38.2478691,44.4444444 C38.2478691,44.2074076 38.1298747,43.9703704 37.7758914,43.9703704 C36.8319361,43.9703704 37.5399026,45.274074 38.1298747,44.6814816 L37.8938858,45.1555556 L38.1298747,45.274074 C37.8938858,47.8814816 39.7817965,51.0814816 43.08564,52.0296296 C43.5576176,51.9111112 44.1475896,51.9111112 44.1475896,52.5037036 C44.1475896,53.2148148 43.3216288,53.0962964 43.3216288,52.7407408 C43.3216288,52.5037036 43.675612,52.6222224 43.7936064,52.5037036 C43.7936064,52.2666668 43.675612,52.148148 43.4396232,52.148148 C42.495668,52.148148 42.6136624,53.3333332 43.675612,53.3333332 C44.0295956,53.3333332 44.737562,53.0962964 44.737562,52.2666668 C44.9735508,52.2666668 45.0915452,52.2666668 45.2095396,52.0296296 L45.2095396,51.4370372 L44.9735508,51.4370372 L45.0915452,45.6296296 C45.917506,45.748148 45.7995116,45.0370372 45.327534,45.0370372 L45.327534,45.0370372 Z M42.495668,32.5925926 L42.6136624,32.3555555 C42.6136624,32.3555555 42.3776736,32.474074 42.6136624,32.237037 C42.6136624,32.237037 43.08564,32.3555555 42.9676456,32.474074 C42.9676456,32.474074 42.9676456,32.3555555 42.8496512,32.3555555 L42.8496512,32.474074 L42.6136624,32.8296297 C42.3776736,32.7111111 42.3776736,32.7111111 42.495668,32.5925926 L42.495668,32.5925926 Z M42.2596792,32.237037 L44.737562,33.1851852 C45.5635228,33.1851852 45.917506,32.9481482 45.917506,32.7111111 C45.917506,31.8814815 42.9676456,32.237037 43.9116008,31.6444445 C44.9735508,31.6444445 44.9735508,30.6962963 45.7995116,30.5777778 C44.8555564,30.4592592 44.737562,31.1703703 44.3835788,31.2888889 C44.6195676,31.1703703 44.737562,30.9333333 44.6195676,30.8148148 C44.5015732,31.0518518 43.4396232,31.4074074 43.4396232,31.8814815 C43.4396232,32.7111111 45.6815172,32.1185185 45.6815172,32.8296297 C45.6815172,33.5407408 43.675612,32.9481482 43.08564,33.0666667 C43.08564,32.3555555 43.675612,32.5925926 43.2036344,32.1185185 C43.2036344,32 43.2036344,32 42.9676456,31.8814815 L42.495668,31.8814815 C42.3776736,31.762963 42.2596792,31.8814815 42.2596792,32 C42.2596792,32 42.0236904,32.237037 42.2596792,32.237037 C42.1416848,32.237037 42.1416848,32.3555555 42.2596792,32.237037 L42.2596792,32.474074 C42.1416848,32.7111111 42.1416848,32.9481482 42.1416848,32.9481482 C41.905696,32.7111111 41.7877016,32.8296297 41.905696,32.474074 C41.905696,32.237037 42.0236904,32.3555555 42.0236904,32 L41.7877016,32 C41.6697072,32.1185185 41.7877016,32.1185185 41.7877016,32.237037 C41.6697072,32.474074 41.905696,32 41.5517128,32 C41.5517128,31.8814815 41.5517128,31.762963 41.315724,31.8814815 L41.4337184,31.8814815 L41.4337184,32 C41.4337184,32.1185185 41.6697072,32.1185185 41.6697072,32.1185185 C41.6697072,32.237037 41.4337184,32 41.4337184,32.237037 C41.4337184,32.3555555 41.315724,32.3555555 41.4337184,32.474074 L41.4337184,32.3555555 L41.6697072,32.3555555 C41.7877016,32.474074 41.4337184,32.5925926 41.7877016,32.5925926 C41.7877016,32.8296297 41.4337184,32.7111111 41.5517128,32.5925926 C41.315724,32.8296297 41.5517128,32.9481482 41.7877016,32.8296297 C41.7877016,32.8296297 41.7877016,32.9481482 41.905696,32.9481482 C41.905696,32.9481482 41.905696,33.0666667 42.0236904,33.0666667 C42.0236904,32.8296297 42.1416848,33.1851852 42.2596792,33.3037037 C42.1416848,33.4222222 40.9617408,33.6592592 40.9617408,33.5407408 C40.9617408,33.4222222 40.9617408,33.3037037 40.843746,33.3037037 C40.3717684,33.1851852 40.6077572,33.3037037 40.725752,33.3037037 C40.6077572,33.4222222 40.6077572,33.4222222 40.843746,33.5407408 C40.843746,33.5407408 40.843746,33.6592592 40.725752,33.5407408 C40.6077572,33.4222222 40.725752,33.4222222 40.4897628,33.4222222 C40.3717684,33.4222222 40.253774,33.5407408 40.253774,33.6592592 C40.253774,33.6592592 40.253774,33.5407408 40.3717684,33.5407408 C40.4897628,33.6592592 40.4897628,33.7777778 40.725752,33.6592592 C40.6077572,33.8962963 40.4897628,33.7777778 40.725752,33.8962963 C40.6077572,34.0148148 40.725752,34.1333333 40.843746,34.1333333 C40.843746,34.1333333 40.725752,34.0148148 40.725752,33.8962963 L40.843746,33.8962963 C40.9617408,33.8962963 40.9617408,33.5407408 40.9617408,33.6592592 C40.9617408,34.0148148 41.4337184,33.6592592 41.315724,33.6592592 L41.4337184,33.6592592 L41.4337184,33.8962963 L41.6697072,33.6592592 L41.905696,33.6592592 L41.905696,33.7777778 L41.905696,33.6592592 C41.905696,33.6592592 41.905696,33.7777778 42.0236904,33.8962963 C42.0236904,33.5407408 42.6136624,33.5407408 42.3776736,33.6592592 C42.6136624,33.6592592 42.6136624,33.5407408 42.7316568,33.4222222 C42.8496512,33.4222222 42.9676456,33.4222222 42.9676456,33.3037037 L42.9676456,33.4222222 C43.2036344,33.4222222 43.4396232,33.1851852 43.4396232,33.1851852 C43.9116008,33.0666667 43.2036344,32.8296297 44.0295956,32.8296297 C44.1475896,32.8296297 44.2655844,32.8296297 44.2655844,32.7111111 C44.1475896,32.8296297 44.1475896,33.0666667 44.3835788,33.1851852 C44.5015732,33.1851852 44.6195676,33.3037037 44.6195676,33.3037037 L44.3835788,33.3037037 L43.9116008,33.0666667 C43.7936064,33.0666667 43.675612,33.1851852 43.675612,33.3037037 C43.9116008,33.0666667 43.7936064,33.3037037 43.9116008,33.3037037 L44.0295956,33.3037037 C44.0295956,33.4222222 43.7936064,33.3037037 43.7936064,33.5407408 C43.7936064,33.6592592 43.9116008,33.7777778 44.0295956,33.6592592 L44.0295956,33.5407408 C44.0295956,33.1851852 44.0295956,34.0148148 44.2655844,33.7777778 L44.2655844,33.6592592 C44.2655844,33.5407408 44.5015732,33.7777778 44.5015732,33.7777778 L44.737562,33.5407408 C45.2095396,33.6592592 45.2095396,33.3037037 44.9735508,33.1851852 L44.6195676,32.9481482 C44.737562,32.9481482 44.8555564,33.0666667 45.0915452,33.0666667 C45.4455284,33.0666667 45.0915452,32.7111111 45.6815172,32.9481482 C45.7995116,32.9481482 45.7995116,33.1851852 45.6815172,33.3037037 C45.6815172,33.4222222 45.5635228,33.3037037 45.4455284,33.3037037 L45.327534,33.3037037 C45.2095396,33.3037037 45.2095396,33.4222222 45.2095396,33.5407408 L45.327534,33.4222222 C45.327534,33.5407408 45.4455284,33.6592592 45.5635228,33.5407408 C45.4455284,33.5407408 45.327534,33.6592592 45.4455284,33.7777778 L45.5635228,34.0148148 L45.5635228,33.8962963 C45.7995116,33.8962963 45.5635228,33.7777778 45.6815172,33.6592592 C45.6815172,33.8962963 45.6815172,33.8962963 45.7995116,33.8962963 C45.7995116,34.0148148 45.917506,34.0148148 46.0355004,33.8962963 C46.0355004,33.8962963 45.917506,33.8962963 45.917506,33.7777778 C46.1534948,33.5407408 45.917506,33.6592592 45.917506,33.4222222 C45.917506,33.3037037 46.0355004,33.4222222 46.0355004,33.1851852 C46.0355004,33.0666667 45.917506,33.0666667 45.917506,33.0666667 L45.917506,32.8296297 C45.917506,32.8296297 46.0355004,32.7111111 45.917506,32.5925926 C45.917506,32.5925926 45.6815172,32.7111111 45.6815172,32.5925926 C45.5635228,33.4222222 44.6195676,33.1851852 44.737562,33.1851852 L42.2596792,32.237037 Z M40.4897628,36.0296297 C40.6077572,35.7925926 40.843746,35.9111111 40.6077572,35.674074 C40.725752,35.674074 40.725752,35.674074 40.725752,35.5555555 C40.6077572,35.5555555 40.4897628,35.674074 40.725752,35.437037 L41.0797352,35.5555555 C41.1977296,35.5555555 41.1977296,35.674074 41.0797352,35.674074 C41.0797352,35.674074 41.0797352,35.5555555 40.9617408,35.5555555 L40.9617408,35.674074 C40.725752,35.674074 40.725752,35.674074 40.843746,35.7925926 L40.843746,35.9111111 C40.725752,36.3851852 40.3717684,36.2666667 40.4897628,36.0296297 L40.4897628,36.0296297 Z M45.6815172,36.2666667 C45.6815172,35.2 42.1416848,36.5037037 42.1416848,35.674074 C42.1416848,35.437037 42.495668,35.437037 42.9676456,35.437037 C43.3216288,35.9111111 45.327534,35.3185185 45.917506,35.437037 C45.2095396,34.8444445 44.6195676,35.437037 43.9116008,35.3185185 C44.3835788,35.3185185 44.5015732,35.2 44.5015732,35.0814815 L43.08564,35.2 C42.7316568,35.437037 42.0236904,34.962963 42.0236904,35.674074 C42.0236904,36.5037037 44.0295956,36.0296297 44.737562,36.0296297 C45.4455284,36.0296297 45.5635228,36.1481482 45.5635228,36.2666667 C45.5635228,36.7407408 41.7877016,36.2666667 41.315724,36.3851852 C41.4337184,36.2666667 41.5517128,36.0296297 41.5517128,35.7925926 C41.7877016,35.674074 41.7877016,35.5555555 41.5517128,35.437037 C41.5517128,35.3185185 41.4337184,35.0814815 41.1977296,34.962963 C40.9617408,34.8444445 40.725752,34.962963 40.843746,34.962963 L40.725752,34.962963 C40.4897628,34.725926 40.4897628,34.962963 40.4897628,35.2 C40.3717684,35.2 40.1357796,35.437037 40.253774,35.5555555 C40.1357796,35.7925926 40.0177852,36.0296297 40.253774,36.0296297 L40.253774,36.3851852 C40.1357796,36.3851852 39.8997909,36.2666667 40.0177852,36.2666667 L39.8997909,36.2666667 C39.07383,35.5555555 39.4278132,35.9111111 39.4278132,35.2 C39.4278132,34.962963 39.3098188,34.962963 39.1918244,34.962963 C39.3098188,35.0814815 39.3098188,35.0814815 39.1918244,35.2 L39.1918244,35.437037 C39.1918244,35.3185185 39.07383,35.0814815 38.9558356,35.2 C38.9558356,35.0814815 38.8378412,34.962963 38.7198468,35.0814815 C38.6018523,35.2 38.7198468,35.3185185 38.8378412,35.3185185 C38.8378412,35.3185185 38.9558356,35.437037 38.8378412,35.437037 C38.483858,35.3185185 38.483858,35.674074 38.6018523,35.7925926 L38.6018523,35.674074 L38.7198468,35.674074 C38.7198468,35.674074 38.8378412,35.5555555 38.8378412,35.674074 C38.8378412,35.674074 38.9558356,35.674074 38.8378412,35.7925926 C38.7198468,35.9111111 38.7198468,36.0296297 38.8378412,36.0296297 C38.8378412,36.2666667 38.483858,36.2666667 38.483858,36.0296297 C38.2478691,36.2666667 38.6018523,36.5037037 38.8378412,36.3851852 C38.8378412,36.3851852 38.8378412,36.5037037 38.9558356,36.5037037 C38.9558356,36.6222222 38.9558356,36.6222222 39.07383,36.6222222 L39.4278132,36.8592592 C39.5458077,36.9777778 39.6638021,37.0962963 39.7817965,36.9777778 C39.7817965,37.0962963 39.8997909,37.3333333 39.8997909,37.3333333 L39.3098188,37.3333333 C38.7198468,37.5703703 38.7198468,37.3333333 38.7198468,37.0962963 L38.6018523,36.9777778 L38.483858,36.9777778 C38.3658635,36.8592592 38.2478691,36.8592592 38.2478691,36.9777778 C38.2478691,36.9777778 38.3658635,36.9777778 38.3658635,37.0962963 L38.3658635,37.2148148 C38.2478691,37.4518518 38.7198468,37.4518518 38.6018523,37.4518518 L38.483858,37.4518518 C38.3658635,37.3333333 38.3658635,37.2148148 38.2478691,37.3333333 L38.1298747,37.3333333 C38.0118803,37.3333333 37.8938858,37.4518518 37.8938858,37.5703703 C37.8938858,37.5703703 37.8938858,37.4518518 38.0118803,37.4518518 L38.0118803,37.5703703 C38.0118803,37.6888889 38.1298747,37.8074074 38.3658635,37.5703703 C38.2478691,37.6888889 38.1298747,37.8074074 38.2478691,37.8074074 C38.2478691,37.925926 38.3658635,38.0444445 38.483858,38.0444445 C38.483858,38.0444445 38.3658635,37.925926 38.3658635,37.8074074 L38.6018523,37.5703703 C38.6018523,37.6888889 38.6018523,37.8074074 38.8378412,37.8074074 C38.9558356,37.8074074 39.07383,37.5703703 39.07383,37.5703703 L39.1918244,37.5703703 L39.1918244,37.8074074 C39.1918244,37.8074074 39.4278132,37.6888889 39.4278132,37.5703703 L39.5458077,37.6888889 L39.8997909,37.6888889 L39.8997909,37.8074074 L39.8997909,37.6888889 C39.8997909,37.6888889 39.8997909,37.8074074 40.0177852,37.925926 C40.0177852,37.5703703 40.253774,37.6888889 40.4897628,37.5703703 C40.4897628,37.5703703 40.4897628,37.6888889 40.3717684,37.6888889 C40.843746,37.8074074 40.9617408,37.0962963 41.315724,37.2148148 C42.0236904,37.3333333 41.5517128,36.6222222 42.6136624,36.7407408 C42.7316568,36.7407408 42.8496512,36.6222222 42.8496512,36.6222222 C42.7316568,36.7407408 42.7316568,37.0962963 42.9676456,37.0962963 C43.08564,37.0962963 43.2036344,37.0962963 43.2036344,37.2148148 C43.2036344,37.2148148 43.08564,37.2148148 42.9676456,37.3333333 C42.7316568,37.5703703 42.7316568,36.8592592 42.3776736,37.0962963 C42.2596792,37.0962963 42.1416848,37.2148148 42.1416848,37.3333333 C42.3776736,37.0962963 42.2596792,37.3333333 42.3776736,37.3333333 C42.3776736,37.3333333 42.495668,37.2148148 42.495668,37.3333333 C42.495668,37.4518518 42.1416848,37.3333333 42.2596792,37.5703703 C42.2596792,37.6888889 42.3776736,37.8074074 42.495668,37.8074074 L42.495668,37.6888889 C42.495668,38.0444445 42.6136624,38.0444445 42.7316568,37.925926 C42.7316568,37.925926 42.6136624,37.925926 42.6136624,37.8074074 L42.8496512,37.6888889 L43.08564,37.8074074 C43.2036344,37.8074074 43.08564,37.4518518 43.3216288,37.5703703 L43.4396232,37.5703703 C43.4396232,37.4518518 43.4396232,37.2148148 43.3216288,37.2148148 L43.2036344,36.9777778 C43.5576176,37.0962963 44.0295956,37.2148148 44.2655844,36.9777778 C44.5015732,36.8592592 44.6195676,36.9777778 44.737562,36.9777778 C44.737562,36.9777778 44.8555564,36.9777778 44.8555564,37.0962963 L44.8555564,37.4518518 C44.8555564,37.5703703 44.6195676,37.4518518 44.5015732,37.4518518 L44.3835788,37.4518518 C44.2655844,37.4518518 44.1475896,37.5703703 44.1475896,37.6888889 L44.2655844,37.5703703 C44.2655844,37.6888889 44.3835788,37.8074074 44.5015732,37.6888889 C44.3835788,37.6888889 44.2655844,37.925926 44.3835788,37.925926 L44.6195676,37.925926 C44.6195676,38.0444445 44.6195676,38.0444445 44.737562,38.0444445 L44.737562,37.925926 L44.8555564,37.925926 L44.9735508,37.6888889 L44.9735508,37.925926 L45.0915452,37.925926 C45.0915452,38.0444445 45.2095396,38.0444445 45.327534,38.0444445 C45.327534,38.0444445 45.2095396,38.0444445 45.2095396,37.925926 L45.2095396,37.8074074 C45.2095396,37.5703703 45.0915452,37.5703703 45.0915452,37.5703703 C45.0915452,37.4518518 45.327534,37.5703703 45.327534,37.3333333 C45.327534,37.3333333 45.327534,37.2148148 45.2095396,37.2148148 C45.2095396,37.2148148 45.327534,37.2148148 45.327534,37.0962963 C45.2095396,37.0962963 45.2095396,36.9777778 45.2095396,36.8592592 C45.2095396,36.8592592 45.327534,36.7407408 45.327534,36.6222222 C45.327534,36.7407408 45.0915452,36.7407408 45.0915452,36.6222222 C45.0915452,36.6222222 45.0915452,36.5037037 44.9735508,36.5037037 C44.737562,36.5037037 44.5015732,36.5037037 44.0295956,36.3851852 C45.0915452,36.6222222 45.6815172,36.5037037 45.6815172,36.2666667 L45.6815172,36.2666667 Z M39.5458077,39.4666667 L39.6638021,39.2296297 C39.6638021,39.2296297 39.7817965,39.2296297 39.6638021,39.1111111 C39.6638021,39.1111111 39.4278132,39.2296297 39.6638021,38.9925926 C39.7817965,38.874074 40.253774,39.2296297 40.0177852,39.2296297 C40.0177852,39.2296297 40.0177852,39.1111111 39.8997909,39.1111111 L39.8997909,39.2296297 C39.6638021,39.1111111 39.7817965,39.3481482 39.7817965,39.4666667 L39.5458077,39.4666667 L39.5458077,39.4666667 Z M45.327534,39.5851852 C45.327534,38.5185185 41.315724,39.9407408 41.315724,38.9925926 C41.315724,38.7555555 42.1416848,38.874074 42.6136624,38.874074 C42.8496512,39.3481482 44.8555564,38.637037 45.4455284,38.874074 C44.8555564,38.4 44.2655844,38.874074 43.5576176,38.7555555 C44.0295956,38.7555555 44.5015732,38.637037 44.5015732,38.5185185 C44.1475896,38.7555555 43.3216288,38.4 42.8496512,38.637037 C42.3776736,38.874074 41.315724,38.4 41.315724,38.9925926 C41.315724,39.8222222 43.9116008,39.3481482 44.6195676,39.3481482 C45.327534,39.3481482 45.327534,39.4666667 45.327534,39.5851852 C45.2095396,39.8222222 44.6195676,39.8222222 44.2655844,39.8222222 C43.675612,39.8222222 41.1977296,39.4666667 40.3717684,39.8222222 C40.4897628,39.4666667 40.9617408,38.9925926 40.4897628,38.9925926 L40.3717684,38.7555555 C39.7817965,38.2814815 40.1357796,38.637037 39.7817965,38.5185185 L39.6638021,38.5185185 L39.5458077,38.4 L39.5458077,38.637037 C39.4278132,38.637037 39.3098188,38.874074 39.3098188,38.874074 C39.4278132,39.2296297 39.1918244,39.2296297 39.3098188,39.3481482 L39.3098188,39.5851852 L39.1918244,39.5851852 C38.7198468,39.5851852 38.3658635,39.1111111 38.3658635,38.874074 C38.3658635,38.637037 38.483858,38.637037 38.3658635,38.4 C38.3658635,38.2814815 38.2478691,38.2814815 38.1298747,38.2814815 C38.1298747,38.2814815 38.2478691,38.2814815 38.2478691,38.4 C38.1298747,38.5185185 38.1298747,38.5185185 38.2478691,38.637037 L38.2478691,38.7555555 C38.2478691,38.874074 38.2478691,38.5185185 38.0118803,38.5185185 C38.0118803,38.4 37.8938858,38.4 37.7758914,38.5185185 L37.8938858,38.5185185 C37.8938858,38.637037 37.8938858,38.7555555 38.0118803,38.7555555 L38.0118803,38.874074 C37.7758914,38.7555555 37.7758914,38.874074 37.7758914,38.9925926 C37.657897,38.9925926 37.657897,39.1111111 37.7758914,39.2296297 L37.7758914,39.1111111 L38.0118803,39.1111111 C37.8938858,39.2296297 37.8938858,39.3481482 38.0118803,39.3481482 C38.0118803,39.5851852 37.657897,39.4666667 37.7758914,39.3481482 C37.657897,39.5851852 37.8938858,39.8222222 38.1298747,39.7037037 C38.1298747,39.7037037 38.1298747,39.8222222 38.2478691,39.8222222 C38.2478691,39.8222222 38.3658635,39.7037037 38.3658635,39.8222222 C38.3658635,39.9407408 38.3658635,39.9407408 38.483858,39.9407408 L38.483858,39.8222222 C38.483858,39.8222222 38.7198468,40.1777776 38.9558356,40.2962964 C39.07383,40.2962964 39.07383,40.2962964 39.1918244,40.1777776 C39.1918244,40.1777776 39.4278132,40.5333332 39.3098188,40.5333332 L38.7198468,40.5333332 C38.6018523,40.651852 38.2478691,40.7703704 38.1298747,40.5333332 C38.0118803,40.4148148 38.1298747,40.2962964 37.8938858,40.2962964 C37.4219082,40.1777776 37.657897,40.2962964 37.657897,40.4148148 L37.657897,40.5333332 C37.5399026,40.7703704 38.0118803,40.7703704 37.8938858,40.7703704 C37.5399026,40.7703704 37.5399026,40.5333332 37.4219082,40.5333332 L37.3039138,40.5333332 C37.1859194,40.5333332 37.0679249,40.651852 37.0679249,40.7703704 C37.0679249,40.7703704 37.0679249,40.651852 37.1859194,40.651852 C37.3039138,40.7703704 37.1859194,41.0074076 37.5399026,40.7703704 C37.657897,40.651852 37.3039138,41.0074076 37.4219082,41.0074076 L37.4219082,41.125926 C37.4219082,41.2444444 37.5399026,41.3629628 37.657897,41.3629628 C37.657897,41.3629628 37.5399026,41.2444444 37.5399026,41.125926 C37.7758914,41.2444444 37.657897,41.0074076 37.7758914,40.8888888 C37.7758914,41.2444444 38.2478691,41.0074076 38.1298747,40.8888888 L38.2478691,40.8888888 L38.2478691,41.125926 L38.483858,41.0074076 L38.8378412,41.0074076 C38.8378412,41.2444444 38.8378412,41.125926 38.9558356,41.125926 C38.9558356,41.125926 38.9558356,41.2444444 39.07383,41.3629628 C39.07383,41.0074076 39.5458077,41.2444444 39.7817965,41.0074076 C39.8997909,41.0074076 39.7817965,41.125926 39.6638021,41.125926 C39.7817965,41.125926 39.8997909,41.125926 39.8997909,41.0074076 L40.253774,40.8888888 C40.253774,40.7703704 40.253774,40.7703704 40.3717684,40.7703704 C40.253774,40.8888888 40.6077572,40.651852 40.6077572,40.651852 C41.7877016,40.7703704 41.1977296,40.0592592 42.495668,40.2962964 C42.6136624,40.2962964 42.6136624,40.2962964 42.6136624,40.1777776 C42.495668,40.2962964 42.495668,40.5333332 42.7316568,40.5333332 C42.9676456,40.5333332 42.9676456,40.651852 42.9676456,40.651852 L42.7316568,40.651852 L42.2596792,40.4148148 C42.1416848,40.4148148 41.905696,40.5333332 42.0236904,40.651852 C42.1416848,40.4148148 42.1416848,40.651852 42.1416848,40.651852 C42.1416848,40.7703704 42.2596792,40.651852 42.3776736,40.651852 C42.3776736,40.7703704 42.0236904,40.651852 42.1416848,40.8888888 C42.1416848,41.0074076 42.2596792,41.125926 42.3776736,41.125926 C42.3776736,41.125926 42.2596792,41.125926 42.2596792,41.0074076 L42.3776736,41.0074076 L42.3776736,41.125926 C42.3776736,41.3629628 42.495668,41.3629628 42.6136624,41.3629628 C42.3776736,41.3629628 42.495668,41.2444444 42.495668,41.2444444 L42.495668,41.125926 L42.6136624,41.125926 C42.6136624,41.2444444 42.7316568,41.2444444 42.8496512,41.2444444 L42.9676456,41.0074076 C43.08564,41.0074076 43.3216288,41.125926 43.4396232,41.0074076 C43.4396232,40.8888888 43.4396232,40.7703704 43.3216288,40.651852 L43.2036344,40.4148148 C43.5576176,40.5333332 43.9116008,40.651852 44.2655844,40.4148148 C44.3835788,40.2962964 44.737562,40.2962964 44.737562,40.4148148 C44.6195676,40.7703704 44.8555564,40.7703704 44.3835788,40.651852 C44.2655844,40.651852 44.0295956,40.7703704 44.0295956,40.8888888 L44.1475896,40.7703704 C44.1475896,40.8888888 44.2655844,41.0074076 44.3835788,40.8888888 C44.5015732,40.7703704 44.1475896,41.125926 44.2655844,41.125926 L44.5015732,41.3629628 L44.5015732,41.2444444 L44.737562,41.0074076 C44.8555564,40.8888888 44.6195676,41.2444444 44.737562,41.2444444 C44.8555564,41.2444444 44.8555564,41.4814816 44.9735508,41.3629628 C44.9735508,41.3629628 44.8555564,41.3629628 44.8555564,41.2444444 L44.8555564,41.125926 C44.8555564,40.8888888 44.737562,40.8888888 44.737562,40.8888888 C44.737562,40.7703704 44.9735508,40.8888888 44.9735508,40.651852 C44.9735508,40.5333332 44.8555564,40.5333332 44.8555564,40.5333332 C45.2095396,40.5333332 44.737562,40.2962964 44.8555564,40.2962964 C44.8555564,40.2962964 44.9735508,40.1777776 44.9735508,40.0592592 C44.9735508,40.1777776 44.737562,40.1777776 44.737562,40.0592592 C44.737562,40.0592592 44.737562,39.9407408 44.6195676,39.9407408 C44.3835788,39.9407408 44.2655844,39.9407408 43.7936064,39.8222222 C44.737562,39.9407408 45.327534,39.8222222 45.327534,39.5851852 L45.327534,39.5851852 Z M50.0473104,44.0888888 C50.1653048,43.9703704 50.1653048,43.9703704 50.2832992,43.9703704 C50.2832992,43.9703704 50.2832992,43.851852 50.1653048,43.851852 C50.1653048,43.851852 50.2832992,43.851852 50.1653048,43.7333332 L50.0473104,43.7333332 L50.0473104,43.6148148 L50.1653048,43.6148148 L50.4012936,43.7333332 L50.4012936,43.9703704 C50.4012936,43.9703704 50.4012936,43.851852 50.2832992,43.851852 L50.2832992,43.9703704 L50.0473104,44.0888888 L50.0473104,44.325926 L50.0473104,44.0888888 L50.0473104,44.0888888 Z M55.9470312,44.9185184 C55.9470312,44.9185184 56.0650256,44.8 56.0650256,44.6814816 C56.0650256,44.8 55.8290368,44.8 55.8290368,44.6814816 C55.8290368,44.6814816 55.8290368,44.5629628 55.7110424,44.5629628 C55.4750536,44.5629628 55.2390648,44.5629628 54.7670872,44.4444444 C56.5370032,44.325926 56.0650256,43.6148148 55.003076,43.6148148 C54.1771152,43.6148148 51.9352212,43.851852 51.9352212,43.4962964 C51.9352212,43.2592592 52.761182,43.3777776 53.2331596,43.3777776 L53.351154,43.4962964 C54.2951096,43.7333332 55.3570592,43.0222224 55.9470312,43.2592592 C55.1210704,43.0222224 54.7670872,43.4962964 54.0591204,43.2592592 C54.5310984,43.2592592 55.003076,43.1407408 55.003076,43.0222224 C54.6490928,43.2592592 53.8231316,42.9037036 53.351154,43.1407408 L53.2331596,43.1407408 C52.5251932,43.1407408 51.6992324,43.0222224 51.6992324,43.4962964 C51.6992324,44.325926 54.2951096,43.851852 54.8850816,43.851852 C55.593048,43.851852 55.7110424,43.9703704 55.7110424,44.0888888 C55.7110424,44.325926 55.1210704,44.325926 54.6490928,44.325926 C54.0591204,44.325926 51.581238,43.9703704 50.7552768,44.325926 C50.7552768,44.2074076 51.1092604,43.851852 50.991266,43.7333332 C51.1092604,43.7333332 51.1092604,43.6148148 51.1092604,43.4962964 C51.1092604,43.4962964 50.991266,43.3777776 50.8732716,43.3777776 L50.8732716,43.1407408 C50.8732716,43.1407408 50.7552768,43.0222224 50.6372824,43.0222224 C50.519288,43.0222224 50.4012936,43.0222224 50.4012936,42.9037036 L50.2832992,42.9037036 C50.2832992,42.9037036 50.1653048,42.9037036 50.1653048,43.0222224 C50.1653048,43.0222224 50.0473104,42.9037036 49.929316,42.9037036 L49.929316,43.1407408 C49.8113216,43.1407408 49.6933272,43.3777776 49.6933272,43.3777776 C49.6933272,43.4962964 49.8113216,43.4962964 49.8113216,43.4962964 C49.6933272,43.6148148 49.6933272,43.851852 49.5753328,43.851852 C49.5753328,43.9703704 49.6933272,43.9703704 49.6933272,43.9703704 L49.6933272,44.2074076 L49.339344,44.2074076 L48.8673664,43.851852 C48.6313776,43.6148148 48.8673664,43.4962964 48.8673664,43.1407408 C48.8673664,42.9037036 48.749372,42.9037036 48.6313776,42.9037036 C48.6313776,42.9037036 48.749372,42.9037036 48.749372,43.0222224 C48.749372,43.0222224 48.749372,43.1407408 48.6313776,43.1407408 L48.6313776,43.3777776 C48.5133832,43.1407408 48.5133832,43.1407408 48.3953888,43.1407408 C48.3953888,43.0222224 48.2773944,42.9037036 48.1594,43.0222224 L48.2773944,43.0222224 L48.2773944,43.1407408 C48.2773944,43.2592592 48.5133832,43.2592592 48.5133832,43.2592592 C48.2773944,43.1407408 48.2773944,43.2592592 48.2773944,43.3777776 C48.1594,43.3777776 48.1594,43.4962964 48.2773944,43.6148148 L48.2773944,43.4962964 L48.5133832,43.4962964 C48.5133832,43.4962964 48.6313776,43.4962964 48.5133832,43.6148148 C48.3953888,43.7333332 48.3953888,43.851852 48.5133832,43.851852 C48.5133832,44.0888888 48.1594,43.9703704 48.2773944,43.851852 C48.1594,44.0888888 48.3953888,44.325926 48.6313776,44.2074076 C48.6313776,44.2074076 48.6313776,44.325926 48.749372,44.325926 C48.749372,44.325926 48.749372,44.4444444 48.8673664,44.4444444 L48.8673664,44.325926 C48.8673664,44.325926 49.1033552,44.6814816 49.339344,44.8 C49.339344,44.8 49.4573384,44.6814816 49.5753328,44.6814816 C49.5753328,44.8 49.5753328,44.8 49.6933272,44.8 C49.6933272,44.9185184 49.8113216,45.1555556 49.8113216,45.1555556 L49.339344,45.1555556 C49.2213496,45.274074 48.8673664,45.3925924 48.749372,45.274074 C48.749372,45.1555556 48.749372,45.1555556 48.6313776,45.0370372 L48.5133832,44.9185184 L48.3953888,44.9185184 C48.3953888,44.9185184 48.1594,44.8 48.1594,44.9185184 C48.1594,44.9185184 48.2773944,44.9185184 48.2773944,45.0370372 L48.2773944,45.1555556 C48.2773944,45.1555556 48.2773944,45.274074 48.5133832,45.3925924 L48.3953888,45.3925924 C48.2773944,45.274074 48.2773944,45.274074 48.1594,45.274074 L48.0414056,45.274074 C47.9234112,45.274074 47.8054168,45.3925924 47.8054168,45.5111112 C47.8054168,45.5111112 47.8054168,45.3925924 47.9234112,45.3925924 L47.9234112,45.5111112 C47.9234112,45.6296296 48.0414056,45.748148 48.2773944,45.5111112 L48.1594,45.6296296 C48.1594,45.748148 48.2773944,45.8666668 48.3953888,45.8666668 C48.3953888,45.8666668 48.2773944,45.748148 48.2773944,45.6296296 L48.3953888,45.6296296 C48.5133832,45.6296296 48.5133832,45.3925924 48.5133832,45.3925924 C48.5133832,45.3925924 48.5133832,45.6296296 48.6313776,45.5111112 C48.749372,45.5111112 48.8673664,45.3925924 48.749372,45.274074 L48.8673664,45.3925924 C48.8673664,45.3925924 48.9853608,45.3925924 48.9853608,45.274074 L48.9853608,45.5111112 C48.9853608,45.5111112 49.2213496,45.3925924 49.2213496,45.274074 L49.2213496,45.3925924 L49.4573384,45.3925924 L49.4573384,45.5111112 L49.4573384,45.3925924 C49.4573384,45.3925924 49.4573384,45.5111112 49.5753328,45.6296296 C49.5753328,45.274074 49.8113216,45.3925924 50.0473104,45.274074 C50.0473104,45.274074 50.0473104,45.3925924 49.929316,45.3925924 C50.0473104,45.5111112 50.2832992,45.274074 50.2832992,45.1555556 C50.2832992,45.1555556 50.4012936,45.1555556 50.519288,45.0370372 C50.7552768,45.0370372 50.7552768,44.9185184 50.7552768,44.9185184 C51.9352212,45.0370372 51.3452492,44.325926 52.6431876,44.5629628 C52.761182,44.5629628 52.761182,44.4444444 52.761182,44.4444444 C52.6431876,44.5629628 52.6431876,44.9185184 52.8791764,44.9185184 C52.9971708,44.9185184 53.1151652,44.9185184 53.1151652,45.0370372 L52.8791764,45.0370372 L52.4071988,44.8 L52.2892044,44.8 C52.17121,44.8 52.0532156,44.9185184 52.0532156,45.0370372 L52.17121,44.9185184 C52.17121,44.9185184 52.17121,45.0370372 52.2892044,45.0370372 L52.4071988,45.0370372 C52.4071988,45.1555556 52.0532156,45.0370372 52.17121,45.274074 L52.17121,45.3925924 C52.17121,45.5111112 52.17121,45.5111112 52.4071988,45.5111112 C52.4071988,45.5111112 52.2892044,45.5111112 52.2892044,45.3925924 L52.2892044,45.5111112 C52.2892044,45.6296296 52.4071988,45.748148 52.5251932,45.6296296 C52.5251932,45.6296296 52.4071988,45.6296296 52.4071988,45.5111112 L52.5251932,45.5111112 L52.5251932,45.3925924 L52.6431876,45.3925924 C52.6431876,45.3925924 52.761182,45.5111112 52.8791764,45.5111112 L52.9971708,45.274074 L53.4691484,45.274074 C53.4691484,45.1555556 53.4691484,45.0370372 53.351154,44.9185184 L53.2331596,44.6814816 C53.351154,44.8 53.4691484,44.8 53.7051372,44.8 C54.0591204,44.8 54.1771152,44.8 54.2951096,44.6814816 C54.5310984,44.5629628 54.6490928,44.6814816 54.7670872,44.6814816 C54.7670872,44.6814816 54.8850816,44.6814816 54.7670872,44.8 L54.7670872,45.0370372 C54.7670872,45.1555556 54.5310984,45.0370372 54.5310984,45.0370372 L54.413104,45.0370372 C54.0591204,45.1555556 54.0591204,45.274074 54.0591204,45.3925924 L54.0591204,45.274074 C54.0591204,45.3925924 54.1771152,45.3925924 54.2951096,45.3925924 C54.1771152,45.3925924 54.0591204,45.5111112 54.1771152,45.6296296 C54.1771152,45.748148 54.1771152,45.748148 54.2951096,45.748148 L54.2951096,45.6296296 L54.413104,45.6296296 L54.5310984,45.3925924 C54.5310984,45.5111112 54.413104,45.6296296 54.5310984,45.6296296 C54.6490928,45.748148 54.6490928,45.748148 54.7670872,45.748148 C54.7670872,45.748148 54.6490928,45.748148 54.6490928,45.6296296 L54.7670872,45.5111112 C54.8850816,45.274074 54.6490928,45.274074 54.6490928,45.274074 C54.6490928,45.1555556 54.8850816,45.274074 54.8850816,45.0370372 C54.8850816,44.9185184 54.7670872,44.9185184 54.7670872,44.9185184 L54.8850816,44.9185184 C55.8290368,45.1555556 55.9470312,45.0370372 55.9470312,44.9185184 L55.9470312,44.9185184 Z M50.4012936,47.525926 C50.2832992,47.4074076 50.2832992,47.525926 50.4012936,47.525926 L50.1653048,47.525926 L50.1653048,47.7629628 L50.0473104,47.8814816 C49.929316,47.8814816 49.929316,47.7629628 50.0473104,47.6444444 C50.0473104,47.6444444 50.0473104,47.525926 50.1653048,47.525926 L50.4012936,47.525926 C50.2832992,47.4074076 50.2832992,47.4074076 50.1653048,47.4074076 C50.1653048,47.4074076 50.2832992,47.4074076 50.1653048,47.2888888 L50.0473104,47.2888888 L50.0473104,47.1703704 L50.1653048,47.1703704 L50.4012936,47.2888888 L50.4012936,47.525926 L50.4012936,47.525926 Z M52.5251932,47.1703704 C53.5871428,47.525926 54.5310984,46.8148148 55.1210704,47.051852 L53.351154,47.051852 C53.8231316,47.051852 54.1771152,46.9333332 54.2951096,46.8148148 L52.761182,46.9333332 C52.2892044,46.9333332 51.8172268,46.9333332 51.8172268,47.2888888 C51.8172268,48 53.7051372,47.6444444 54.2951096,47.6444444 C54.8850816,47.6444444 54.8850816,47.7629628 54.8850816,47.8814816 C54.8850816,48 54.1771152,48.1185184 53.8231316,48.1185184 C53.2331596,48.1185184 51.8172268,47.8814816 50.7552768,48 C50.8732716,47.8814816 50.991266,47.6444444 50.8732716,47.525926 C50.991266,47.525926 50.991266,47.4074076 50.991266,47.2888888 C50.991266,47.2888888 50.8732716,47.1703704 50.7552768,47.1703704 L50.7552768,46.9333332 C50.7552768,46.9333332 50.6372824,46.8148148 50.519288,46.8148148 C50.4012936,46.8148148 50.4012936,46.8148148 50.2832992,46.6962964 L50.0473104,46.6962964 L49.929316,46.5777776 L49.929316,46.8148148 L49.6933272,47.051852 C49.6933272,47.1703704 49.6933272,47.1703704 49.8113216,47.1703704 L49.5753328,47.525926 C49.5753328,47.525926 49.5753328,47.6444444 49.6933272,47.6444444 L49.6933272,47.8814816 L49.5753328,47.8814816 C49.4573384,47.8814816 49.339344,47.8814816 49.2213496,47.7629628 C49.1033552,47.6444444 49.1033552,47.6444444 49.1033552,47.4074076 C49.1033552,47.2888888 49.2213496,47.1703704 49.1033552,47.051852 L49.1033552,46.9333332 C49.1033552,46.8148148 48.9853608,46.8148148 48.8673664,46.8148148 C48.8673664,46.8148148 48.9853608,46.8148148 48.9853608,46.9333332 L48.9853608,47.1703704 C48.9853608,47.051852 48.8673664,46.9333332 48.8673664,46.9333332 C48.8673664,46.8148148 48.749372,46.8148148 48.6313776,46.8148148 L48.749372,46.8148148 L48.749372,46.9333332 C48.749372,47.051852 48.8673664,47.051852 48.8673664,47.051852 C48.749372,46.9333332 48.6313776,47.051852 48.6313776,47.1703704 L48.6313776,47.2888888 C48.5133832,47.2888888 48.5133832,47.4074076 48.6313776,47.525926 L48.6313776,47.4074076 L48.749372,47.4074076 C48.6313776,47.525926 48.6313776,47.6444444 48.749372,47.6444444 C48.749372,47.8814816 48.5133832,47.7629628 48.5133832,47.6444444 C48.3953888,47.8814816 48.6313776,48.1185184 48.8673664,48 C48.8673664,48 48.8673664,48.1185184 48.9853608,48.1185184 C48.9853608,48.1185184 48.9853608,48.2370372 49.1033552,48.2370372 L49.1033552,48.1185184 C49.1033552,48.1185184 49.1033552,48 49.339344,48.1185184 C49.339344,48.1185184 49.339344,48.2370372 49.4573384,48.2370372 L49.6933272,48.2370372 L49.6933272,48.5925924 L49.339344,48.5925924 C49.2213496,48.7111112 48.8673664,48.8296296 48.749372,48.5925924 C48.749372,48.5925924 48.749372,48.474074 48.6313776,48.474074 L48.5133832,48.3555556 L48.3953888,48.3555556 C48.3953888,48.2370372 48.1594,48.2370372 48.1594,48.3555556 C48.1594,48.3555556 48.2773944,48.3555556 48.2773944,48.474074 L48.2773944,48.5925924 C48.2773944,48.5925924 48.2773944,48.7111112 48.5133832,48.8296296 L48.3953888,48.8296296 C48.2773944,48.7111112 48.2773944,48.7111112 48.1594,48.7111112 L48.0414056,48.7111112 C47.9234112,48.7111112 47.8054168,48.8296296 47.9234112,48.948148 C47.9234112,48.948148 47.9234112,48.8296296 48.0414056,48.8296296 C48.0414056,48.948148 48.1594,49.0666668 48.2773944,48.8296296 L48.1594,49.0666668 C48.1594,49.1851852 48.2773944,49.3037036 48.3953888,49.3037036 C48.3953888,49.3037036 48.2773944,49.1851852 48.2773944,49.0666668 L48.3953888,49.0666668 L48.5133832,48.8296296 C48.5133832,48.8296296 48.5133832,48.948148 48.6313776,48.948148 C48.749372,48.948148 48.8673664,48.8296296 48.749372,48.7111112 L48.8673664,48.8296296 C48.8673664,48.8296296 48.9853608,48.8296296 48.9853608,48.7111112 L48.9853608,48.948148 C48.9853608,48.948148 49.2213496,48.8296296 49.2213496,48.7111112 L49.2213496,48.8296296 L49.4573384,48.8296296 L49.4573384,48.948148 L49.4573384,48.8296296 C49.4573384,48.8296296 49.4573384,48.948148 49.5753328,49.0666668 C49.5753328,48.7111112 49.8113216,48.8296296 50.0473104,48.7111112 C50.0473104,48.7111112 50.0473104,48.8296296 49.929316,48.8296296 C50.1653048,48.948148 50.4012936,48.7111112 50.4012936,48.474074 L50.4012936,48.3555556 L50.4012936,48.474074 C50.6372824,48.474074 50.6372824,48.3555556 50.6372824,48.3555556 C51.2272548,48.3555556 50.7552768,47.7629628 51.6992324,48 C51.8172268,48 51.9352212,48 51.9352212,47.8814816 C51.8172268,48 51.8172268,48.3555556 52.0532156,48.3555556 C52.17121,48.3555556 52.2892044,48.3555556 52.2892044,48.474074 L52.0532156,48.474074 L51.581238,48.2370372 L51.4632436,48.2370372 C51.3452492,48.2370372 51.2272548,48.3555556 51.2272548,48.474074 L51.3452492,48.3555556 C51.3452492,48.3555556 51.3452492,48.474074 51.4632436,48.474074 L51.581238,48.474074 C51.581238,48.5925924 51.3452492,48.474074 51.3452492,48.7111112 L51.3452492,48.8296296 C51.3452492,48.948148 51.3452492,48.948148 51.581238,48.948148 C51.581238,48.948148 51.4632436,48.948148 51.4632436,48.8296296 L51.4632436,48.948148 C51.4632436,49.0666668 51.581238,49.1851852 51.6992324,49.0666668 C51.6992324,49.0666668 51.581238,49.0666668 51.581238,48.948148 L51.6992324,48.948148 L51.6992324,48.8296296 C51.6992324,48.948148 51.8172268,48.948148 51.9352212,48.948148 L52.0532156,48.7111112 L52.5251932,48.7111112 C52.5251932,48.5925924 52.5251932,48.474074 52.4071988,48.3555556 L52.2892044,48.1185184 C52.4071988,48.2370372 52.5251932,48.2370372 52.761182,48.2370372 C53.1151652,48.2370372 53.2331596,48.2370372 53.4691484,48.1185184 L53.941126,48.1185184 C53.941126,48.1185184 54.0591204,48.1185184 53.941126,48.2370372 L53.8231316,48.474074 C53.8231316,48.5925924 53.5871428,48.474074 53.5871428,48.474074 L53.4691484,48.474074 C53.351154,48.474074 53.2331596,48.5925924 53.2331596,48.7111112 L53.351154,48.5925924 C53.351154,48.7111112 53.4691484,48.7111112 53.5871428,48.7111112 C53.4691484,48.7111112 53.351154,48.8296296 53.4691484,48.948148 L53.5871428,49.1851852 L53.5871428,49.0666668 L53.7051372,49.0666668 C53.8231316,49.0666668 53.8231316,48.948148 53.8231316,48.8296296 C53.7051372,49.0666668 53.8231316,49.0666668 53.8231316,49.0666668 C53.8231316,49.1851852 53.941126,49.1851852 54.0591204,49.1851852 C54.0591204,49.1851852 53.941126,49.1851852 53.941126,49.0666668 L54.0591204,48.948148 C54.1771152,48.7111112 54.0591204,48.7111112 54.0591204,48.7111112 C54.0591204,48.5925924 54.2951096,48.7111112 54.2951096,48.474074 L54.2951096,48.3555556 C54.2951096,48.3555556 54.413104,48.3555556 54.413104,48.2370372 C54.2951096,48.2370372 54.2951096,48.1185184 54.2951096,48.1185184 C54.2951096,48.1185184 54.413104,48 54.413104,47.8814816 C54.413104,48 54.1771152,48 54.1771152,47.8814816 C54.1771152,47.8814816 54.1771152,47.7629628 54.0591204,47.7629628 C53.8231316,47.7629628 53.4691484,47.7629628 53.1151652,47.6444444 C53.5871428,47.6444444 54.2951096,47.525926 54.2951096,47.2888888 C54.2951096,47.051852 54.2951096,46.9333332 53.4691484,46.9333332 C52.761182,46.9333332 51.2272548,47.1703704 51.2272548,46.8148148 C51.9352212,47.1703704 52.17121,47.1703704 52.5251932,47.1703704 L52.5251932,47.1703704 Z M49.6933272,50.9629628 C49.8113216,50.8444444 49.8113216,50.725926 49.6933272,50.725926 C49.6933272,50.725926 49.8113216,50.725926 49.6933272,50.6074076 L49.5753328,50.6074076 L49.5753328,50.4888888 L49.6933272,50.4888888 L49.929316,50.6074076 L49.929316,50.9629628 L49.929316,50.8444444 L49.6933272,50.9629628 L49.6933272,51.2 L49.6933272,50.9629628 L49.6933272,50.9629628 Z M51.9352212,50.3703704 C52.9971708,50.725926 53.941126,50.0148148 54.5310984,50.251852 L52.761182,50.251852 C53.2331596,50.251852 53.5871428,50.1333332 53.7051372,50.0148148 L52.17121,50.1333332 L51.9352212,50.3703704 C51.6992324,50.3703704 51.3452492,50.4888888 51.3452492,50.725926 C51.3452492,51.3185184 53.7051372,50.8444444 53.7051372,51.0814816 C53.7051372,51.674074 50.8732716,51.2 50.4012936,51.3185184 C50.519288,51.0814816 50.7552768,50.8444444 50.6372824,50.725926 C50.7552768,50.725926 50.7552768,50.6074076 50.7552768,50.6074076 L50.519288,50.4888888 L50.519288,50.251852 C50.519288,50.251852 50.4012936,50.1333332 50.2832992,50.1333332 C50.1653048,50.1333332 50.1653048,50.1333332 50.0473104,50.0148148 L49.8113216,50.0148148 L49.6933272,49.8962964 L49.6933272,50.1333332 L49.4573384,50.3703704 C49.4573384,50.4888888 49.4573384,50.4888888 49.5753328,50.4888888 C49.4573384,50.6074076 49.4573384,50.725926 49.339344,50.725926 L49.4573384,50.8444444 C49.4573384,51.0814816 49.339344,51.3185184 49.4573384,51.4370372 L48.9853608,50.8444444 C48.8673664,50.725926 48.8673664,50.725926 48.8673664,50.6074076 L48.8673664,50.1333332 C48.8673664,50.0148148 48.749372,50.0148148 48.6313776,50.0148148 C48.6313776,50.0148148 48.749372,50.0148148 48.749372,50.1333332 L48.749372,50.3703704 C48.749372,50.251852 48.6313776,50.1333332 48.6313776,50.1333332 C48.6313776,50.0148148 48.5133832,50.0148148 48.3953888,50.1333332 L48.5133832,50.1333332 L48.5133832,50.251852 C48.5133832,50.3703704 48.6313776,50.3703704 48.6313776,50.3703704 C48.5133832,50.251852 48.3953888,50.3703704 48.3953888,50.4888888 L48.3953888,50.6074076 C48.3953888,50.6074076 48.2773944,50.725926 48.3953888,50.8444444 L48.3953888,50.725926 L48.5133832,50.725926 C48.3953888,50.8444444 48.3953888,50.9629628 48.5133832,50.9629628 C48.5133832,51.2 48.2773944,51.0814816 48.2773944,50.9629628 C48.1594,51.2 48.3953888,51.3185184 48.6313776,51.2 C48.6313776,51.2 48.6313776,51.3185184 48.749372,51.3185184 C48.749372,51.3185184 48.749372,51.4370372 48.8673664,51.4370372 L48.8673664,51.3185184 C48.8673664,51.3185184 48.8673664,51.674074 49.1033552,51.7925924 C49.1033552,51.9111112 49.339344,52.0296296 49.4573384,52.0296296 C49.4573384,52.148148 49.5753328,52.2666668 49.5753328,52.2666668 L49.1033552,52.2666668 L48.749372,52.3851852 L48.5133832,52.3851852 C48.5133832,52.3851852 48.5133832,52.2666668 48.3953888,52.2666668 L48.2773944,52.148148 L48.1594,52.148148 C48.1594,52.148148 48.0414056,52.0296296 47.9234112,52.148148 C47.9234112,52.148148 48.0414056,52.148148 48.0414056,52.2666668 L48.0414056,52.3851852 C48.0414056,52.3851852 48.0414056,52.5037036 48.2773944,52.6222224 L48.1594,52.6222224 C48.1594,52.3851852 48.1594,52.3851852 48.0414056,52.3851852 L47.9234112,52.3851852 C47.8054168,52.3851852 47.6874224,52.5037036 47.8054168,52.6222224 C47.8054168,52.6222224 47.8054168,52.5037036 47.9234112,52.5037036 L47.9234112,52.6222224 C47.9234112,52.7407408 48.0414056,52.8592592 48.1594,52.6222224 C48.1594,52.7407408 47.9234112,52.7407408 48.0414056,52.8592592 C48.0414056,52.9777776 48.1594,53.0962964 48.2773944,53.0962964 C48.2773944,53.0962964 48.1594,52.9777776 48.1594,52.8592592 L48.2773944,52.8592592 L48.3953888,52.6222224 C48.3953888,52.6222224 48.3953888,52.7407408 48.5133832,52.7407408 L48.6313776,52.6222224 L48.749372,52.7407408 C48.749372,52.7407408 48.8673664,52.7407408 48.8673664,52.6222224 L48.8673664,52.8592592 L49.1033552,52.6222224 L49.1033552,52.7407408 L49.339344,52.7407408 L49.339344,52.8592592 L49.339344,52.7407408 C49.339344,52.7407408 49.339344,52.8592592 49.4573384,52.9777776 C49.4573384,52.6222224 49.6933272,52.7407408 49.8113216,52.6222224 C49.8113216,52.6222224 49.8113216,52.7407408 49.6933272,52.7407408 C49.8113216,52.7407408 49.929316,52.6222224 49.929316,52.5037036 C49.929316,52.5037036 50.0473104,52.3851852 50.1653048,51.9111112 L50.2832992,51.9111112 L50.8732716,51.674074 C50.7552768,51.7925924 50.7552768,51.9111112 50.7552768,52.0296296 L50.991266,52.3851852 L50.7552768,52.3851852 L50.2832992,52.148148 L50.1653048,52.148148 C50.0473104,52.148148 49.929316,52.2666668 49.929316,52.3851852 L50.0473104,52.2666668 C50.0473104,52.2666668 50.0473104,52.3851852 50.1653048,52.3851852 L50.2832992,52.3851852 C50.2832992,52.5037036 50.0473104,52.3851852 50.0473104,52.6222224 L50.0473104,52.7407408 C50.0473104,52.8592592 50.0473104,52.8592592 50.1653048,52.8592592 C50.1653048,52.8592592 50.0473104,52.8592592 50.1653048,52.7407408 L50.1653048,52.8592592 C50.1653048,52.9777776 50.2832992,52.9777776 50.4012936,52.9777776 L50.2832992,52.9777776 L50.4012936,52.9777776 L50.4012936,52.8592592 L50.519288,52.9777776 L50.6372824,52.7407408 L50.991266,52.7407408 C50.991266,52.7407408 50.991266,52.5037036 50.8732716,52.3851852 C50.7552768,52.3851852 50.991266,51.9111112 50.6372824,51.674074 C50.7552768,51.674074 51.3452492,51.7925924 51.4632436,51.674074 C51.581238,51.674074 51.8172268,51.7925924 51.8172268,51.9111112 L51.8172268,52.0296296 C51.6992324,52.148148 51.6992324,52.148148 51.581238,52.148148 L51.4632436,52.0296296 L51.3452492,52.0296296 C51.2272548,52.0296296 51.1092604,52.0296296 51.1092604,52.148148 L51.2272548,52.148148 L51.2272548,52.2666668 C51.1092604,52.2666668 50.991266,52.2666668 50.991266,52.3851852 L50.991266,52.5037036 C50.991266,52.5037036 50.8732716,52.6222224 50.991266,52.7407408 L51.1092604,52.6222224 C51.1092604,52.6222224 51.2272548,52.5037036 51.3452492,52.6222224 C51.2272548,52.6222224 51.2272548,52.7407408 51.2272548,52.7407408 C51.2272548,52.7407408 51.2272548,52.8592592 51.3452492,52.9777776 L51.3452492,52.8592592 L51.4632436,52.8592592 C51.581238,52.7407408 51.581238,52.6222224 51.581238,52.6222224 C51.581238,52.6222224 51.6992324,52.7407408 51.8172268,52.6222224 L51.8172268,52.5037036 C51.8172268,52.5037036 51.9352212,52.6222224 51.9352212,52.5037036 C51.8172268,52.3851852 51.9352212,52.3851852 51.9352212,52.2666668 C51.9352212,52.2666668 52.0532156,52.2666668 52.17121,52.148148 C52.0532156,52.148148 51.9352212,52.0296296 52.0532156,52.0296296 C52.17121,52.0296296 52.2892044,51.9111112 52.17121,51.7925924 C52.0532156,51.674074 51.6992324,51.674074 51.6992324,51.5555556 C52.17121,51.5555556 53.1151652,51.5555556 53.1151652,51.0814816 C53.1151652,50.4888888 50.7552768,51.0814816 50.7552768,50.725926 C51.581238,50.4888888 51.6992324,50.3703704 51.9352212,50.3703704 L51.9352212,50.3703704 Z M14.1770086,9.6 C14.1770086,8.77037032 13.1150588,8.77037032 13.1150588,9.6 C13.1150588,10.4296297 14.1770086,10.3111111 14.1770086,9.6 L14.1770086,9.6 Z M13.9410198,8.05925924 C13.9410198,7.34814816 12.7610756,7.34814816 12.7610756,8.05925924 C12.7610756,8.77037032 13.9410198,8.88888892 13.9410198,8.05925924 L13.9410198,8.05925924 Z M14.295003,7.46666668 C15.120964,7.46666668 15.120964,6.4 14.295003,6.4 C13.4690421,6.4 13.4690421,7.46666668 14.295003,7.46666668 L14.295003,7.46666668 Z M15.710936,7.34814816 C16.0649192,7.34814816 16.300908,7.11111108 16.300908,6.75555556 C16.300908,5.92592592 15.2389583,5.92592592 15.2389583,6.75555556 C15.120964,7.11111108 15.4749472,7.34814816 15.710936,7.34814816 L15.710936,7.34814816 Z M22.2006288,6.28148148 C22.7906008,6.87407408 23.4985674,6.04444444 23.0265896,5.45185184 C22.554612,4.85925924 21.6106567,5.8074074 22.2006288,6.28148148 L22.2006288,6.28148148 Z M22.0826343,5.09629628 C22.6726064,4.50370372 21.8466455,3.7925926 21.2566734,4.26666668 C20.6667014,4.74074076 21.4926623,5.68888888 22.0826343,5.09629628 L22.0826343,5.09629628 Z M20.548707,4.85925924 C21.138679,4.26666668 20.3127181,3.55555555 19.722746,4.02962964 C19.132774,4.50370372 19.9587349,5.45185184 20.548707,4.85925924 L20.548707,4.85925924 Z M19.2507684,5.8074074 C19.4867572,5.57037036 19.4867572,5.2148148 19.2507684,4.97777776 C18.6607964,4.3851852 17.9528298,5.2148148 18.4248075,5.8074074 C18.7787907,5.92592592 19.0147796,5.92592592 19.2507684,5.8074074 L19.2507684,5.8074074 Z M15.710936,4.97777776 L16.1829136,6.04444444 L16.7728857,5.33333332 C16.8908802,5.45185188 16.8908802,6.4 16.8908802,6.51851852 C16.8908802,6.9925926 17.2448634,7.22962968 17.5988466,7.22962968 C18.4248075,7.22962968 18.6607964,6.16296296 17.9528298,5.92592592 C17.8348354,5.8074074 17.126869,5.2148148 17.126869,5.09629628 L18.1888187,5.2148148 L17.8348354,4.14814816 L17.126869,4.74074076 L17.126869,3.67407408 L16.0649192,4.02962964 L16.7728857,4.85925924 L16.7728857,4.97777776 L15.710936,4.97777776 L15.710936,4.97777776 Z M22.2006288,6.75555556 C22.7906008,7.70370372 22.554612,7.82222224 21.96464,6.9925926 L22.0826343,8.29629628 C23.0265896,6.9925926 22.4366176,9.00740744 21.8466455,9.12592596 C20.7846958,9.36296296 21.0206846,7.70370372 21.7286511,8.4148148 C21.8466455,7.5851852 21.138679,7.5851852 20.7846958,7.94074076 C21.138679,7.11111108 21.0206846,6.75555556 20.3127181,6.28148148 C19.8407405,6.9925926 20.0767293,7.46666668 20.6667014,7.94074076 C20.0767293,7.70370372 19.6047516,8.17777776 20.0767293,8.77037032 C20.1947238,8.17777776 20.6667014,8.29629628 20.7846958,8.77037032 C21.0206846,9.6 19.3687628,10.4296297 18.6607964,9.00740744 C18.8967852,8.88888892 19.2507684,8.88888892 19.722746,9.24444448 L19.3687628,8.05925924 C19.0147796,8.88888892 18.3068131,9.36296296 18.7787907,7.70370372 L17.2448634,8.4148148 C18.7787907,9.24444448 17.9528298,9.36296296 17.126869,9.00740744 L17.8348354,10.1925926 C17.9528298,9.6 18.3068131,9.24444448 18.4248075,9.24444448 C19.0147796,10.6666667 17.2448634,11.2592592 16.7728857,10.4296297 C16.5368969,10.074074 16.7728857,9.6 17.2448634,9.95555552 C17.126869,9.12592596 16.5368969,9.12592596 16.300908,9.71851852 C16.300908,8.88888892 16.0649192,8.53333332 15.2389583,8.29629628 C15.0029695,9.12592596 15.3569528,9.48148148 16.0649192,9.83703704 C15.5929416,9.83703704 15.120964,10.1925926 15.710936,10.7851852 C15.710936,9.71851852 16.8908802,10.7851852 16.1829136,11.3777778 C15.710936,11.7333333 13.9410198,10.5481482 15.4749472,10.9037037 L14.6489862,9.83703704 C14.7669807,10.7851852 14.5309918,10.9037037 14.295003,9.83703704 L13.5870366,10.4296297 C14.1770086,10.7851852 14.8849751,11.3777778 15.710936,12.562963 C17.4808522,11.4962963 20.6667014,10.074074 22.9085952,9.6 C22.6726064,8.29629628 22.7906008,7.34814816 23.0265896,6.63703704 C23.1445841,6.75555556 22.2006288,6.75555556 22.2006288,6.75555556 L22.2006288,6.75555556 Z M23.970545,14.3407408 C23.1445841,15.0518518 22.2006288,14.3407408 21.6106567,13.5111111 C22.6726064,13.037037 23.970545,12.562963 24.7965059,12.0888889 C24.0885394,13.274074 24.6785115,13.7481482 23.970545,14.3407408 L23.970545,14.3407408 Z M23.7345562,22.5185185 C22.2006288,23.2296297 21.0206846,20.7407408 21.6106567,20.1481482 C22.0826343,19.674074 22.2006288,19.3185185 21.96464,18.8444445 C21.6106567,18.1333333 20.9026902,18.4888889 20.3127181,18.725926 C20.6667014,18.1333333 20.6667014,17.6592592 20.1947238,17.6592592 C19.6047516,17.7777778 19.6047516,18.6074074 19.2507684,18.4888889 C18.8967852,18.3703703 19.132774,17.8962963 19.132774,17.5407408 C19.132774,16.8296297 20.548707,16.474074 22.554612,15.762963 C22.9085952,15.6444445 23.2625785,15.525926 23.4985674,15.762963 C23.7345562,16 24.2065338,16.237037 24.0885394,16.474074 C23.970545,16.8296297 23.2625785,16.1185185 22.9085952,16.474074 C22.554612,16.7111111 22.9085952,17.0666667 23.4985674,17.3037037 C22.7906008,17.6592592 22.2006288,18.0148148 22.4366176,18.4888889 C22.6726064,19.0814815 23.0265896,19.2 23.4985674,19.2 C23.8525506,19.2 24.0885394,19.674074 24.4425226,20.2666667 C24.7965059,21.0962963 24.9145003,22.0444445 23.7345562,22.5185185 L23.7345562,22.5185185 Z M18.1888187,16.5925926 C17.3628578,16.7111111 17.3628578,15.8814815 16.0649192,15.525926 C17.126869,15.2888889 18.3068131,14.8148148 19.3687628,14.4592592 C19.6047516,15.2888889 19.132774,16.474074 18.1888187,16.5925926 L18.1888187,16.5925926 Z M34.5900422,42.9037036 C34.8260311,42.3111112 33.646087,41.7185184 33.5280925,40.7703704 C33.0561149,37.3333333 32.9381205,39.1111111 27.1563942,32 C27.392383,32 28.1003495,31.8814815 28.5723272,32.474074 C31.9941651,35.674074 28.4543327,33.8962963 34.5900422,27.7333333 C34.0000702,27.9703703 33.1741093,28.0888889 32.5841372,28.4444445 C32.5841372,27.3777778 32.5841372,26.6666667 31.8761708,25.9555555 C32.1121596,24.6518518 31.8761708,22.874074 28.808316,20.7407408 C30.3422434,21.0962963 31.4041931,22.5185185 32.4661428,21.4518518 C31.4041931,21.4518518 31.4041931,18.962963 27.392383,17.0666667 C28.808316,17.0666667 30.1062546,19.437037 31.8761708,18.1333333 C30.2242489,17.8962963 29.6342769,14.9333333 26.6844165,14.1037037 C27.7463662,14.2222222 28.808316,14.8148148 29.6342769,13.5111111 C28.5723272,13.7481482 27.9823551,12.8 26.9204053,12.6814815 C27.392383,11.4962963 27.2743886,10.6666667 26.802411,9.6 C25.97645,9.6 25.2684836,9.95555552 24.6785115,10.4296297 C24.560517,9.71851852 23.8525506,9.6 23.2625785,9.71851852 C23.2625785,10.074074 23.4985674,10.5481482 23.1445841,10.5481482 C21.0206846,11.0222222 18.1888187,11.9703703 16.0649192,13.5111111 C15.8289304,13.7481482 15.4749472,13.274074 15.3569528,13.037037 C14.8849751,13.5111111 14.4129974,13.9851852 14.7669807,14.4592592 C13.9410198,14.5777778 13.2330533,14.6962963 12.4070924,15.2888889 C12.4070924,16.237037 13.2330533,16.9481482 14.1770086,17.5407408 C12.7610756,19.2 14.4129974,20.9777778 12.7610756,22.5185185 C15.0029695,22.637037 14.6489862,19.437037 15.8289304,19.0814815 C15.710936,21.3333333 14.5309918,21.6888889 14.5309918,24.1777778 C14.5309918,25.362963 15.3569528,26.9037037 14.6489862,27.6148148 C16.5368969,27.0222222 15.9469248,22.874074 17.2448634,21.6888889 C17.4808522,22.4 17.3628578,23.1111111 17.126869,23.8222222 C16.4189024,25.7185185 17.2448634,28.4444445 16.0649192,29.3925926 C17.9528298,29.1555555 18.1888187,26.074074 19.8407405,24.8888889 C18.5428019,27.7333333 17.0088745,33.6592592 15.0029695,36.7407408 C11.6991259,41.2444444 9.69322088,46.6962964 6.74336052,46.6962964 C5.44542196,46.6962964 4.3834722,45.8666668 4.3834722,44.2074076 C4.3834722,39.1111111 12.9970645,35.674074 12.9970645,30.2222222 C12.9970645,27.3777778 9.92920968,25.6 7.2153382,27.9703703 C3.08553366,26.3111111 4.1474834,33.3037037 1.31561745,33.3037037 C2.37756718,33.8962963 4.2654778,32.7111111 5.20943312,31.1703703 C4.73745544,34.725926 -0.336304349,33.7777778 0.0176788936,38.162963 C0.72564538,34.8444445 12.289098,34.0148148 8.27728792,28.6814815 C8.9852544,28.2074074 9.45723204,28.0888889 9.92920968,28.0888889 C10.9911594,28.0888889 11.8171204,28.9185185 11.8171204,30.2222222 C11.8171204,35.2 -0.218309935,40.7703704 3.91149456,46.5777776 C3.32152249,46.8148148 2.73155042,46.6962964 2.14157835,46.1037036 C2.14157835,47.525926 4.1474834,48.474074 5.44542196,47.6444444 L6.38937724,47.8814816 C6.035394,48.948148 4.73745544,49.1851852 4.02948896,49.1851852 C6.15338844,50.8444444 9.81121524,48.5925924 9.5752264,46.8148148 C12.1711036,44.6814816 13.7050309,39.9407408 13.3510477,42.6666668 C12.1711036,44.9185184 10.9911594,46.9333332 10.6371762,49.8962964 C10.4011873,52.3851852 9.10324876,54.6370372 7.33333256,54.6370372 C6.97934932,54.6370372 6.27138284,54.1629628 6.035394,54.4 C5.44542196,54.874074 6.035394,55.4666668 6.035394,55.8222224 C6.035394,56.5333332 4.73745544,57.2444444 4.73745544,59.3777776 C4.73745544,60.4444444 5.32742752,61.5111112 5.09143872,62.2222224 C5.68141076,61.8666668 6.38937724,61.0370372 6.62536608,59.7333332 C7.2153382,62.6962964 5.44542196,62.5777776 6.74336052,65.0666668 C6.97934932,63.525926 9.2212432,63.7629628 8.15929348,65.1851852 C7.92330464,65.4222224 7.451327,67.3185184 9.2212432,67.2 C8.86725996,66.9629628 8.86725996,66.4888888 9.81121524,66.251852 C10.9911594,66.0148148 11.3451426,66.6074076 12.6430812,66.6074076 C13.4690421,66.6074076 13.7050309,65.5407408 14.295003,65.5407408 C14.8849751,65.5407408 15.0029695,66.0148148 14.7669807,66.4888888 C15.8289304,66.251852 15.9469248,65.6592592 15.9469248,65.1851852 C15.9469248,64.7111112 15.4749472,64.2370372 15.8289304,64.1185184 C16.1829136,63.8814816 17.3628578,64.1185184 16.8908802,65.1851852 C18.3068131,64.948148 18.0708243,62.4592592 16.1829136,62.8148148 C16.0649192,62.3407408 15.3569528,62.1037036 14.7669807,62.1037036 C13.3510477,62.1037036 13.5870366,63.1703704 12.6430812,63.1703704 C11.1091538,63.1703704 9.5752264,61.1555556 9.5752264,57.7185184 C9.5752264,54.6370372 14.7669807,55.8222224 18.1888187,50.251852 C19.2507684,48.3555556 19.3687628,46.2222224 19.2507684,43.7333332 C21.8466455,45.274074 22.2006288,49.0666668 19.9587349,50.1333332 C19.3687628,50.3703704 19.2507684,50.251852 19.132774,50.6074076 C19.0147796,50.9629628 19.3687628,51.2 19.6047516,51.4370372 C20.3127181,51.7925924 20.1947238,52.5037036 20.4307126,53.2148148 C20.6667014,54.0444444 21.3746679,55.1111112 22.3186232,55.9407408 C22.4366176,55.4666668 22.4366176,54.7555556 22.3186232,53.8074076 C23.7345562,54.6370372 22.6726064,57.6 25.6224668,57.6 C25.0324947,57.2444444 25.1504891,56.5333332 25.5044724,56.4148148 C25.8584556,56.2962964 26.2124388,56.651852 26.6844165,57.4814816 C27.2743886,58.3111112 27.1563942,58.1925924 28.4543327,58.1925924 C29.7522713,58.1925924 29.2802936,57.7185184 29.8702657,57.7185184 C30.6962266,57.7185184 30.5782322,58.6666668 30.2242489,59.1407408 C31.4041931,58.7851852 31.7581763,57.8370372 31.4041931,56.8888888 C32.4661428,56.2962964 33.0561149,57.125926 33.1741093,57.7185184 C34.236059,56.651852 33.1741093,55.348148 32.230154,55.2296296 C32.3481484,54.2814816 31.0502098,54.2814816 30.1062546,54.2814816 L28.808316,55.1111112 C27.0383998,55.1111112 23.2625785,51.7925924 23.2625785,50.3703704 C23.2625785,48.948148 26.6844165,48 26.6844165,45.8666668 C26.6844165,42.9037036 23.8525506,41.9555556 21.3746679,40.1777776 C22.3186232,39.1111111 24.6785115,38.9925926 26.2124388,39.7037037 C26.3304333,38.874074 26.9204053,39.1111111 27.1563942,37.6888889 C27.7463662,38.874074 27.1563942,39.9407408 27.6283718,40.5333332 C28.1003495,39.9407408 29.0443048,39.9407408 28.9263104,38.5185185 C29.2802936,39.4666667 28.4543327,40.8888888 29.2802936,41.6 C29.398288,40.4148148 30.6962266,40.4148148 30.6962266,41.3629628 C30.6962266,42.4296296 29.2802936,42.074074 29.2802936,43.2592592 C29.2802936,43.851852 29.9882601,44.0888888 29.9882601,44.325926 C29.9882601,44.5629628 29.398288,45.274074 28.808316,44.8 C29.5162824,46.3407408 31.1682042,45.8666668 31.7581763,44.5629628 C32.1121596,45.3925924 31.8761708,46.3407408 31.1682042,46.4592592 C31.8761708,46.8148148 33.2921037,46.4592592 33.0561149,44.5629628 C34.0000702,44.6814816 34.3540534,45.274074 33.8820758,46.3407408 C34.5900422,46.1037036 35.1800144,45.748148 35.1800144,45.1555556 C34.9440255,43.7333332 34.3540534,43.4962964 34.5900422,42.9037036 L34.5900422,42.9037036 Z M90.4014,56.7703704 C90.4014,54.4 93.9412328,54.4 93.9412328,56.7703704 C94.0592272,59.2592592 90.4014,59.2592592 90.4014,56.7703704 L90.4014,56.7703704 Z M89.8114284,56.7703704 C89.8114284,58.074074 90.8733776,59.2592592 92.2893104,59.2592592 C95.5931548,59.2592592 95.5931548,54.4 92.2893104,54.4 C90.8733776,54.4 89.8114284,55.4666668 89.8114284,56.7703704 L89.8114284,56.7703704 Z M81.7878076,61.274074 C81.0798416,61.1555556 80.607864,60.5629628 80.7258584,60.2074076 C80.7258584,59.9703704 80.9618468,59.7333332 81.0798416,59.6148148 C81.4338248,59.3777776 81.7878076,59.3777776 82.1417916,59.3777776 C83.7937128,59.7333332 83.43973,61.5111112 81.7878076,61.274074 L81.7878076,61.274074 Z M80.7258584,59.0222224 C80.3718748,59.2592592 80.1358864,59.6148148 80.1358864,59.9703704 C80.0178916,60.4444444 80.1358864,60.9185184 80.4898692,61.1555556 C81.5518192,62.2222224 83.6757184,61.9851852 83.7937128,60.5629628 C84.147696,59.1407408 82.1417916,58.1925924 80.7258584,59.0222224 L80.7258584,59.0222224 Z M67.2744948,26.1925926 C67.2744948,25.0074074 69.3983944,24.5333333 69.2804,25.7185185 C69.0444112,26.9037037 67.2744948,27.2592592 67.2744948,26.1925926 L67.2744948,26.1925926 Z M67.2744948,24.7703703 C65.5045788,26.074074 67.038506,28.562963 69.0444112,27.1407408 C70.8143272,25.6 69.1624056,23.3481482 67.2744948,24.7703703 Z M78.7199532,57.8370372 C77.5400088,57.8370372 77.5400088,55.2296296 78.7199532,55.2296296 C80.1358864,55.2296296 80.0178916,57.8370372 78.7199532,57.8370372 L78.7199532,57.8370372 Z M77.893992,54.9925924 C76.8320428,56.0592592 77.3040204,58.3111112 78.8379472,58.3111112 C81.669814,58.548148 80.1358864,52.7407408 77.893992,54.9925924 L77.893992,54.9925924 Z M66.448534,37.6888889 C65.26859,37.0962963 65.5045788,35.9111111 66.0945508,35.9111111 C66.9205116,35.674074 67.8644672,36.2666667 67.9824616,36.8592592 C67.9824616,36.9777778 68.100456,37.2148148 67.9824616,37.4518518 C67.8644672,37.6888889 67.6284784,37.8074074 67.510484,37.8074074 C67.2744948,37.925926 66.8025172,37.8074074 66.448534,37.6888889 L66.448534,37.6888889 Z M65.9765564,35.2 C63.8526568,35.9111111 65.9765564,39.1111111 67.7464728,38.2814815 C69.7523776,37.5703703 68.3364448,34.6074074 65.9765564,35.2 L65.9765564,35.2 Z M83.5577244,46.3407408 C83.0857468,46.9333332 82.4957744,47.1703704 82.0237968,46.8148148 C80.9618468,45.9851852 82.37778,43.9703704 83.43973,44.8 C83.9117076,45.1555556 84.029702,45.748148 83.5577244,46.3407408 L83.5577244,46.3407408 Z M80.7258584,50.9629628 C79.6639088,52.2666668 78.1299812,51.2 79.1919308,49.8962964 C79.6639088,49.3037036 80.2538808,49.0666668 80.7258584,49.4222224 C81.0798416,49.7777776 81.0798416,50.3703704 80.7258584,50.9629628 L80.7258584,50.9629628 Z M70.932322,25.9555555 L71.9942716,22.7555555 L73.0562216,23.2296297 C72.702238,23.3481482 72.3482548,23.7037037 71.9942716,24.0592592 C72.23026,24.1777778 72.702238,24.1777778 73.0562216,23.9407408 L72.584244,25.125926 C71.7582824,23.7037037 71.2863048,25.2444445 72.584244,25.9555555 C74.4721544,27.0222222 74.1181708,24.8888889 73.0562216,25.362963 C72.9382272,24.2962963 74.1181708,24.1777778 74.2361652,25.125926 C74.2361652,24.1777778 74.5901484,23.4666667 75.41611,23.2296297 C75.7700928,24.1777778 75.5341036,24.7703703 74.7081432,25.4814815 C75.7700928,25.0074074 76.124076,26.1925926 75.2981152,26.5481482 C75.062126,25.4814815 73.1742156,26.4296297 74.944132,27.4962963 C76.3600652,28.325926 77.3040204,26.1925926 75.6520984,27.2592592 L76.4780588,25.9555555 C76.4780588,26.1925926 76.5960536,26.5481482 76.9500368,26.7851852 C77.0680312,26.4296297 77.186026,25.837037 76.9500368,25.4814815 L78.483964,26.4296297 C77.5400088,26.5481482 76.9500368,27.6148148 78.2479756,27.1407408 L77.5400088,28.325926 C77.5400088,27.8518518 77.4220144,27.4962963 77.186026,27.2592592 C76.3600652,28.6814815 78.483964,29.7481482 78.955942,29.037037 C79.1919308,28.6814815 78.8379472,27.9703703 78.1299812,28.2074074 C78.1299812,27.1407408 79.1919308,27.0222222 79.4279196,28.0888889 C79.6639088,27.1407408 80.1358864,26.6666667 80.9618468,26.4296297 C81.197836,27.3777778 80.7258584,27.9703703 79.8998972,28.4444445 C80.9618468,28.0888889 81.197836,29.274074 80.3718748,29.6296297 C80.2538808,29.037037 79.545914,28.8 79.3099256,29.274074 C78.955942,29.8666667 80.607864,31.2888889 81.669814,30.3407408 C81.4338248,30.1037037 80.9618468,29.9851852 80.7258584,29.9851852 L81.5518192,29.037037 C81.5518192,29.3925926 81.7878076,29.8666667 82.0237968,29.9851852 C82.1417916,29.5111111 82.2597852,29.037037 82.1417916,28.6814815 L83.0857468,29.5111111 C83.0857468,29.5111111 81.669814,31.0518518 80.8438524,32 C81.0798416,31.8814815 70.932322,25.9555555 70.932322,25.9555555 L70.932322,25.9555555 Z M82.7317628,39.5851852 C82.7317628,37.6888889 86.0356064,39.7037037 84.737668,40.8888888 C84.147696,41.4814816 82.7317628,40.7703704 82.7317628,39.5851852 L82.7317628,39.5851852 Z M87.0975564,59.7333332 C87.3335456,58.6666668 88.8674732,58.1925924 89.3394508,58.9037036 C90.283406,60.325926 86.861568,61.6296296 87.0975564,59.7333332 L87.0975564,59.7333332 Z M66.448534,29.3925926 C66.448534,31.0518518 64.678618,30.6962963 65.0326012,29.3925926 C65.0326012,27.9703703 66.448534,27.9703703 66.448534,29.3925926 L66.448534,29.3925926 Z M72.8202324,16.237037 C73.1742156,15.525926 72.8202324,14.5777778 74.0001768,14.5777778 C74.5901484,14.5777778 75.062126,15.1703703 75.7700928,15.4074074 C74.7081432,15.4074074 73.6461932,15.6444445 72.8202324,16.237037 L72.8202324,16.237037 Z M91.46335,32.7111111 C92.2893104,34.8444445 93.823238,35.674074 95.0031824,35.0814815 C92.2893104,34.725926 94.4132104,30.1037037 91.1093668,30.1037037 C89.9294224,30.1037037 90.1654116,29.274074 88.2775008,29.274074 C86.861568,29.274074 84.2656904,30.6962963 84.2656904,33.6592592 C84.2656904,39.9407408 91.5813444,40.5333332 91.5813444,46.1037036 C91.5813444,47.7629628 90.4014,48.8296296 88.9854668,48.8296296 C86.979562,48.8296296 86.6255788,46.1037036 83.0857468,41.3629628 C84.2656904,42.1925924 85.6816236,41.4814816 85.6816236,40.2962964 C85.6816236,37.5703703 81.31583,37.4518518 82.37778,40.2962964 C78.3659696,35.0814815 78.955942,34.8444445 80.8438524,32.237037 L81.197836,32.3555555 C81.5518192,32 83.43973,30.1037037 83.6757184,29.6296297 L84.029702,29.274074 L83.0857468,28.6814815 L83.6757184,27.1407408 C83.9117076,28.2074074 84.5016796,28.8 85.0916512,28.562963 C84.6196736,27.4962963 85.5636288,26.074074 84.9736572,23.4666667 C85.5636288,24.5333333 86.3895904,24.8888889 87.0975564,24.7703703 C85.5636288,23.3481482 87.569534,21.3333333 85.4456348,18.2518518 C86.1536012,18.4888889 86.507584,18.3703703 86.861568,18.0148148 C84.9736572,17.7777778 85.799618,15.2888889 82.4957744,14.4592592 C83.3217352,14.3407408 83.7937128,13.7481482 83.6757184,13.3925926 C82.7317628,14.1037037 82.0237968,12.2074074 79.0739364,12.325926 C78.8379472,11.2592592 77.893992,10.074074 76.714048,9.48148148 C76.9500368,10.4296297 76.714048,11.0222222 76.4780588,11.7333333 L66.9205116,2.37037037 C63.3806792,-0.948148148 75.5341036,14.1037037 74.5901484,12.9185185 C72.9382272,13.5111111 71.9942716,13.5111111 71.9942716,14.5777778 C70.460344,15.4074074 69.1624056,16.237037 68.5724336,16.8296297 C67.9824616,17.3037037 67.6284784,17.4222222 68.100456,18.3703703 C68.3364448,18.725926 67.7464728,19.674074 68.9264168,19.0814815 C72.1122664,17.1851852 72.584244,18.3703703 70.3423496,19.2 C69.7523776,19.437037 69.1624056,19.9111111 69.2804,20.1481482 L69.870372,20.3851852 C69.870372,20.6222222 70.1063608,20.9777778 70.3423496,20.9777778 C70.5783384,20.9777778 70.932322,20.5037037 71.1683112,20.6222222 C71.4042996,20.7407408 71.0503164,21.8074074 70.8143272,22.162963 C71.7582824,22.0444445 72.3482548,21.0962963 72.3482548,20.5037037 C72.3482548,19.9111111 72.584244,19.5555555 72.702238,19.437037 C72.8202324,19.3185185 73.0562216,20.2666667 72.8202324,20.6222222 C73.29221,20.5037037 73.8821824,19.7925926 73.7641876,18.725926 C74.944132,17.6592592 74.8261376,19.3185185 76.2420704,19.3185185 C78.2479756,19.3185185 79.545914,17.1851852 78.6019588,16 C79.1919308,16.474074 79.4279196,17.1851852 79.4279196,17.7777778 C79.4279196,20.1481482 75.5341036,21.0962963 73.5281992,22.9925926 L71.6402888,22.162963 C71.4042996,23.1111111 70.6963332,25.0074074 70.5783384,25.7185185 L70.460344,26.074074 L70.5783384,26.3111111 C69.5163888,27.7333333 68.5724336,29.5111111 68.3364448,31.2888889 C67.8644672,30.8148148 67.3924896,30.3407408 67.038506,30.1037037 C67.038506,29.9851852 67.1565004,29.7481482 67.1565004,29.5111111 C67.2744948,28.0888889 65.9765564,27.1407408 64.9146068,28.0888889 C64.678618,28.325926 64.7966124,28.325926 64.5606236,28.0888889 C62.6727128,26.6666667 62.0827408,25.362963 60.19483,26.6666667 C58.8968916,27.8518518 58.8968916,27.1407408 60.19483,28.6814815 C60.3128244,28.562963 60.4308188,28.4444445 60.5488132,28.4444445 C61.6107632,27.3777778 62.2007352,29.3925926 65.0326012,32.474074 C64.3246348,32.7111111 63.9706512,32.9481482 62.3187296,32.8296297 C61.7287576,32.8296297 61.6107632,32.5925926 61.25678,33.3037037 C59.8408468,35.5555555 60.7848024,33.7777778 63.2626848,39.7037037 C64.088646,41.7185184 66.0945508,41.2444444 67.7464728,42.9037036 L67.8644672,41.9555556 C67.3924896,41.4814816 65.26859,41.0074076 66.448534,41.0074076 C66.8025172,41.0074076 67.8644672,41.3629628 68.690428,41.7185184 C68.4544392,40.7703704 67.6284784,39.9407408 67.1565004,39.3481482 C66.448534,39.1111111 65.858562,39.1111111 65.6225732,39.3481482 C65.6225732,40.0592592 64.678618,39.8222222 64.9146068,39.3481482 C65.0326012,39.1111111 65.3865844,38.9925926 65.26859,38.5185185 C65.1505956,38.0444445 64.5606236,37.925926 64.2066404,37.925926 C60.5488132,32.8296297 63.4986736,35.0814815 68.5724336,35.0814815 C69.2804,41.8370372 74.8261376,38.7555555 76.4780588,43.1407408 C70.2243552,43.0222224 69.1624056,45.5111112 69.1624056,47.7629628 C69.1624056,50.3703704 71.4042996,50.251852 71.4042996,52.2666668 C71.4042996,53.925926 66.0945508,54.7555556 64.5606236,54.9925924 C63.2626848,55.2296296 62.436724,55.4666668 61.7287576,56.0592592 C61.0207912,56.7703704 60.4308188,57.2444444 59.2508748,58.548148 C59.2508748,58.548148 59.7228524,58.6666668 60.3128244,58.6666668 L61.25678,57.6 C61.4927688,57.2444444 61.7287576,56.8888888 61.9647464,56.8888888 C62.2007352,56.8888888 62.0827408,57.2444444 61.846752,57.7185184 L61.0207912,58.9037036 C64.2066404,59.1407408 64.3246348,57.9555556 64.3246348,57.4814816 C64.3246348,57.0074076 63.4986736,56.651852 63.9706512,56.4148148 C64.4426292,56.0592592 64.7966124,56.2962964 65.0326012,56.7703704 C65.3865844,57.2444444 65.5045788,57.6 66.3305396,57.2444444 C66.3305396,57.2444444 73.0562216,54.4 74.0001768,54.0444444 C74.8261376,53.6888888 74.5901484,53.3333332 74.1181708,52.9777776 C73.6461932,52.5037036 73.5281992,51.9111112 73.5281992,51.2 C73.5281992,49.1851852 74.7081432,48.474074 76.8320428,48.5925924 C76.3600652,52.9777776 81.669814,55.9407408 82.7317628,55.9407408 C83.3217352,55.9407408 84.029702,55.4666668 84.147696,57.3629628 C84.2656904,60.325926 85.0916512,62.2222224 82.4957744,64 C81.4338248,64.7111112 80.607864,66.8444444 80.1358864,67.3185184 C80.607864,67.674074 81.0798416,67.674074 81.31583,66.6074076 C81.669814,65.6592592 82.0237968,65.1851852 82.37778,64.948148 C82.0237968,66.0148148 81.669814,67.3185184 81.5518192,67.7925924 C82.7317628,68.0296296 84.8556628,66.8444444 84.8556628,66.0148148 C84.8556628,65.0666668 84.147696,65.1851852 84.147696,64.7111112 C84.147696,63.8814816 85.5636288,64 85.6816236,64.7111112 C86.2715956,64.3555556 86.6255788,63.8814816 86.6255788,62.5777776 L87.6875288,61.8666668 C88.7494784,61.9851852 89.9294224,60.9185184 89.9294224,59.851852 C89.9294224,57.9555556 86.861568,58.074074 86.3895904,59.9703704 C86.2715956,58.3111112 86.1536012,56.651852 86.1536012,55.9407408 C86.2715956,54.874074 86.2715956,54.5185184 85.9176128,54.4 C85.5636288,54.2814816 85.209646,54.874074 84.8556628,54.874074 C84.5016796,54.874074 82.967752,53.5703704 82.967752,52.148148 C82.967752,50.725926 84.3836852,48.948148 84.3836852,47.051852 C84.3836852,46.4592592 84.737668,46.1037036 84.9736572,46.6962964 C85.3276404,47.4074076 85.6816236,48.1185184 86.2715956,48.948148 C85.799618,51.3185184 88.5134892,53.6888888 90.6373892,51.9111112 C89.5754392,52.0296296 88.8674732,51.0814816 88.3954956,50.251852 L89.3394508,50.251852 C90.1654116,51.2 92.5252996,51.2 92.9972772,48.8296296 C92.5252996,49.3037036 91.8173328,49.7777776 91.1093668,49.6592592 C92.053322,48.948148 92.4073052,47.8814816 92.4073052,46.5777776 C92.4073052,40.651852 85.0916512,39.8222222 85.0916512,34.4888889 C85.0916512,32.1185185 87.6875288,30.3407408 89.221456,31.525926 C88.7494784,32 88.5134892,32.7111111 88.5134892,33.6592592 C88.7494784,37.925926 95.7111488,37.8074074 95.8291432,39.8222222 C97.0090876,36.0296297 91.6993388,36.9777778 91.46335,32.7111111 L91.46335,32.7111111 Z" id="Shape" fill-rule="nonzero"></path>
                </g>
            </g>
        </g>
    </g>
</svg>