<?xml version="1.0" encoding="UTF-8"?>
<svg width="87px" height="94px" viewBox="0 0 87 94" version="1.1" xmlns="http://www.w3.org/2000/svg" xmlns:xlink="http://www.w3.org/1999/xlink">
    <!-- Generator: Sketch 58 (84663) - https://sketch.com -->
    <title>Icons / msm</title>
    <desc>Created with Sketch.</desc>
    <defs>
        <linearGradient x1="16.0122724%" y1="84.0991562%" x2="85.8607116%" y2="24.5691693%" id="linearGradient-1">
            <stop stop-color="#FFFFFF" offset="0%"></stop>
            <stop stop-color="#FFFFFF" offset="100%"></stop>
        </linearGradient>
        <linearGradient x1="14.0267682%" y1="80.8837756%" x2="84.4414875%" y2="21.9212099%" id="linearGradient-2">
            <stop stop-color="#C3C3C3" offset="0%"></stop>
            <stop stop-color="#AEAEAE" offset="100%"></stop>
        </linearGradient>
        <linearGradient x1="-256.862676%" y1="283.427194%" x2="236.064222%" y2="-91.0486006%" id="linearGradient-3">
            <stop stop-color="#B5B5B5" offset="0%"></stop>
            <stop stop-color="#BDBDBD" offset="100%"></stop>
        </linearGradient>
        <linearGradient x1="15.9795546%" y1="84.0991562%" x2="85.8952323%" y2="24.5691693%" id="linearGradient-4">
            <stop stop-color="#C0C0C0" offset="0%"></stop>
            <stop stop-color="#B5B5B5" offset="100%"></stop>
        </linearGradient>
        <linearGradient x1="-1.55754651%" y1="98.0107527%" x2="85.5974886%" y2="25.1775314%" id="linearGradient-5">
            <stop stop-color="#AEAEAE" offset="0%"></stop>
            <stop stop-color="#B6B6B6" offset="100%"></stop>
        </linearGradient>
        <polygon id="path-6" points="0 0.0176263393 6.69578956 0.0176263393 6.69578956 9.84151045 0 9.84151045"></polygon>
        <polygon id="path-8" points="0.0130629779 0.00140860138 5.27796372 0.00140860138 5.27796372 8.95539518 0.0130629779 8.95539518"></polygon>
    </defs>
    <g id="Page-1" stroke="none" stroke-width="1" fill="none" fill-rule="evenodd">
        <g id="Desktop" transform="translate(-557.000000, -1048.000000)">
            <g id="Icons-/-msm" transform="translate(557.000000, 1048.000000)">
                <g id="MoneySuperMarket_2019_logo">
                    <path d="M19.2120572,9.95177868 C10.2095192,30.4539727 -8.43434064,50.6249527 4.37988703,71.8616176 L4.37988703,71.8616176 C17.1942974,93.0988369 44.6128454,99.8117827 65.6183413,86.8574967 L65.6183413,86.8574967 C86.6231061,73.9017328 93.2641909,46.1835835 80.4495977,24.945995 L80.4495977,24.945995 C72.0120254,10.963154 52.0355996,0.00446374748 36.8063823,0.00261626962 L36.8063823,0.00261626962 C28.9067328,0.00261626962 22.2870261,2.94899754 19.2120572,9.95177868" id="Shape-1" fill="url(#linearGradient-1)" fill-rule="nonzero"></path>
                    <path d="M82.68573,39.6226336 C77.9231331,18.1379206 49.4198862,-5.11427404 35.4694752,7.90847743 C35.1702717,8.18766046 34.8772787,8.48199437 34.5919576,8.79498975 C30.5930786,13.1808053 25.888386,17.2970457 21.3630695,21.4814652 C10.5062553,31.5204135 0.682040391,41.9516223 4.11539188,57.4410141 C8.9797327,79.388199 30.5121584,93.190298 52.208799,88.2708751 C73.9043438,83.3501587 87.5502538,61.5698183 82.68573,39.6226336" id="Shape-2" fill-opacity="0.4" fill="url(#linearGradient-2)" fill-rule="nonzero" opacity="0.4"></path>
                    <path d="M35.5198196,7.8612932 C30.4726144,8.44001879 26.3789363,10.8085736 24.2954555,15.4808758 C23.4090351,17.4694393 22.3548149,19.5602169 21.2979491,21.5417621 C25.8130783,17.3699412 30.6313141,13.1604963 34.5833044,8.75352161 C34.8687277,8.44065577 35.2205088,8.14017597 35.5198196,7.8612932 Z" id="Fill-1" fill-opacity="0.12" fill="url(#linearGradient-3)" fill-rule="nonzero"></path>
                    <path d="M12.3294197,64.2223811 C22.3411644,81.0225746 43.9332031,86.4375179 60.554271,76.3183212 C77.1751556,66.1985702 82.5318685,44.3762705 72.520124,27.5753382 C65.4097568,15.6448811 47.7030936,6.43177638 35.4611365,7.86737622 C35.1618257,8.14625899 34.8687277,8.44065577 34.5833044,8.75352161 C30.582992,13.1375218 25.8766131,17.2520585 21.3496746,21.4347459 C13.8362065,35.5207268 3.55256041,49.4949701 12.3294197,64.2223811" id="Fill-4" fill-opacity="0.2" fill="url(#linearGradient-4)" fill-rule="nonzero"></path>
                    <path d="M41.9970448,11.8134021 C38.2173911,11.8244822 34.880844,13.2118829 32.5598789,16.4280379 L32.5598789,16.4280379 C24.7915348,27.1976141 12.2794831,36.7626096 12.2635861,49.4940845 L12.2635861,49.4940845 L12.2635861,49.5393278 C12.2661443,51.7241195 12.6367093,54.0019829 13.4624408,56.3954476 L13.4624408,56.3954476 C17.9254836,69.3309794 29.9255416,77.4413557 42.7557164,77.4550209 L42.7557164,77.4550209 L42.81364,77.4550209 C46.1976955,77.4524357 49.6351062,76.8864323 53.010574,75.6969939 L53.010574,75.6969939 C69.2043389,69.9902395 77.7543778,52.0967766 72.1081946,35.7288455 L72.1081946,35.7288455 C67.9113811,23.5659591 53.13976,11.8460881 42.0898688,11.8134021 L42.0898688,11.8134021 L41.9970448,11.8134021 Z" id="Shape-4" fill-opacity="0.4" fill="url(#linearGradient-5)" fill-rule="nonzero" opacity="0.75" style="mix-blend-mode: multiply;"></path>
                    <g id="Type" transform="translate(22.364710, 30.117768)">
                        <path d="M0.00504136375,9.00761876 L0.812572855,0.462669796 C0.839423596,0.149815479 1.01441006,3.69367552e-05 1.31049885,3.69367552e-05 L2.0235961,3.69367552e-05 C2.29283415,3.69367552e-05 2.46782062,0.109000365 2.5755889,0.381039567 L5.50907808,7.46994163 L8.4294159,0.381039567 C8.55051822,0.109000365 8.71198799,3.69367552e-05 8.99456008,3.69367552e-05 L9.69432329,3.69367552e-05 C10.0039288,3.69367552e-05 10.1787326,0.149815479 10.205766,0.462669796 L10.9995981,9.00761876 C11.0266315,9.34780629 10.8516451,9.52454863 10.5288882,9.52454863 L10.0846637,9.52454863 C9.77505817,9.52454863 9.58673766,9.37495477 9.55988692,9.06191577 L8.98104338,2.19075589 L6.18199055,9.02128535 C6.07440492,9.27965796 5.89941846,9.40228798 5.61684636,9.40228798 L5.38815841,9.40228798 C5.10540367,9.40228798 4.9439339,9.27965796 4.83634827,9.02128535 L2.0371128,2.19075589 L1.44511788,9.06191577 C1.41826714,9.37495477 1.24328067,9.52454863 0.933492521,9.52454863 L0.489633321,9.52454863 C0.166693788,9.52454863 -0.021809378,9.34780629 0.00504136375,9.00761876" id="Fill-1" fill="#000000" fill-rule="nonzero"></path>
                        <path d="M18.0900753,6.12300592 C18.0900753,4.83040415 17.1210741,3.78269311 15.8965341,3.78269311 C14.6988449,3.78269311 13.7165096,4.83040415 13.7165096,6.12300592 C13.7165096,7.41560769 14.6988449,8.44965211 15.8965341,8.44965211 C17.1210741,8.44965211 18.0900753,7.41560769 18.0900753,6.12300592 M12.3440166,6.10933933 C12.3440166,4.15002913 13.9318635,2.55805498 15.8965341,2.55805498 C17.8749041,2.55805498 19.4760851,4.16369574 19.4760851,6.10933933 C19.4760851,8.08231611 17.8749041,9.67429024 15.8965341,9.67429024 C13.9318635,9.67429024 12.3440166,8.09598269 12.3440166,6.10933933" id="Fill-3" fill="#000000" fill-rule="nonzero"></path>
                        <path d="M20.9272489,9.03484116 L20.9272489,3.19772571 C20.9272489,2.88468671 21.1155694,2.70775965 21.4249922,2.70775965 L21.8286666,2.70775965 C22.1382721,2.70775965 22.3132586,2.88468671 22.3132586,3.19772571 L22.3132586,4.04117652 C22.6091647,3.08876229 23.4705804,2.55816579 24.560684,2.55816579 C26.054462,2.55816579 27.1445655,3.53772854 27.1445655,5.67396577 L27.1445655,9.03484116 C27.1445655,9.34769547 26.9560624,9.5246225 26.6464569,9.5246225 L26.2427825,9.5246225 C25.933177,9.5246225 25.7583732,9.34769547 25.7583732,9.03484116 L25.7583732,5.68744771 C25.7583732,4.28625189 25.1258281,3.78280392 24.4125482,3.78280392 C23.712785,3.78280392 22.3132586,4.25891869 22.3132586,6.3270076 L22.3132586,9.03484116 C22.3132586,9.34769547 22.1382721,9.5246225 21.8286666,9.5246225 L21.4249922,9.5246225 C21.1155694,9.5246225 20.9272489,9.34769547 20.9272489,9.03484116" id="Fill-5" fill="#000000" fill-rule="nonzero"></path>
                        <path d="M34.3305912,5.22492567 C33.9804356,4.01395413 33.0386504,3.75539684 32.2983371,3.75539684 C31.5180217,3.75539684 30.5490204,4.06843584 30.1318293,5.22492567 L34.3305912,5.22492567 Z M28.6380513,6.13670944 C28.6380513,4.15006607 30.1720141,2.55809192 32.271669,2.55809192 C33.9672842,2.55809192 35.514581,3.57846979 35.7030842,5.75570681 C35.7434517,6.08222775 35.5551311,6.25915478 35.2323743,6.25915478 L30.010727,6.25915478 C29.9701769,7.52442333 31.006579,8.44968905 32.4733236,8.44968905 C33.1327193,8.44968905 33.7248969,8.27276202 34.3037405,7.87827749 C34.5592791,7.71501699 34.7746331,7.72868362 34.9898043,7.94624108 L35.0840559,8.05520452 C35.2994098,8.2864286 35.2994098,8.57231907 34.9898043,8.83069168 C34.2093062,9.47025162 33.3077058,9.67432718 32.4598069,9.67432718 C30.0914619,9.67432718 28.6380513,8.08235304 28.6380513,6.13670944 L28.6380513,6.13670944 Z" id="Fill-7" fill="#000000" fill-rule="nonzero"></path>
                        <path d="M37.9225811,12.0010657 L38.9586179,9.26608369 L36.3747363,3.27918972 C36.2269659,2.93918689 36.3884357,2.70777812 36.7517427,2.70777812 L37.2900361,2.70777812 C37.5726082,2.70777812 37.7475947,2.83022346 37.8418462,3.08878075 L39.7124479,7.70144273 L41.4349139,3.10226267 C41.5289828,2.83022346 41.7310026,2.70777812 42.0133921,2.70777812 L42.5652022,2.70777812 C42.9286919,2.70777812 43.0901616,2.92552029 42.9418432,3.27918972 L39.1873059,12.1914747 C39.0799029,12.4636986 38.9049164,12.5724773 38.6223443,12.5724773 L38.2992221,12.5724773 C37.9357325,12.5724773 37.7879621,12.3412533 37.9225811,12.0010657" id="Fill-9" fill="#000000" fill-rule="nonzero"></path>
                        <g id="Group-13" transform="translate(0.000000, 10.623631)">
                            <g id="Fill-11-Clipped">
                                <mask id="mask-7" fill="white">
                                    <use xlink:href="#path-6"></use>
                                </mask>
                                <g id="path-6"></g>
                                <path d="M0.0479477531,7.90934879 C-0.0866712717,7.60997638 0.0747984948,7.3787523 0.370887286,7.29712207 L0.761410319,7.20182522 C1.05731645,7.13386163 1.21878622,7.24264033 1.36673929,7.52834616 C1.70319552,8.11342435 2.41647543,8.57605721 3.35844328,8.57605721 C4.56964919,8.57605721 5.30977984,7.97731243 5.30977984,7.16101011 C5.30977984,6.43981999 4.71760226,5.99085372 3.95062087,5.70514789 L2.55109445,5.22884845 C0.774744361,4.63010365 0.344036544,3.55524407 0.344036544,2.67079347 C0.344036544,1.02452229 1.77059636,0.0176263393 3.39881072,0.0176263393 C4.87907202,0.0176263393 5.92899082,0.738631802 6.35951598,1.81367606 C6.48061831,2.11304847 6.33248258,2.34427255 6.03639379,2.42590278 L5.70012021,2.53468152 C5.40384876,2.61649644 5.21571091,2.50753301 5.08109189,2.22182721 C4.77166906,1.59593389 4.19282552,1.29656149 3.41232742,1.29656149 C2.52406105,1.29656149 1.78411306,1.78634286 1.78411306,2.62997836 C1.78411306,3.02464759 1.90503273,3.54176216 2.98180227,3.9499133 L4.38114602,4.48050979 C5.96917561,4.98395778 6.69578956,6.04533541 6.69578956,7.06589799 C6.69578956,8.78013277 5.35014728,9.84151045 3.38529402,9.84151045 C1.71671222,9.84151045 0.532539711,9.02520817 0.0479477531,7.90934879" id="Fill-11" fill="#000000" fill-rule="nonzero" mask="url(#mask-7)"></path>
                            </g>
                        </g>
                        <path d="M8.13467879,17.3491385 L8.13467879,13.9884479 C8.13467879,13.6754089 8.30966526,13.4984818 8.61927075,13.4984818 L9.02294517,13.4984818 C9.332368,13.4984818 9.52087117,13.6754089 9.52087117,13.9884479 L9.52087117,17.3356566 C9.52087117,18.7233705 10.1398995,19.2404851 10.8529967,19.2404851 C11.5527599,19.2404851 12.952469,18.7507037 12.952469,16.6960967 L12.952469,13.9884479 C12.952469,13.6754089 13.1274555,13.4984818 13.4368783,13.4984818 L13.8405527,13.4984818 C14.1501582,13.4984818 14.3384787,13.6754089 14.3384787,13.9884479 L14.3384787,19.8255633 C14.3384787,20.1386023 14.1501582,20.3155293 13.8405527,20.3155293 L13.4368783,20.3155293 C13.1274555,20.3155293 12.952469,20.1386023 12.952469,19.8255633 L12.952469,18.9821125 C12.6563802,19.9345267 11.7951473,20.4651232 10.7050437,20.4651232 C9.21144833,20.4651232 8.13467879,19.4853758 8.13467879,17.3491385" id="Fill-14" fill="#000000" fill-rule="nonzero"></path>
                        <path d="M21.6397799,16.9002277 C21.6397799,15.6347744 20.8592818,14.5599148 19.4866062,14.5599148 C18.167632,14.5599148 17.2526975,15.5531442 17.2391808,16.9002277 C17.2526975,18.2473111 18.167632,19.2405405 19.4866062,19.2405405 C20.8592818,19.2405405 21.6397799,18.1793475 21.6397799,16.9002277 M15.8802045,22.873455 L15.8802045,13.9883186 C15.8802045,13.6754642 16.068525,13.4985372 16.3777652,13.4985372 L16.7816222,13.4985372 C17.0912277,13.4985372 17.2662142,13.6754642 17.2662142,13.9883186 L17.2662142,14.5735815 C17.8987592,13.6617977 18.7868429,13.3489433 19.6884434,13.3489433 C21.6936641,13.3489433 23.0259723,14.9409175 23.0259723,16.9002277 C23.0259723,18.8595379 21.6936641,20.4651786 19.6884434,20.4651786 C18.7868429,20.4651786 17.8987592,20.1521396 17.2662142,19.2405405 L17.2662142,22.873455 C17.2662142,23.186494 17.0912277,23.3632364 16.7816222,23.3632364 L16.3777652,23.3632364 C16.068525,23.3632364 15.8802045,23.186494 15.8802045,22.873455" id="Fill-16" fill="#000000" fill-rule="nonzero"></path>
                        <path d="M29.9887167,16.0158509 C29.6387437,14.8046948 28.6969585,14.5463221 27.9566452,14.5463221 C27.1763298,14.5463221 26.2073285,14.8591764 25.7899548,16.0158509 L29.9887167,16.0158509 Z M24.2963594,16.9274501 C24.2963594,14.9408067 25.8303222,13.3490172 27.9297945,13.3490172 C29.6254097,13.3490172 31.1728892,14.3693951 31.3613923,16.5464474 C31.4015771,16.8729683 31.2134393,17.0498954 30.8903171,17.0498954 L25.6690351,17.0498954 C25.628485,18.3153487 26.6647044,19.2404297 28.1316317,19.2404297 C28.7910275,19.2404297 29.383205,19.0636873 29.9620486,18.6692028 C30.2175873,18.5057576 30.4327585,18.5194242 30.6481124,18.7371664 L30.742364,18.8459451 C30.9575353,19.0773539 30.9575353,19.3630597 30.6481124,19.621617 C29.8676143,20.2609922 28.9660139,20.4650678 28.118115,20.4650678 C25.74977,20.4650678 24.2963594,18.8730936 24.2963594,16.9274501 L24.2963594,16.9274501 Z" id="Fill-18" fill="#000000" fill-rule="nonzero"></path>
                        <path d="M32.7678232,19.8255817 L32.7678232,13.9884663 C32.7678232,13.6754273 32.9561437,13.4985003 33.2657492,13.4985003 L33.6694236,13.4985003 C33.9790291,13.4985003 34.1540156,13.6754273 34.1540156,13.9884663 L34.1540156,15.0225108 C34.3827035,13.9339846 35.1498676,13.3489064 35.9572164,13.3489064 L36.2531226,13.3623883 C36.5358773,13.4033881 36.5764274,13.6346122 36.5764274,13.9068361 L36.5764274,14.3013207 C36.5764274,14.6415082 36.4416257,14.7776201 36.2129378,14.7231384 C36.0916528,14.6959899 35.9705505,14.6823233 35.8494481,14.6823233 C35.3650388,14.6823233 34.1540156,14.9273987 34.1540156,17.716493 L34.1540156,19.8255817 C34.1540156,20.1384361 33.9790291,20.3153631 33.6694236,20.3153631 L33.2657492,20.3153631 C32.9561437,20.3153631 32.7678232,20.1384361 32.7678232,19.8255817" id="Fill-20" fill="#000000" fill-rule="nonzero"></path>
                        <path d="M0.00255721352,31.2110595 L0.810088704,22.6661106 C0.836939446,22.3532563 1.01192591,22.2036624 1.3080147,22.2036624 L2.02111195,22.2036624 C2.29035,22.2036624 2.46533647,22.3124412 2.57292209,22.5844804 L5.50659395,29.6735671 L8.42693176,22.5844804 C8.54785143,22.3124412 8.70950386,22.2036624 8.99207595,22.2036624 L9.69183915,22.2036624 C10.0014446,22.2036624 10.1762485,22.3532563 10.2030992,22.6661106 L10.997114,31.2110595 C11.0241474,31.5512471 10.8491609,31.7281741 10.5262214,31.7281741 L10.0821795,31.7281741 C9.77257404,31.7281741 9.58425353,31.5783955 9.55740279,31.2655412 L8.97855925,24.3941967 L6.17950642,31.2247261 C6.07192079,31.4832834 5.89693432,31.6057288 5.61436223,31.6057288 L5.38549163,31.6057288 C5.10273688,31.6057288 4.94144977,31.4832834 4.83386414,31.2247261 L2.03462865,24.3941967 L1.44263373,31.2655412 C1.41560033,31.5783955 1.24061386,31.7281741 0.931008371,31.7281741 L0.487149171,31.7281741 C0.164209638,31.7281741 -0.0242935282,31.5512471 0.00255721352,31.2110595" id="Fill-22" fill="#000000" fill-rule="nonzero"></path>
                        <path d="M17.9520041,28.3129279 C17.9384874,26.9658444 17.0370696,25.9724304 15.7047614,25.9724304 C14.3454197,25.9724304 13.564739,27.0474746 13.564739,28.3129279 C13.564739,29.591863 14.3454197,30.6532406 15.7047614,30.6532406 C17.0370696,30.6532406 17.9384874,29.6600113 17.9520041,28.3129279 M12.1787293,28.3129279 C12.1787293,26.3536177 13.5112202,24.7616435 15.5162582,24.7616435 C16.4178586,24.7616435 17.2926083,25.0744978 17.9251533,25.9860969 L17.9251533,25.4010187 C17.9251533,25.0881644 18.1134738,24.9112374 18.4230793,24.9112374 L18.8265711,24.9112374 C19.1361766,24.9112374 19.311163,25.0881644 19.311163,25.4010187 L19.311163,31.2383189 C19.311163,31.5511732 19.1361766,31.7281002 18.8265711,31.7281002 L18.4230793,31.7281002 C18.1134738,31.7281002 17.9251533,31.5511732 17.9251533,31.2383189 L17.9251533,30.6532406 C17.2926083,31.5648398 16.4178586,31.8778788 15.5162582,31.8778788 C13.5112202,31.8778788 12.1787293,30.2722381 12.1787293,28.3129279" id="Fill-24" fill="#000000" fill-rule="nonzero"></path>
                        <path d="M20.914682,31.2382819 L20.914682,25.4011665 C20.914682,25.0881275 21.1030025,24.9112004 21.412608,24.9112004 L21.8162824,24.9112004 C22.1257053,24.9112004 22.3006917,25.0881275 22.3006917,25.4011665 L22.3006917,26.435211 C22.5295623,25.3466848 23.2965437,24.7616066 24.1038926,24.7616066 L24.3999814,24.7752732 C24.6827361,24.8160883 24.7231035,25.0474971 24.7231035,25.3193516 L24.7231035,25.7140208 C24.7231035,26.0542083 24.5884845,26.1903202 24.3596139,26.1358385 C24.2383289,26.10869 24.1174093,26.0950234 23.9963069,26.0950234 C23.5118976,26.0950234 22.3006917,26.3399141 22.3006917,29.1291932 L22.3006917,31.2382819 C22.3006917,31.5511362 22.1257053,31.7280633 21.8162824,31.7280633 L21.412608,31.7280633 C21.1030025,31.7280633 20.914682,31.5511362 20.914682,31.2382819" id="Fill-26" fill="#000000" fill-rule="nonzero"></path>
                        <path d="M28.7199187,30.4082946 L27.4011271,28.2449088 L27.4011271,31.2382634 C27.4011271,31.5511178 27.2261407,31.7280448 26.9169005,31.7280448 L26.5130434,31.7280448 C26.2036206,31.7280448 26.0151174,31.5511178 26.0151174,31.2382634 L26.0151174,22.3804602 C26.0151174,22.0676059 26.2036206,21.8906788 26.5130434,21.8906788 L26.9169005,21.8906788 C27.2261407,21.8906788 27.4011271,22.0676059 27.4011271,22.3804602 L27.4011271,27.7686094 L29.460232,25.1968878 C29.6080024,24.9929969 29.7966882,24.911182 30.0524096,24.911182 L30.5638523,24.911182 C30.9943774,24.911182 31.1154797,25.1834059 30.8464244,25.5101114 L28.7739855,28.0408332 L29.8907571,29.7687346 C30.2810975,30.3266643 30.469418,30.6666672 31.0615956,30.6666672 C31.1691812,30.6666672 31.4250852,30.6531853 31.6671072,30.5442218 C31.8556104,30.4762582 31.963196,30.5035914 32.0574476,30.6666672 L32.2728015,31.1023362 C32.3400197,31.2655967 32.2728015,31.4970054 31.9361626,31.6600812 C31.4787867,31.8778234 31.0214108,31.8778234 30.8866091,31.8778234 C29.594851,31.8778234 29.1372924,31.0205213 28.7199187,30.4082946" id="Fill-28" fill="#000000" fill-rule="nonzero"></path>
                        <path d="M38.2682616,27.4284588 C37.9182887,26.2174873 36.9765035,25.95893 36.2361901,25.95893 C35.4558747,25.95893 34.4868735,26.2717843 34.0694997,27.4284588 L38.2682616,27.4284588 Z M32.5759043,28.3402426 C32.5759043,26.3535992 34.1098671,24.761625 36.2095221,24.761625 C37.9051373,24.761625 39.4524341,25.7820029 39.6409373,27.9590553 C39.6813047,28.2857608 39.4929842,28.4626879 39.169862,28.4626879 L33.94858,28.4626879 C33.9080299,29.7279565 34.944432,30.6532222 36.4111766,30.6532222 C37.0705724,30.6532222 37.66275,30.4762951 38.2415935,30.0816259 C38.4971322,29.9183654 38.7123034,29.9322167 38.9276574,30.1497742 L39.0219089,30.258553 C39.2372628,30.4899617 39.2372628,30.7756675 38.9276574,31.0340401 C38.1471593,31.6736001 37.2455588,31.8778603 36.3976599,31.8778603 C34.0293149,31.8778603 32.5759043,30.2858861 32.5759043,28.3402426 L32.5759043,28.3402426 Z" id="Fill-30" fill="#000000" fill-rule="nonzero"></path>
                        <g id="Group-34" transform="translate(40.277881, 22.950389)">
                            <g id="Fill-32-Clipped">
                                <mask id="mask-9" fill="white">
                                    <use xlink:href="#path-8"></use>
                                </mask>
                                <g id="path-8"></g>
                                <path d="M5.2237508,6.67588029 C5.19690006,6.49858383 5.07543242,6.43025086 4.91341468,6.43025086 L4.29237711,6.43025086 C4.10332597,6.43025086 4.02240843,6.55306557 4.04944183,6.74421326 C4.07647522,6.85336139 4.07647522,6.94902758 4.07647522,7.00350928 C4.07647522,7.49495283 3.69819029,7.74076691 3.27990322,7.74076691 C2.8479168,7.74076691 2.49703057,7.45395303 2.49703057,6.71706473 L2.49703057,3.05884852 L4.34644391,3.05884852 C4.52197835,3.05884852 4.61641259,2.9497004 4.61641259,2.7722193 L4.61641259,2.23996065 C4.61641259,2.06266423 4.52197835,1.96699803 4.34644391,1.96699803 L2.49703057,1.96699803 L2.49703057,1.96330435 C2.49703057,1.96238094 2.49721323,1.96145752 2.49721323,1.96034942 L2.49721323,0.492852129 C2.49721323,0.491744028 2.49703057,0.490820608 2.49703057,0.489712507 L2.49703057,0.424519133 C2.49703057,0.165223111 2.34852953,0.00140860138 2.09189489,0.00140860138 L2.01134267,0.00140860138 L1.80840951,0.00140860138 L1.60620699,0.00140860138 C1.2956882,0.00140860138 1.10681972,0.17888971 1.10681972,0.492852129 L1.10681972,1.96034942 C1.10681972,1.96256562 1.1073677,1.96459714 1.1073677,1.96699803 L0.282849002,1.96699803 C0.107314561,1.96699803 0.0130629779,2.06266423 0.0130629779,2.23996065 L0.0130629779,2.7722193 C0.0130629779,2.9497004 0.107314561,3.05884852 0.282849002,3.05884852 L1.10645441,3.05884852 L1.10645441,6.63488049 C1.10645441,8.39584029 2.17281243,8.95543212 3.25305248,8.95543212 C4.54901175,8.95543212 5.27800026,8.20450791 5.27800026,7.18099038 C5.27800026,7.16732379 5.27800026,6.90802778 5.2237508,6.67588029" id="Fill-32" fill="#000000" fill-rule="nonzero" mask="url(#mask-9)"></path>
                            </g>
                        </g>
                    </g>
                </g>
            </g>
        </g>
    </g>
</svg>