<?xml version="1.0" encoding="UTF-8"?>
<svg width="97px" height="44px" viewBox="0 0 97 44" version="1.1" xmlns="http://www.w3.org/2000/svg" xmlns:xlink="http://www.w3.org/1999/xlink">
    <!-- Generator: Sketch 58 (84663) - https://sketch.com -->
    <title>Icons / netmag</title>
    <desc>Created with Sketch.</desc>
    <g id="Page-1" stroke="none" stroke-width="1" fill="none" fill-rule="evenodd">
        <g id="Desktop" transform="translate(-88.000000, -1070.000000)">
            <g id="Icons-/-netmag" transform="translate(88.000000, 1070.000000)">
                <g id="netmag">
                    <path d="M0.91000005,4.94000027 L1.69000009,4.81000026 L1.69000009,0.780000043 L0.650000036,0.780000043 L0.390000021,1.30000007 L0,1.30000007 L0.130000007,0.390000021 L3.77000021,0.390000021 L3.77000021,1.30000007 L3.51000019,1.30000007 L3.38000019,0.780000043 L2.34000013,0.780000043 L2.34000013,4.81000026 L3.12000017,4.94000027 L3.12000017,5.20000029 L0.91000005,5.20000029 C0.91000005,5.20000029 0.91000005,4.94000027 0.91000005,4.94000027 Z M4.03000022,4.94000027 L4.42000024,4.81000026 L4.42000024,0.780000043 L3.90000021,0.650000036 L3.90000021,0.390000021 L4.81000026,0.260000014 L4.94000027,0.390000021 L4.94000027,1.69000009 L4.94000027,2.21000012 C5.20000029,2.08000011 5.20000029,2.08000011 5.33000029,1.95000011 C5.4600003,1.95000011 5.59000031,1.8200001 5.59000031,1.8200001 C5.72000031,1.8200001 5.85000032,1.69000009 5.85000032,1.69000009 C5.98000033,1.69000009 5.98000033,1.69000009 6.11000034,1.69000009 C6.37000035,1.69000009 6.50000036,1.69000009 6.63000036,1.8200001 C6.76000037,1.95000011 6.89000038,1.95000011 6.89000038,2.08000011 C7.02000039,2.21000012 7.02000039,2.34000013 7.02000039,2.60000014 C7.02000039,2.86000016 7.02000039,2.99000016 7.02000039,3.38000019 L7.02000039,4.94000027 L7.41000041,5.07000028 L7.41000041,5.20000029 L6.11000034,5.20000029 L6.11000034,4.94000027 L6.63000036,4.81000026 L6.63000036,3.51000019 C6.63000036,3.25000018 6.63000036,3.12000017 6.63000036,2.86000016 C6.63000036,2.60000014 6.63000036,2.60000014 6.50000036,2.47000014 C6.50000036,2.34000013 6.37000035,2.21000012 6.24000034,2.21000012 C6.11000034,2.21000012 5.98000033,2.08000011 5.85000032,2.08000011 C5.72000031,2.08000011 5.72000031,2.08000011 5.59000031,2.08000011 L5.33000029,2.08000011 C5.20000029,2.08000011 5.20000029,2.08000011 5.07000028,2.21000012 C4.94000027,2.21000012 4.94000027,2.34000013 4.81000026,2.34000013 L4.81000026,4.81000026 L5.20000029,4.94000027 L5.20000029,5.20000029 L4.03000022,5.20000029 C4.03000022,5.20000029 4.03000022,4.94000027 4.03000022,4.94000027 Z M7.80000043,3.51000019 C7.80000043,3.25000018 7.80000043,2.99000016 7.93000044,2.73000015 C8.06000044,2.47000014 8.06000044,2.34000013 8.32000046,2.21000012 C8.45000046,2.08000011 8.58000047,1.95000011 8.84000049,1.8200001 C9.1000005,1.69000009 9.23000051,1.69000009 9.49000052,1.69000009 C9.62000053,1.69000009 9.88000054,1.69000009 10.0100006,1.8200001 C10.1400006,1.8200001 10.2700006,1.95000011 10.4000006,2.08000011 C10.5300006,2.21000012 10.5300006,2.34000013 10.6600006,2.47000014 C10.6600006,2.60000014 10.7900006,2.86000016 10.7900006,2.99000016 C10.7900006,3.12000017 10.7900006,3.25000018 10.7900006,3.25000018 C10.7900006,3.38000019 10.7900006,3.38000019 10.7900006,3.51000019 L8.45000046,3.51000019 L8.45000046,3.6400002 C8.45000046,3.90000021 8.45000046,4.03000022 8.58000047,4.29000024 C8.71000048,4.55000025 8.71000048,4.55000025 8.84000049,4.68000026 C8.97000049,4.81000026 9.1000005,4.81000026 9.23000051,4.81000026 C9.36000051,4.81000026 9.49000052,4.81000026 9.62000053,4.81000026 C9.75000054,4.81000026 9.75000054,4.81000026 9.88000054,4.81000026 L10.1400006,4.81000026 C10.2700006,4.81000026 10.2700006,4.81000026 10.4000006,4.81000026 C10.5300006,4.81000026 10.5300006,4.81000026 10.5300006,4.68000026 L10.6600006,4.94000027 C10.6600006,4.94000027 10.5300006,5.07000028 10.4000006,5.07000028 C10.2700006,5.07000028 10.2700006,5.20000029 10.1400006,5.20000029 C10.0100006,5.20000029 9.88000054,5.20000029 9.75000054,5.33000029 C9.62000053,5.33000029 9.49000052,5.33000029 9.36000051,5.33000029 C9.1000005,5.33000029 8.84000049,5.33000029 8.71000048,5.20000029 C8.58000047,5.07000028 8.32000046,4.94000027 8.19000045,4.81000026 C8.06000044,4.68000026 7.93000044,4.42000024 7.93000044,4.29000024 C7.93000044,4.03000022 7.80000043,3.77000021 7.80000043,3.51000019 Z M10.0100006,3.12000017 C10.0100006,2.99000016 10.0100006,2.86000016 10.0100006,2.86000016 C10.0100006,2.73000015 10.0100006,2.60000014 10.0100006,2.60000014 C10.0100006,2.47000014 10.0100006,2.47000014 9.88000054,2.34000013 C9.88000054,2.21000012 9.75000054,2.21000012 9.75000054,2.21000012 C9.75000054,2.21000012 9.62000053,2.21000012 9.62000053,2.08000011 C9.49000052,2.08000011 9.49000052,2.08000011 9.36000051,2.08000011 C9.23000051,2.08000011 9.1000005,2.08000011 9.1000005,2.21000012 C8.97000049,2.21000012 8.84000049,2.34000013 8.84000049,2.47000014 C8.71000048,2.60000014 8.71000048,2.73000015 8.58000047,2.86000016 C8.58000047,2.99000016 8.45000046,3.12000017 8.45000046,3.38000019 L10.0100006,3.38000019 L10.0100006,3.12000017 Z M12.6100007,2.21000012 L12.3500007,2.21000012 L12.3500007,1.95000011 L13.6500008,1.95000011 L13.6500008,2.21000012 L13.2600007,2.34000013 L13.9100008,3.90000021 L14.1700008,4.81000026 L14.4300008,4.03000022 L14.9500008,2.34000013 L14.5600008,2.34000013 L14.5600008,2.08000011 L15.7300009,2.08000011 L15.7300009,2.34000013 L15.6000009,2.21000012 L14.3000008,5.20000029 L13.9100008,5.20000029 C13.9100008,5.20000029 12.6100007,2.21000012 12.6100007,2.21000012 Z M15.9900009,3.38000019 C15.9900009,3.12000017 15.9900009,2.86000016 16.1200009,2.60000014 C16.2500009,2.34000013 16.3800009,2.21000012 16.5100009,2.08000011 C16.6400009,1.95000011 16.7700009,1.8200001 17.0300009,1.69000009 C17.1600009,1.56000009 17.420001,1.56000009 17.680001,1.56000009 C17.940001,1.56000009 18.200001,1.56000009 18.330001,1.69000009 C18.460001,1.8200001 18.720001,1.95000011 18.850001,2.08000011 C18.980001,2.21000012 19.1100011,2.47000014 19.1100011,2.60000014 C19.1100011,2.86000016 19.2400011,2.99000016 19.2400011,3.25000018 C19.2400011,3.51000019 19.2400011,3.77000021 19.1100011,4.03000022 C18.980001,4.29000024 18.980001,4.42000024 18.720001,4.55000025 C18.590001,4.68000026 18.460001,4.81000026 18.200001,4.94000027 C17.940001,5.20000029 17.680001,5.20000029 17.550001,5.20000029 C17.290001,5.20000029 17.0300009,5.20000029 16.9000009,5.07000028 C16.7700009,4.94000027 16.5100009,4.81000026 16.3800009,4.68000026 C16.2500009,4.55000025 16.1200009,4.29000024 16.1200009,4.16000023 C15.9900009,3.90000021 15.9900009,3.6400002 15.9900009,3.38000019 Z M17.550001,4.94000027 C17.680001,4.94000027 17.810001,4.94000027 17.940001,4.81000026 C18.070001,4.68000026 18.200001,4.68000026 18.200001,4.55000025 C18.330001,4.42000024 18.330001,4.29000024 18.330001,4.16000023 C18.330001,4.03000022 18.330001,3.77000021 18.330001,3.51000019 C18.330001,3.25000018 18.330001,3.12000017 18.330001,2.99000016 C18.330001,2.86000016 18.200001,2.73000015 18.200001,2.47000014 C18.070001,2.34000013 18.070001,2.21000012 17.940001,2.21000012 C17.810001,2.08000011 17.680001,2.08000011 17.550001,2.08000011 C17.420001,2.08000011 17.290001,2.08000011 17.1600009,2.21000012 C17.0300009,2.34000013 16.9000009,2.34000013 16.9000009,2.47000014 C16.7700009,2.60000014 16.7700009,2.73000015 16.7700009,2.86000016 C16.7700009,2.99000016 16.7700009,3.25000018 16.7700009,3.38000019 C16.7700009,3.51000019 16.7700009,3.77000021 16.7700009,3.90000021 C16.7700009,4.03000022 16.9000009,4.29000024 16.9000009,4.42000024 C17.0300009,4.55000025 17.0300009,4.68000026 17.1600009,4.81000026 C17.290001,4.81000026 17.420001,4.94000027 17.550001,4.94000027 Z M19.2400011,4.94000027 L19.7600011,4.81000026 L19.7600011,2.34000013 L19.3700011,2.08000011 L19.3700011,1.95000011 L20.1500011,1.69000009 L20.2800011,1.69000009 L20.2800011,4.81000026 L20.8000011,4.94000027 L20.8000011,5.20000029 L19.2400011,5.20000029 L19.2400011,4.94000027 Z M19.8900011,1.04000006 C19.8900011,1.04000006 19.7600011,1.04000006 19.7600011,1.04000006 C19.7600011,1.04000006 19.6300011,1.04000006 19.6300011,0.91000005 C19.6300011,0.91000005 19.5000011,0.780000043 19.5000011,0.780000043 C19.5000011,0.780000043 19.5000011,0.650000036 19.5000011,0.650000036 C19.5000011,0.650000036 19.5000011,0.520000029 19.5000011,0.520000029 C19.5000011,0.520000029 19.6300011,0.390000021 19.6300011,0.390000021 C19.6300011,0.390000021 19.7600011,0.260000014 19.7600011,0.260000014 C19.7600011,0.260000014 19.8900011,0.260000014 19.8900011,0.260000014 C20.0200011,0.260000014 20.1500011,0.260000014 20.1500011,0.390000021 C20.2800011,0.520000029 20.2800011,0.520000029 20.2800011,0.650000036 C20.2800011,0.780000043 20.2800011,0.780000043 20.2800011,0.780000043 C20.2800011,0.780000043 20.2800011,0.91000005 20.1500011,0.91000005 C20.1500011,0.91000005 20.0200011,1.04000006 20.0200011,1.04000006 C20.0200011,1.04000006 19.8900011,1.04000006 19.8900011,1.04000006 Z M20.9300012,3.51000019 C20.9300012,3.25000018 20.9300012,2.99000016 21.0600012,2.73000015 C21.1900012,2.47000014 21.3200012,2.34000013 21.4500012,2.21000012 C21.5800012,2.08000011 21.7100012,1.95000011 21.9700012,1.8200001 C22.2300012,1.69000009 22.3600012,1.69000009 22.6200012,1.69000009 L22.8800013,1.69000009 C23.0100013,1.69000009 23.0100013,1.69000009 23.1400013,1.69000009 C23.2700013,1.69000009 23.2700013,1.69000009 23.4000013,1.69000009 C23.5300013,1.69000009 23.5300013,1.69000009 23.5300013,1.8200001 L23.5300013,2.60000014 L23.2700013,2.60000014 L23.1400013,2.21000012 C23.1400013,2.21000012 23.0100013,2.21000012 23.0100013,2.08000011 C23.0100013,2.08000011 22.8800013,2.08000011 22.8800013,2.08000011 C22.8800013,2.08000011 22.7500013,2.08000011 22.7500013,2.08000011 L22.6200012,2.08000011 C22.4900012,2.08000011 22.3600012,2.08000011 22.2300012,2.21000012 C22.1000012,2.21000012 21.9700012,2.34000013 21.9700012,2.47000014 C21.8400012,2.60000014 21.8400012,2.73000015 21.7100012,2.86000016 C21.7100012,2.99000016 21.5800012,3.25000018 21.5800012,3.38000019 C21.5800012,3.6400002 21.5800012,3.90000021 21.7100012,4.03000022 C21.8400012,4.16000023 21.8400012,4.42000024 21.9700012,4.55000025 C22.1000012,4.68000026 22.2300012,4.81000026 22.3600012,4.81000026 C22.4900012,4.81000026 22.6200012,4.94000027 22.7500013,4.94000027 C22.8800013,4.94000027 22.8800013,4.94000027 23.0100013,4.94000027 L23.2700013,4.94000027 C23.4000013,4.94000027 23.4000013,4.94000027 23.5300013,4.94000027 C23.6600013,4.94000027 23.6600013,4.94000027 23.6600013,4.81000026 L23.7900013,5.07000028 C23.7900013,5.07000028 23.6600013,5.20000029 23.5300013,5.20000029 C23.4000013,5.20000029 23.4000013,5.33000029 23.2700013,5.33000029 C23.1400013,5.33000029 23.0100013,5.33000029 23.0100013,5.4600003 C22.8800013,5.4600003 22.7500013,5.4600003 22.6200012,5.4600003 C22.3600012,5.4600003 22.2300012,5.4600003 21.9700012,5.33000029 C21.8400012,5.20000029 21.7100012,5.07000028 21.4500012,4.94000027 C21.3200012,4.81000026 21.1900012,4.68000026 21.1900012,4.42000024 C20.9300012,4.03000022 20.9300012,3.77000021 20.9300012,3.51000019 Z M23.7900013,3.51000019 C23.7900013,3.25000018 23.7900013,2.99000016 23.9200013,2.73000015 C24.0500013,2.47000014 24.0500013,2.34000013 24.3100013,2.21000012 C24.4400013,2.08000011 24.5700014,1.95000011 24.8300014,1.8200001 C25.0900014,1.69000009 25.2200014,1.69000009 25.4800014,1.69000009 C25.6100014,1.69000009 25.8700014,1.69000009 26.0000014,1.8200001 C26.1300014,1.8200001 26.2600014,1.95000011 26.3900015,2.08000011 C26.5200015,2.21000012 26.5200015,2.34000013 26.6500015,2.47000014 C26.6500015,2.60000014 26.7800015,2.86000016 26.7800015,2.99000016 C26.7800015,3.12000017 26.7800015,3.25000018 26.7800015,3.25000018 C26.7800015,3.25000018 26.7800015,3.38000019 26.7800015,3.51000019 L24.5700014,3.51000019 L24.5700014,3.6400002 C24.5700014,3.90000021 24.5700014,4.03000022 24.7000014,4.29000024 C24.8300014,4.55000025 24.8300014,4.55000025 24.9600014,4.68000026 C25.0900014,4.81000026 25.2200014,4.81000026 25.3500014,4.81000026 C25.4800014,4.81000026 25.6100014,4.81000026 25.7400014,4.81000026 C25.8700014,4.81000026 25.8700014,4.81000026 26.0000014,4.81000026 L26.2600014,4.81000026 C26.3900015,4.81000026 26.3900015,4.81000026 26.5200015,4.81000026 C26.6500015,4.81000026 26.6500015,4.81000026 26.6500015,4.68000026 L26.7800015,4.94000027 C26.7800015,4.94000027 26.6500015,5.07000028 26.5200015,5.07000028 C26.3900015,5.07000028 26.3900015,5.20000029 26.2600014,5.20000029 C26.1300014,5.20000029 26.0000014,5.20000029 25.8700014,5.33000029 C25.7400014,5.33000029 25.6100014,5.33000029 25.4800014,5.33000029 C25.2200014,5.33000029 24.9600014,5.33000029 24.8300014,5.20000029 C24.7000014,5.07000028 24.4400013,4.94000027 24.3100013,4.81000026 C24.1800013,4.68000026 24.0500013,4.42000024 24.0500013,4.29000024 C23.7900013,4.03000022 23.7900013,3.77000021 23.7900013,3.51000019 Z M26.0000014,3.12000017 C26.0000014,2.99000016 26.0000014,2.86000016 26.0000014,2.86000016 C26.0000014,2.73000015 26.0000014,2.60000014 26.0000014,2.60000014 C26.0000014,2.60000014 26.0000014,2.47000014 25.8700014,2.34000013 C25.8700014,2.21000012 25.7400014,2.21000012 25.7400014,2.21000012 C25.7400014,2.21000012 25.6100014,2.21000012 25.6100014,2.08000011 C25.4800014,2.08000011 25.4800014,2.08000011 25.3500014,2.08000011 C25.2200014,2.08000011 25.0900014,2.08000011 25.0900014,2.21000012 C24.9600014,2.21000012 24.8300014,2.34000013 24.8300014,2.47000014 C24.8300014,2.60000014 24.7000014,2.73000015 24.5700014,2.86000016 C24.5700014,2.99000016 24.4400013,3.12000017 24.4400013,3.38000019 L26.0000014,3.12000017 L26.0000014,3.12000017 Z M28.6000016,3.38000019 C28.6000016,3.12000017 28.6000016,2.86000016 28.7300016,2.60000014 C28.8600016,2.34000013 28.9900016,2.21000012 29.1200016,2.08000011 C29.2500016,1.95000011 29.3800016,1.8200001 29.6400016,1.69000009 C29.7700016,1.56000009 30.0300017,1.56000009 30.2900017,1.56000009 C30.5500017,1.56000009 30.8100017,1.56000009 30.9400017,1.69000009 C31.0700017,1.8200001 31.3300017,1.95000011 31.4600017,2.08000011 C31.5900017,2.21000012 31.7200017,2.47000014 31.7200017,2.60000014 C31.7200017,2.73000015 31.8500018,2.99000016 31.8500018,3.25000018 C31.8500018,3.51000019 31.8500018,3.77000021 31.7200017,4.03000022 C31.5900017,4.29000024 31.5900017,4.42000024 31.3300017,4.55000025 C31.2000017,4.68000026 31.0700017,4.81000026 30.8100017,4.94000027 C30.5500017,5.20000029 30.2900017,5.20000029 30.1600017,5.20000029 C29.9000016,5.20000029 29.6400016,5.20000029 29.5100016,5.07000028 C29.3800016,4.94000027 29.1200016,4.81000026 28.9900016,4.68000026 C28.8600016,4.55000025 28.7300016,4.29000024 28.7300016,4.16000023 C28.6000016,3.90000021 28.6000016,3.6400002 28.6000016,3.38000019 Z M30.1600017,4.94000027 C30.2900017,4.94000027 30.4200017,4.94000027 30.5500017,4.81000026 C30.6800017,4.68000026 30.8100017,4.68000026 30.8100017,4.55000025 C30.9400017,4.42000024 30.9400017,4.29000024 30.9400017,4.16000023 C30.9400017,4.03000022 30.9400017,3.77000021 30.9400017,3.51000019 C30.9400017,3.25000018 30.9400017,3.12000017 30.9400017,2.99000016 C30.9400017,2.86000016 30.8100017,2.73000015 30.8100017,2.47000014 C30.6800017,2.34000013 30.6800017,2.21000012 30.5500017,2.21000012 C30.4200017,2.08000011 30.2900017,2.08000011 30.1600017,2.08000011 C30.0300017,2.08000011 29.9000016,2.08000011 29.7700016,2.21000012 C29.6400016,2.34000013 29.5100016,2.34000013 29.5100016,2.47000014 C29.5100016,2.60000014 29.3800016,2.73000015 29.3800016,2.86000016 C29.3800016,2.99000016 29.3800016,3.25000018 29.3800016,3.38000019 C29.3800016,3.51000019 29.3800016,3.77000021 29.3800016,3.90000021 C29.3800016,4.03000022 29.5100016,4.29000024 29.5100016,4.42000024 C29.6400016,4.55000025 29.6400016,4.68000026 29.7700016,4.81000026 C29.9000016,4.81000026 30.0300017,4.94000027 30.1600017,4.94000027 Z M32.1100018,4.94000027 L32.7600018,4.81000026 L32.7600018,2.21000012 L32.1100018,2.21000012 L32.1100018,1.95000011 L32.7600018,1.8200001 L32.7600018,1.56000009 C32.7600018,1.43000008 32.7600018,1.30000007 32.7600018,1.17000006 C32.7600018,1.04000006 32.8900018,0.91000005 32.8900018,0.780000043 C33.0200018,0.650000036 33.0200018,0.520000029 33.1500018,0.520000029 C33.2800018,0.390000021 33.2800018,0.390000021 33.4100018,0.260000014 C33.5400018,0.260000014 33.5400018,0.130000007 33.6700019,0.130000007 C33.8000019,0.130000007 33.8000019,0.130000007 33.9300019,0.130000007 C34.0600019,0.130000007 34.1900019,0.130000007 34.1900019,0.130000007 C34.3200019,0.130000007 34.3200019,0.130000007 34.3200019,0.130000007 L34.3200019,0.650000036 C34.3200019,0.650000036 34.1900019,0.650000036 34.1900019,0.650000036 C34.0600019,0.650000036 33.9300019,0.650000036 33.8000019,0.650000036 C33.6700019,0.650000036 33.6700019,0.650000036 33.5400018,0.650000036 C33.4100018,0.650000036 33.4100018,0.650000036 33.4100018,0.780000043 C33.4100018,0.91000005 33.2800018,0.91000005 33.2800018,1.04000006 C33.2800018,1.17000006 33.2800018,1.30000007 33.2800018,1.43000008 L33.2800018,1.95000011 L34.1900019,1.95000011 L34.1900019,2.34000013 L33.2800018,2.34000013 L33.2800018,4.94000027 L33.9300019,4.94000027 L33.9300019,5.20000029 L32.1100018,5.20000029 C32.1100018,5.20000029 32.1100018,4.94000027 32.1100018,4.94000027 Z M36.010002,2.47000014 L35.620002,2.34000013 L35.620002,1.8200001 L37.3100021,1.8200001 L37.3100021,2.34000013 L37.050002,2.47000014 L37.4400021,3.90000021 L37.5700021,4.42000024 L37.7000021,4.03000022 L38.2200021,1.95000011 L39.0000021,1.95000011 L39.5200022,4.03000022 L39.6500022,4.42000024 L39.7800022,4.03000022 L40.0400022,2.60000014 L39.6500022,2.47000014 L39.6500022,1.95000011 L41.2100023,1.95000011 L41.2100023,2.47000014 L40.8200022,2.60000014 L40.0400022,5.20000029 L39.0000021,5.20000029 L38.4800021,3.6400002 L38.3500021,2.99000016 L38.2200021,3.6400002 L37.8300021,5.20000029 L36.920002,5.20000029 C36.920002,5.20000029 36.010002,2.47000014 36.010002,2.47000014 Z M41.2100023,3.51000019 C41.2100023,3.25000018 41.2100023,2.99000016 41.3400023,2.73000015 C41.4700023,2.47000014 41.6000023,2.34000013 41.7300023,2.08000011 C41.8600023,1.95000011 42.1200023,1.8200001 42.2500023,1.69000009 C42.5100023,1.56000009 42.7700024,1.56000009 43.0300024,1.56000009 C43.2900024,1.56000009 43.4200024,1.56000009 43.6800024,1.69000009 C43.8100024,1.8200001 43.9400024,1.8200001 44.0700024,1.95000011 C44.2000024,2.08000011 44.3300024,2.21000012 44.3300024,2.34000013 C44.3300024,2.47000014 44.4600024,2.60000014 44.4600024,2.86000016 C44.4600024,2.99000016 44.4600024,3.12000017 44.4600024,3.25000018 C44.4600024,3.38000019 44.4600024,3.38000019 44.4600024,3.51000019 L42.3800023,3.51000019 C42.3800023,3.90000021 42.5100023,4.16000023 42.6400023,4.29000024 C42.7700024,4.42000024 43.0300024,4.55000025 43.2900024,4.55000025 C43.4200024,4.55000025 43.5500024,4.55000025 43.8100024,4.55000025 C43.9400024,4.55000025 44.0700024,4.42000024 44.3300024,4.42000024 L44.4600024,4.81000026 C44.3300024,4.94000027 44.3300024,4.94000027 44.2000024,4.94000027 C44.0700024,4.94000027 43.9400024,5.07000028 43.8100024,5.07000028 C43.6800024,5.07000028 43.5500024,5.20000029 43.4200024,5.20000029 C43.2900024,5.20000029 43.1600024,5.20000029 43.0300024,5.20000029 C42.7700024,5.20000029 42.5100023,5.20000029 42.2500023,5.07000028 C41.9900023,4.94000027 41.8600023,4.94000027 41.7300023,4.81000026 C41.6000023,4.68000026 41.4700023,4.55000025 41.3400023,4.29000024 C41.2100023,4.03000022 41.2100023,3.77000021 41.2100023,3.51000019 Z M43.4200024,3.12000017 C43.4200024,2.99000016 43.4200024,2.99000016 43.4200024,2.86000016 L43.4200024,2.60000014 C43.4200024,2.47000014 43.4200024,2.47000014 43.4200024,2.34000013 C43.4200024,2.21000012 43.2900024,2.21000012 43.2900024,2.21000012 C43.2900024,2.21000012 43.1600024,2.21000012 43.1600024,2.21000012 C43.1600024,2.21000012 43.0300024,2.21000012 43.0300024,2.21000012 C42.9000024,2.21000012 42.7700024,2.21000012 42.7700024,2.34000013 C42.7700024,2.47000014 42.6400023,2.47000014 42.6400023,2.60000014 C42.6400023,2.73000015 42.5100023,2.73000015 42.5100023,2.86000016 C42.5100023,2.99000016 42.5100023,3.12000017 42.5100023,3.25000018 C42.3800023,3.12000017 43.4200024,3.12000017 43.4200024,3.12000017 Z M44.9800025,1.04000006 L44.5900025,0.91000005 L44.5900025,0.520000029 L45.8900025,0.390000021 L46.0200025,0.390000021 L46.0200025,1.95000011 C46.1500025,1.95000011 46.2800025,1.8200001 46.4100026,1.8200001 C46.5400026,1.8200001 46.6700026,1.8200001 46.8000026,1.8200001 C46.9300026,1.8200001 47.1900026,1.8200001 47.3200026,1.95000011 C47.4500026,1.95000011 47.7100026,2.08000011 47.8400026,2.21000012 C47.9700026,2.34000013 48.1000026,2.47000014 48.2300027,2.73000015 C48.3600027,2.99000016 48.3600027,3.25000018 48.3600027,3.51000019 C48.3600027,3.77000021 48.3600027,4.03000022 48.2300027,4.29000024 C48.1000026,4.55000025 47.9700026,4.68000026 47.8400026,4.94000027 C47.7100026,5.07000028 47.4500026,5.20000029 47.1900026,5.33000029 C46.9300026,5.20000029 46.6700026,5.20000029 46.4100026,5.20000029 C46.2800025,5.20000029 46.1500025,5.20000029 45.8900025,5.20000029 C45.7600025,5.20000029 45.6300025,5.20000029 45.5000025,5.07000028 C45.3700025,5.07000028 45.2400025,5.07000028 45.1100025,4.94000027 C44.9800025,4.94000027 44.9800025,4.94000027 44.9800025,4.81000026 L44.9800025,1.04000006 L44.9800025,1.04000006 Z M46.0200025,4.55000025 C46.0200025,4.55000025 46.0200025,4.55000025 46.0200025,4.55000025 C46.1500025,4.68000026 46.1500025,4.68000026 46.1500025,4.68000026 C46.1500025,4.68000026 46.2800025,4.68000026 46.2800025,4.81000026 C46.2800025,4.81000026 46.4100026,4.81000026 46.4100026,4.81000026 C46.4100026,4.81000026 46.5400026,4.81000026 46.6700026,4.81000026 C46.8000026,4.81000026 46.8000026,4.68000026 46.9300026,4.55000025 C47.0600026,4.42000024 47.0600026,4.29000024 47.0600026,4.16000023 C47.0600026,4.03000022 47.1900026,3.77000021 47.1900026,3.51000019 C47.1900026,3.25000018 47.1900026,3.12000017 47.0600026,2.99000016 C47.0600026,2.86000016 46.9300026,2.73000015 46.9300026,2.60000014 C46.9300026,2.47000014 46.8000026,2.47000014 46.6700026,2.34000013 C46.5400026,2.34000013 46.5400026,2.21000012 46.4100026,2.21000012 C46.2800025,2.21000012 46.2800025,2.21000012 46.1500025,2.21000012 C46.0200025,2.21000012 46.0200025,2.21000012 46.0200025,2.21000012 C46.0200025,2.21000012 46.0200025,4.55000025 46.0200025,4.55000025 Z M49.7900027,3.51000019 C49.7900027,3.25000018 49.7900027,2.99000016 49.9200027,2.73000015 C50.0500028,2.47000014 50.1800028,2.34000013 50.3100028,2.21000012 C50.4400028,2.08000011 50.7000028,1.95000011 50.9600028,1.8200001 C51.2200028,1.69000009 51.4800028,1.69000009 51.7400028,1.69000009 L51.8700029,1.69000009 C51.8700029,1.69000009 52.0000029,1.69000009 52.1300029,1.69000009 L52.1300029,0.91000005 L51.4800028,0.780000043 L51.4800028,0.390000021 L53.0400029,0.260000014 L53.1700029,0.390000021 L53.1700029,4.81000026 L53.5600029,4.81000026 L53.5600029,5.07000028 C53.4300029,5.07000028 53.4300029,5.20000029 53.3000029,5.20000029 C53.1700029,5.20000029 52.9100029,5.20000029 52.7800029,5.20000029 C52.6500029,5.20000029 52.5200029,5.20000029 52.5200029,5.20000029 C52.5200029,5.20000029 52.3900029,5.07000028 52.3900029,5.07000028 C52.3900029,5.07000028 52.2600029,5.07000028 52.2600029,5.20000029 C52.2600029,5.20000029 52.1300029,5.20000029 52.0000029,5.33000029 C51.8700029,5.33000029 51.8700029,5.33000029 51.7400028,5.33000029 C51.6100028,5.33000029 51.4800028,5.33000029 51.3500028,5.33000029 C51.2200028,5.33000029 51.0900028,5.33000029 51.0900028,5.33000029 C50.9600028,5.33000029 50.8300028,5.20000029 50.8300028,5.20000029 C50.7000028,5.20000029 50.5700028,5.07000028 50.5700028,4.94000027 C50.4400028,4.81000026 50.4400028,4.68000026 50.3100028,4.68000026 C50.1800028,4.55000025 50.1800028,4.42000024 50.1800028,4.29000024 C49.7900027,3.90000021 49.7900027,3.77000021 49.7900027,3.51000019 Z M51.4800028,4.68000026 C51.6100028,4.68000026 51.6100028,4.68000026 51.7400028,4.68000026 C51.8700029,4.68000026 51.8700029,4.68000026 52.0000029,4.68000026 C52.1300029,4.68000026 52.1300029,4.68000026 52.1300029,4.68000026 L52.1300029,2.21000012 C52.0000029,2.21000012 52.0000029,2.08000011 51.8700029,2.08000011 C51.7400028,2.08000011 51.7400028,2.08000011 51.6100028,2.08000011 C51.6100028,2.08000011 51.4800028,2.08000011 51.4800028,2.08000011 C51.4800028,2.08000011 51.3500028,2.08000011 51.3500028,2.21000012 C51.3500028,2.21000012 51.2200028,2.34000013 51.2200028,2.34000013 C51.2200028,2.34000013 51.0900028,2.47000014 51.0900028,2.60000014 C51.0900028,2.73000015 50.9600028,2.86000016 50.9600028,2.86000016 C50.9600028,2.99000016 50.9600028,3.12000017 50.9600028,3.25000018 C50.9600028,3.51000019 50.9600028,3.6400002 50.9600028,3.77000021 C50.9600028,3.90000021 51.0900028,4.03000022 51.0900028,4.16000023 C51.0900028,4.29000024 51.2200028,4.42000024 51.2200028,4.42000024 C51.3500028,4.68000026 51.3500028,4.68000026 51.4800028,4.68000026 Z M53.690003,3.51000019 C53.690003,3.25000018 53.690003,2.99000016 53.820003,2.73000015 C53.950003,2.47000014 54.080003,2.34000013 54.210003,2.08000011 C54.340003,1.95000011 54.600003,1.8200001 54.730003,1.69000009 C54.990003,1.56000009 55.250003,1.56000009 55.5100031,1.56000009 C55.7700031,1.56000009 55.9000031,1.56000009 56.1600031,1.69000009 C56.2900031,1.8200001 56.4200031,1.8200001 56.5500031,1.95000011 C56.6800031,2.08000011 56.8100031,2.21000012 56.8100031,2.34000013 C56.8100031,2.47000014 56.9400031,2.60000014 56.9400031,2.86000016 C56.9400031,2.99000016 56.9400031,3.12000017 56.9400031,3.25000018 C56.9400031,3.38000019 56.9400031,3.38000019 56.9400031,3.51000019 L54.860003,3.51000019 C54.860003,3.90000021 54.990003,4.16000023 55.120003,4.29000024 C55.250003,4.42000024 55.5100031,4.55000025 55.7700031,4.55000025 C55.9000031,4.55000025 56.0300031,4.55000025 56.2900031,4.55000025 C56.4200031,4.55000025 56.5500031,4.42000024 56.8100031,4.42000024 L56.9400031,4.81000026 C56.8100031,4.94000027 56.8100031,4.94000027 56.6800031,4.94000027 C56.5500031,4.94000027 56.4200031,5.07000028 56.2900031,5.07000028 C56.1600031,5.20000029 56.0300031,5.20000029 55.9000031,5.20000029 C55.7700031,5.20000029 55.6400031,5.20000029 55.5100031,5.20000029 C55.250003,5.20000029 54.990003,5.20000029 54.730003,5.07000028 C54.470003,4.94000027 54.340003,4.94000027 54.210003,4.81000026 C54.080003,4.68000026 53.950003,4.55000025 53.820003,4.29000024 C53.690003,4.03000022 53.690003,3.77000021 53.690003,3.51000019 Z M55.9000031,3.12000017 C55.9000031,2.99000016 55.9000031,2.99000016 55.9000031,2.86000016 L55.9000031,2.60000014 C55.9000031,2.47000014 55.9000031,2.47000014 55.9000031,2.34000013 C55.9000031,2.21000012 55.7700031,2.21000012 55.7700031,2.21000012 C55.7700031,2.21000012 55.6400031,2.21000012 55.6400031,2.21000012 C55.6400031,2.21000012 55.5100031,2.21000012 55.5100031,2.21000012 C55.380003,2.21000012 55.250003,2.21000012 55.250003,2.34000013 C55.250003,2.47000014 55.120003,2.47000014 55.120003,2.60000014 C55.120003,2.73000015 54.990003,2.73000015 54.990003,2.86000016 C54.990003,2.99000016 54.990003,3.12000017 54.990003,3.25000018 C54.860003,3.12000017 55.9000031,3.12000017 55.9000031,3.12000017 Z M57.4600032,4.16000023 L57.9800032,4.16000023 L58.1100032,4.42000024 C58.1100032,4.42000024 58.1100032,4.42000024 58.2400032,4.55000025 C58.2400032,4.55000025 58.3700032,4.68000026 58.3700032,4.68000026 C58.3700032,4.68000026 58.5000032,4.81000026 58.5000032,4.81000026 C58.5000032,4.81000026 58.6300032,4.81000026 58.7600032,4.81000026 C58.8900032,4.81000026 59.0200032,4.81000026 59.1500033,4.68000026 C59.2800033,4.55000025 59.2800033,4.55000025 59.2800033,4.42000024 C59.2800033,4.42000024 59.2800033,4.29000024 59.1500033,4.29000024 C59.1500033,4.29000024 59.0200032,4.16000023 59.0200032,4.16000023 C58.8900032,4.16000023 58.8900032,4.03000022 58.7600032,4.03000022 C58.6300032,3.90000021 58.5000032,3.90000021 58.3700032,3.90000021 C58.2400032,3.77000021 58.1100032,3.77000021 57.9800032,3.6400002 C57.8500032,3.51000019 57.7200032,3.51000019 57.5900032,3.38000019 C57.4600032,3.25000018 57.4600032,3.12000017 57.3300032,3.12000017 C57.3300032,2.99000016 57.2000031,2.86000016 57.2000031,2.73000015 C57.2000031,2.60000014 57.2000031,2.47000014 57.3300032,2.47000014 C57.3300032,2.34000013 57.4600032,2.34000013 57.4600032,2.21000012 C57.5900032,2.08000011 57.5900032,2.08000011 57.7200032,2.08000011 C57.8500032,2.08000011 57.9800032,1.95000011 57.9800032,1.95000011 C57.9800032,1.95000011 58.2400032,1.95000011 58.2400032,1.8200001 C58.2400032,1.69000009 58.5000032,1.8200001 58.5000032,1.8200001 C58.5000032,1.8200001 58.7600032,1.8200001 58.8900032,1.8200001 C59.0200032,1.8200001 59.1500033,1.8200001 59.2800033,1.8200001 C59.4100033,1.8200001 59.5400033,1.8200001 59.5400033,1.8200001 C59.6700033,1.8200001 59.6700033,1.8200001 59.8000033,1.95000011 L59.8000033,2.73000015 L59.2800033,2.73000015 L59.1500033,2.34000013 C59.1500033,2.21000012 59.0200032,2.21000012 59.0200032,2.21000012 C58.8900032,2.21000012 58.8900032,2.08000011 58.7600032,2.08000011 C58.7600032,2.08000011 58.6300032,2.08000011 58.6300032,2.08000011 C58.6300032,2.08000011 58.5000032,2.08000011 58.5000032,2.08000011 C58.5000032,2.08000011 58.3700032,2.08000011 58.3700032,2.21000012 C58.3700032,2.21000012 58.3700032,2.34000013 58.3700032,2.34000013 C58.3700032,2.47000014 58.3700032,2.47000014 58.3700032,2.47000014 C58.3700032,2.47000014 58.5000032,2.60000014 58.5000032,2.60000014 C58.5000032,2.60000014 58.6300032,2.73000015 58.6300032,2.73000015 C58.6300032,2.73000015 58.7600032,2.86000016 58.8900032,2.86000016 C59.0200032,2.86000016 59.0200032,2.99000016 59.1500033,2.99000016 L59.4100033,3.12000017 C59.5400033,3.12000017 59.5400033,3.25000018 59.6700033,3.25000018 C59.8000033,3.25000018 59.8000033,3.38000019 59.9300033,3.51000019 C60.0600033,3.6400002 60.0600033,3.6400002 60.0600033,3.77000021 C60.0600033,3.90000021 60.0600033,3.90000021 60.0600033,4.03000022 C60.0600033,4.29000024 60.0600033,4.42000024 59.9300033,4.55000025 C59.8000033,4.68000026 59.6700033,4.81000026 59.5400033,4.94000027 C59.4100033,5.07000028 59.2800033,5.07000028 59.0200032,5.07000028 C58.8900032,5.07000028 58.6300032,5.07000028 58.3700032,5.07000028 C58.2400032,5.07000028 58.1100032,5.07000028 58.1100032,5.07000028 C57.9800032,5.07000028 57.8500032,5.07000028 57.8500032,5.07000028 C57.8500032,5.07000028 57.5900032,5.07000028 57.5900032,4.94000027 C57.4600032,4.94000027 57.4600032,4.81000026 57.3300032,4.81000026 L57.4600032,4.16000023 L57.4600032,4.16000023 Z M60.4500033,4.81000026 L60.8400033,4.68000026 L60.8400033,2.86000016 L60.4500033,2.47000014 L60.4500033,2.21000012 L61.6200034,1.8200001 L61.8800034,1.95000011 L61.8800034,4.81000026 L62.2700034,4.94000027 L62.2700034,5.20000029 L60.3200033,5.20000029 L60.4500033,4.81000026 L60.4500033,4.81000026 Z M61.2300034,1.17000006 C61.1000034,1.17000006 61.1000034,1.17000006 60.9700034,1.17000006 C60.8400033,1.17000006 60.8400033,1.04000006 60.7100033,1.04000006 C60.7100033,1.04000006 60.5800033,0.91000005 60.5800033,0.91000005 C60.5800033,0.780000043 60.5800033,0.780000043 60.5800033,0.650000036 C60.5800033,0.520000029 60.5800033,0.520000029 60.7100033,0.390000021 C60.7100033,0.260000014 60.8400033,0.260000014 60.8400033,0.130000007 C60.9700034,0.130000007 60.9700034,-1.8179902e-15 61.1000034,-1.8179902e-15 C61.2300034,-1.8179902e-15 61.2300034,-1.8179902e-15 61.3600034,-1.8179902e-15 C61.4900034,-1.8179902e-15 61.6200034,-1.8179902e-15 61.6200034,-1.8179902e-15 C61.7500034,-1.8179902e-15 61.7500034,0.130000007 61.7500034,0.130000007 C61.7500034,0.130000007 61.8800034,0.260000014 61.8800034,0.260000014 C61.8800034,0.390000021 61.8800034,0.390000021 61.8800034,0.520000029 C61.8800034,0.650000036 61.8800034,0.650000036 61.7500034,0.780000043 C61.7500034,0.91000005 61.6200034,0.91000005 61.6200034,1.04000006 C61.4900034,1.04000006 61.4900034,1.17000006 61.3600034,1.17000006 C61.4900034,1.17000006 61.3600034,1.17000006 61.2300034,1.17000006 Z M63.0500035,5.07000028 C62.9200035,5.07000028 62.9200035,4.94000027 62.9200035,4.94000027 C62.9200035,4.94000027 62.7900035,4.81000026 62.7900035,4.81000026 C62.7900035,4.81000026 62.7900035,4.68000026 62.7900035,4.68000026 C62.7900035,4.68000026 62.7900035,4.55000025 62.7900035,4.55000025 C62.7900035,4.55000025 62.7900035,4.42000024 62.7900035,4.42000024 C62.7900035,4.42000024 62.7900035,4.29000024 62.9200035,4.29000024 C62.9200035,4.16000023 63.0500035,4.16000023 63.0500035,4.16000023 C63.0500035,4.16000023 63.1800035,4.03000022 63.1800035,4.03000022 C63.0500035,3.90000021 62.9200035,3.77000021 62.7900035,3.6400002 C62.6600034,3.51000019 62.6600034,3.25000018 62.6600034,3.12000017 C62.6600034,2.99000016 62.6600034,2.73000015 62.7900035,2.60000014 C62.9200035,2.47000014 63.0500035,2.34000013 63.1800035,2.21000012 C63.3100035,2.08000011 63.4400035,2.08000011 63.7000035,1.95000011 C63.8300035,1.95000011 64.0900035,1.8200001 64.2200035,1.8200001 C64.4800035,1.8200001 64.6100036,1.8200001 64.8700036,1.95000011 C65.0000036,1.95000011 65.2600036,2.08000011 65.3900036,2.21000012 C65.3900036,2.21000012 65.3900036,2.08000011 65.5200036,2.08000011 C65.5200036,2.08000011 65.6500036,1.95000011 65.6500036,1.95000011 C65.6500036,1.95000011 65.7800036,1.95000011 65.7800036,1.95000011 C65.9100036,1.95000011 65.9100036,1.95000011 66.0400036,1.95000011 L66.3000036,1.95000011 L66.3000036,2.73000015 L65.6500036,2.73000015 C65.6500036,2.86000016 65.6500036,2.99000016 65.6500036,3.12000017 C65.6500036,3.38000019 65.6500036,3.51000019 65.5200036,3.6400002 C65.3900036,3.77000021 65.3900036,3.90000021 65.2600036,4.03000022 C65.0000036,3.77000021 64.8700036,3.90000021 64.6100036,3.90000021 C64.4800035,3.90000021 64.2200035,4.03000022 63.9600035,4.03000022 C63.8300035,4.03000022 63.5700035,4.03000022 63.4400035,4.03000022 C63.4400035,4.16000023 63.4400035,4.16000023 63.4400035,4.29000024 C63.4400035,4.42000024 63.4400035,4.55000025 63.5700035,4.55000025 C63.7000035,4.55000025 63.7000035,4.68000026 63.8300035,4.68000026 L64.4800035,4.68000026 C64.7400036,4.68000026 65.0000036,4.68000026 65.1300036,4.68000026 C65.2600036,4.68000026 65.5200036,4.81000026 65.5200036,4.81000026 C65.6500036,4.94000027 65.7800036,4.94000027 65.7800036,5.07000028 C65.7800036,5.20000029 65.9100036,5.33000029 65.9100036,5.4600003 C65.9100036,5.59000031 65.9100036,5.85000032 65.7800036,5.98000033 C65.6500036,6.11000034 65.5200036,6.24000034 65.3900036,6.37000035 C65.2600036,6.50000036 65.0000036,6.63000036 64.7400036,6.63000036 C64.4800035,6.76000037 64.2200035,6.76000037 63.8300035,6.76000037 C63.5700035,6.76000037 63.4400035,6.76000037 63.1800035,6.76000037 C63.0500035,6.76000037 62.7900035,6.63000036 62.6600034,6.63000036 C62.5300034,6.50000036 62.4000034,6.50000036 62.4000034,6.37000035 C62.2700034,6.24000034 62.2700034,6.11000034 62.2700034,5.98000033 C62.2700034,5.85000032 62.2700034,5.85000032 62.2700034,5.72000031 C62.2700034,5.59000031 62.4000034,5.59000031 62.4000034,5.4600003 C62.4000034,5.33000029 62.5300034,5.33000029 62.5300034,5.33000029 C62.9200035,5.07000028 62.9200035,5.07000028 63.0500035,5.07000028 Z M63.4400035,5.59000031 C63.4400035,5.72000031 63.4400035,5.85000032 63.5700035,5.85000032 C63.5700035,5.98000033 63.7000035,5.98000033 63.7000035,6.11000034 C63.8300035,6.11000034 63.8300035,6.24000034 63.9600035,6.24000034 C64.0900035,6.24000034 64.2200035,6.24000034 64.3500035,6.24000034 C64.4800035,6.24000034 64.6100036,6.24000034 64.7400036,6.24000034 C64.8700036,6.24000034 64.8700036,6.24000034 65.0000036,6.11000034 C65.1300036,6.11000034 65.1300036,5.98000033 65.1300036,5.98000033 C65.1300036,5.85000032 65.1300036,5.85000032 65.1300036,5.72000031 C65.1300036,5.59000031 65.1300036,5.59000031 65.1300036,5.59000031 C65.1300036,5.4600003 65.1300036,5.4600003 65.0000036,5.4600003 C65.0000036,5.4600003 64.8700036,5.33000029 64.7400036,5.33000029 C64.6100036,5.33000029 64.4800035,5.33000029 64.3500035,5.33000029 L63.7000035,5.33000029 C63.7000035,5.33000029 63.5700035,5.33000029 63.5700035,5.33000029 C63.5700035,5.33000029 63.5700035,5.4600003 63.4400035,5.4600003 C63.4400035,5.33000029 63.4400035,5.4600003 63.4400035,5.59000031 Z M64.0900035,3.51000019 C64.2200035,3.51000019 64.2200035,3.51000019 64.3500035,3.51000019 C64.4800035,3.51000019 64.4800035,3.38000019 64.4800035,3.38000019 C64.4800035,3.25000018 64.6100036,3.25000018 64.6100036,3.12000017 C64.6100036,2.99000016 64.6100036,2.99000016 64.6100036,2.86000016 C64.6100036,2.60000014 64.6100036,2.47000014 64.4800035,2.34000013 C64.3500035,2.21000012 64.2200035,2.21000012 64.0900035,2.21000012 C64.0900035,2.21000012 63.9600035,2.21000012 63.9600035,2.21000012 C63.8300035,2.21000012 63.8300035,2.21000012 63.8300035,2.34000013 C63.8300035,2.34000013 63.7000035,2.47000014 63.7000035,2.47000014 C63.7000035,2.60000014 63.7000035,2.60000014 63.7000035,2.73000015 C63.7000035,2.86000016 63.7000035,2.99000016 63.7000035,2.99000016 C63.7000035,3.12000017 63.7000035,3.12000017 63.8300035,3.25000018 C63.8300035,3.38000019 63.9600035,3.38000019 63.9600035,3.38000019 C63.9600035,3.51000019 63.9600035,3.51000019 64.0900035,3.51000019 Z M66.5600037,4.81000026 L66.9500037,4.68000026 L66.9500037,2.73000015 L66.5600037,2.47000014 L66.5600037,2.08000011 L67.7300037,1.69000009 L67.9900037,1.69000009 L67.9900037,2.08000011 C68.1200037,1.95000011 68.1200037,1.95000011 68.2500038,1.8200001 C68.3800038,1.69000009 68.5100038,1.69000009 68.5100038,1.69000009 C68.6400038,1.69000009 68.7700038,1.56000009 68.9000038,1.56000009 C69.0300038,1.56000009 69.1600038,1.56000009 69.2900038,1.56000009 C69.4200038,1.56000009 69.6800038,1.56000009 69.8100038,1.69000009 C69.9400038,1.8200001 70.0700039,1.8200001 70.0700039,1.95000011 C70.2000039,2.08000011 70.2000039,2.21000012 70.2000039,2.34000013 C70.2000039,2.47000014 70.2000039,2.73000015 70.2000039,2.86000016 L70.2000039,4.42000024 L70.5900039,4.55000025 L70.5900039,5.20000029 L68.6400038,5.20000029 L68.6400038,4.81000026 L69.0300038,4.68000026 L69.0300038,3.12000017 C69.0300038,2.99000016 69.0300038,2.86000016 69.0300038,2.73000015 C69.0300038,2.60000014 69.0300038,2.60000014 68.9000038,2.47000014 C68.9000038,2.47000014 68.7700038,2.34000013 68.7700038,2.34000013 C68.6400038,2.34000013 68.6400038,2.34000013 68.5100038,2.34000013 C68.5100038,2.34000013 68.5100038,2.34000013 68.3800038,2.34000013 C68.3800038,2.34000013 68.2500038,2.34000013 68.2500038,2.34000013 L68.1200037,2.34000013 C68.1200037,2.34000013 67.9900037,2.34000013 67.9900037,2.34000013 L67.9900037,4.55000025 L68.3800038,4.68000026 L68.3800038,5.20000029 L66.5600037,5.20000029 L66.5600037,4.81000026 L66.5600037,4.81000026 Z" id="Shape" fill="#B2B2B2" fill-rule="nonzero"></path>
                    <path d="M41.2100023,37.5700021 L38.2200021,36.790002 L38.2200021,36.790002 C37.8300021,36.660002 37.7000021,36.400002 37.7000021,36.010002 L37.7000021,21.7100012 C37.7000021,10.0100006 28.2100016,7.41000041 21.9700012,7.41000041 C19.1100011,7.41000041 15.4700009,8.19000045 12.3500007,9.88000054 L11.5700006,8.06000044 L0,9.36000051 L0,13.9100004 L5.07000028,14.8200008 C5.33000029,14.9500008 5.59000031,15.0800008 5.59000031,15.4700009 L5.59000031,24.1800013 L5.59000031,24.1800013 L5.59000031,36.140002 C5.59000031,36.530002 5.33000029,36.790002 5.07000028,36.920002 C5.07000028,36.920002 5.07000028,36.920002 4.94000027,36.920002 L2.08000011,37.7000021 L2.08000011,42.9000024 L18.460001,42.9000024 L18.460001,37.5700021 L15.7300009,36.790002 C15.4700009,36.660002 15.2100008,36.400002 15.2100008,36.010002 L15.2100008,21.4500012 C15.2100008,15.3400008 20.6700011,15.3400008 21.8400012,15.3400008 L21.8400012,15.3400008 C22.8800013,15.3400008 24.7000014,15.4700009 26,16.5100009 C27.1700015,17.290001 28.0800015,18.720001 28.0800015,20.9300012 L28.0800015,35.880002 C28.0800015,35.880002 28.0800015,35.880002 28.0800015,36.010002 C28.0800015,36.400002 27.8200015,36.660002 27.5600015,36.790002 L24.8300014,37.5700021 L24.8300014,42.9000024 L41.2100023,42.9000024 L41.2100023,37.5700021 L41.2100023,37.5700021 Z M50.0500028,21.4500012 C50.0500028,15.3400008 55.5100031,15.3400008 56.6800031,15.3400008 C58.5000032,15.3400008 62.9200035,15.8600009 62.9200035,20.9300012 L62.9200035,21.4500012 L50.0500028,21.4500012 Z M72.410004,28.7300016 L72.410004,21.5800012 C72.410004,9.88000054 62.9200035,7.2800004 56.6800031,7.2800004 C50.1800028,7.2800004 40.4300022,10.4000006 40.4300022,20.8000011 L40.4300022,29.9000016 C40.4300022,40.3000022 50.4400028,43.5500024 56.9400031,43.5500024 C64.7400036,43.5500024 69.0300038,41.0800023 72.150004,39.2600022 L72.150004,33.5400018 L63.4400035,33.5400018 C63.4400035,33.5400018 60.9700034,35.880002 56.9400031,35.880002 C55.7700031,35.880002 50.1800028,35.490002 50.1800028,29.3800016 L50.0500028,28.7300016 L72.410004,28.7300016 Z M85.800004,33.4100018 L85.800004,15.2100008 L94.7700052,15.2100008 L94.7700052,8.06000044 L85.800004,8.06000044 L85.800004,0.130000007 L76.0500042,1.17000006 L76.0500042,8.06000044 L72.800004,8.06000044 L72.800004,15.2100008 L76.0500042,15.2100008 L76.0500042,33.5400018 C76.0500042,43.0300024 84.7600047,43.0300024 87.7500048,43.0300024 C91.780005,43.0300024 96.3300053,40.8200022 96.3300053,40.8200022 L96.3300053,34.3200019 L91.130005,34.3200019 C91.130005,34.3200019 90.220005,35.3600019 88.0100048,35.3600019 C86.4500048,35.490002 85.800004,34.8400019 85.800004,33.4100018 L85.800004,33.4100018 Z" id="Shape" fill="#FFFFFF" fill-rule="nonzero"></path>
                </g>
            </g>
        </g>
    </g>
</svg>