<?xml version="1.0" encoding="UTF-8"?>
<svg width="112px" height="57px" viewBox="0 0 112 57" version="1.1" xmlns="http://www.w3.org/2000/svg" xmlns:xlink="http://www.w3.org/1999/xlink">
    <!-- Generator: Sketch 58 (84663) - https://sketch.com -->
    <title>Icons / rnib</title>
    <desc>Created with Sketch.</desc>
    <g id="Page-1" stroke="none" stroke-width="1" fill="none" fill-rule="evenodd">
        <g id="Desktop" transform="translate(-759.000000, -936.000000)" fill="#FFFFFF" fill-rule="nonzero">
            <g id="Icons-/-rnib" transform="translate(759.000000, 936.000000)">
                <path d="M98.238,34.356 C98.238,30.45 95.914,28.952 94.738,28.196 C95.648,27.608 97.818,25.872 97.818,22.624 C97.818,17.794 94.654,14.476 88.83,14.476 L77.182,14.476 L77.182,42.588 L89.404,42.588 C94.416,42.672 98.238,39.76 98.238,34.356 M90.93,23.044 C90.93,24.122 90.342,25.368 88.438,25.368 L84.112,25.368 L84.112,20.79 L88.424,20.79 C90.342,20.706 90.93,21.868 90.93,23.044 Z M91.252,33.936 C91.252,35.098 90.58,36.428 88.76,36.428 L84.098,36.428 L84.098,31.514 L88.76,31.514 C90.678,31.528 91.252,32.774 91.252,33.936 Z M65.394,39.172 C65.394,42.826 68.964,42.672 68.964,42.672 L72.296,42.672 L72.296,18.046 C72.296,14.392 68.726,14.546 68.726,14.546 L65.394,14.546 L65.394,39.172 Z M30.87,42.672 L36.358,42.672 L30.282,30.94 C32.522,29.862 34.86,27.44 34.86,23.618 C34.86,19.04 31.528,14.546 25.298,14.546 L14.154,14.546 L14.154,42.658 L21.056,42.658 L21.056,32.172 L23.38,32.172 L27.286,40.404 C27.286,40.418 28.042,42.504 30.87,42.672 Z M27.958,23.618 C27.958,25.116 26.88,26.446 24.962,26.446 L21.056,26.446 L21.056,20.79 L24.962,20.79 C26.796,20.79 27.958,22.12 27.958,23.618 Z M42.672,14.56 L38.85,14.56 L38.85,42.672 L45.752,42.672 L45.752,28.532 L53.494,40.754 L53.494,40.838 C54.74,42.756 56.826,42.672 56.826,42.672 L60.732,42.672 L60.732,14.56 L53.83,14.56 L53.83,28.7 L46.004,16.38 C44.758,14.476 42.672,14.56 42.672,14.56 L42.672,14.56 L42.672,14.56 Z M50.078,56.56 L1.13686838e-13,56.56 L1.13686838e-13,37.1 C1.13686838e-13,27.538 0.252,0 23.38,0 L111.552,0 L111.552,19.46 C111.552,29.022 111.3,56.56 88.172,56.56 L50.078,56.56 Z" id="Shape"></path>
            </g>
        </g>
    </g>
</svg>