<?xml version="1.0" encoding="UTF-8"?>
<svg width="106px" height="85px" viewBox="0 0 106 85" version="1.1" xmlns="http://www.w3.org/2000/svg" xmlns:xlink="http://www.w3.org/1999/xlink">
    <!-- Generator: Sketch 58 (84663) - https://sketch.com -->
    <title>Icons / visitwales</title>
    <desc>Created with Sketch.</desc>
    <g id="Page-1" stroke="none" stroke-width="1" fill="none" fill-rule="evenodd">
        <g id="Desktop" transform="translate(-87.000000, -1169.000000)" fill="#FFFFFF">
            <g id="Icons-/-visitwales" transform="translate(87.000000, 1169.000000)">
                <g id="visitwales">
                    <path d="M90.6924088,29.3902318 C90.6567453,29.4258132 91.7266518,29.8527899 92.8678854,30.8846503 L90.9063901,32.9127898 C91.8336424,33.5532549 92.5469134,34.4783712 92.5469134,34.4783712 L94.5797358,32.3434875 C95.6139788,33.0551154 96.5768946,34.5139526 96.6125582,34.5139526 C98.5383899,25.6897668 105.564109,24.5867435 105.564109,24.5867435 C105.564109,24.5867435 99.3586516,22.3095343 90.6924088,29.3902318" id="Path" fill-rule="nonzero"></path>
                    <path d="M39.1585784,17.3637205 C39.5508775,17.1858135 41.5836998,16.0827903 41.4410456,14.3037206 C41.3697185,12.5958136 40.1928214,11.5639532 40.1571578,11.5995346 C40.0858307,11.635116 40.6564475,14.4460461 37.0544289,15.2999996 C34.2370084,15.9760461 33.7733823,17.7551158 33.8447094,18.2532553 C33.8447094,18.2532553 36.8047841,18.5379065 39.1585784,17.3637205" id="Path" fill-rule="nonzero"></path>
                    <path d="M65.7279235,50.4899987 C65.5852693,48.6753475 64.6223534,45.2951151 62.3398862,43.8362779 C60.5567087,42.6976733 58.0959237,43.6583709 58.0959237,43.6583709 C60.7350264,45.4730221 61.3769703,48.9955801 61.4482974,50.8458126 C62.8391759,50.6679056 64.3727086,50.5255801 65.7279235,50.4899987" id="Path" fill-rule="nonzero"></path>
                    <path d="M60.0930825,51.1660452 C59.9147648,49.1023243 59.023176,45.7576732 57.0616807,44.476743 C55.2428397,43.302557 52.675064,44.3344174 52.675064,44.3344174 C55.3854939,45.9711616 55.5638116,52.3758126 55.5638116,52.3758126 C57.2043349,51.9132544 58.7378676,51.4506963 60.0930825,51.1660452" id="Path" fill-rule="nonzero"></path>
                    <path d="M60.1644096,52.5537195 C58.7378676,52.8383707 57.3113256,53.3009288 55.6351387,53.8346497 C55.6351387,54.3683707 55.4211574,58.6737194 52.9247089,61.8760449 C52.9247089,61.8760449 55.5994752,61.4846495 57.4183162,59.6699984 C59.344148,57.7130217 60.1644096,54.0481381 60.1644096,52.5537195" id="Path" fill-rule="nonzero"></path>
                    <path d="M51.3911762,61.6625565 C53.4596621,59.3497659 54.2799238,55.933952 54.2799238,54.2972079 C52.5324098,54.7953474 50.7492323,55.3646497 48.4311015,55.8983706 C48.4667651,56.289766 48.1457931,60.7018589 46.0059801,63.2637193 C45.934653,63.2637193 49.501008,63.690696 51.3911762,61.6625565" id="Path" fill-rule="nonzero"></path>
                    <path d="M42.7249334,56.9658124 C42.6536063,57.7841845 40.9774195,62.2674402 39.3368962,63.9397657 C39.3368962,63.9397657 41.7620176,64.4734867 43.2955503,63.690696 C46.1486343,62.160696 46.9332324,57.3927892 46.9332324,56.1830218 C46.9332324,56.1830218 44.0801484,56.7879055 42.7249334,56.9658124" id="Path" fill-rule="nonzero"></path>
                    <path d="M21.1128219,55.4358125 C22.2540555,50.0630219 26.0343918,49.2446499 27.3539432,48.7109289 C27.4965974,47.5367429 27.9958871,45.5086034 28.3881862,44.3344174 C26.177046,44.4055802 22.9673265,45.1527895 20.9701677,47.8569755 C20.2568967,49.2446499 19.8645976,52.8027893 21.1128219,55.4358125" id="Path" fill-rule="nonzero"></path>
                    <path d="M18.9730088,26.3658133 L23.4666162,25.5118598 C23.644934,25.4762784 23.7162611,25.4762784 23.7162611,25.4762784 L26.3910273,27.8958132 L20.7918499,30.1374411 C19.9715883,30.1730225 19.2226537,29.8527899 19.2226537,29.8527899 L21.4337938,35.6169758 C21.4337938,35.6169758 21.8260929,32.7704642 24.4651956,31.5962782 C27.9958871,30.0306969 29.9930459,31.7386038 30.0287095,31.667441 C30.0287095,31.667441 26.4623544,33.0551154 24.4295321,38.9972083 C27.6035881,36.8267432 30.6349898,37.1825572 30.7063169,37.1469758 L34.5223168,25.6541854 C34.1656813,25.440697 29.4224291,21.9537203 29.4224291,21.9537203 C29.4224291,21.9537203 28.245532,22.5941854 26.3197002,22.5586041 L26.3197002,22.5586041 C26.177046,22.5230227 26.1057189,22.4162785 26.1057189,22.3095343 C26.1057189,22.2383715 26.1413825,22.0960459 26.177046,22.0604645 C27.211289,21.8113948 28.4595133,21.3132552 29.3154385,20.566046 L29.4580927,20.5304646 L35.4139056,24.6223249 C36.6977934,23.4481389 39.0515878,22.2027901 43.1528961,21.3132552 C45.6493446,19.5697669 47.8248212,15.2644182 44.7220923,11.5995346 C44.7220923,11.5995346 44.7220923,11.5639532 44.6864287,11.5639532 C44.6151016,11.4216276 44.0088213,18.2888367 35.9488589,19.1783716 C35.2355879,19.213953 33.8090458,19.213953 32.4181674,18.9648832 C32.2041861,18.9293018 31.9545412,18.8225576 31.6692328,18.7869762 L31.6692328,18.7869762 C28.2811955,17.9686042 25.6420928,18.7869762 25.2141302,19.3206972 C24.7861676,19.8188367 24.1085601,22.1316273 22.1114013,22.2739529 C22.0400742,22.2739529 21.9330835,22.2739529 21.8617564,22.2739529 L21.8617564,22.2739529 L21.8260929,22.2739529 C21.7547658,22.2739529 21.6834387,22.2739529 21.6477751,22.2739529 C19.1869901,22.3095343 16.0485977,21.5267436 14.6577192,24.8002319 C14.6577192,24.8002319 15.4066538,24.3732552 16.4052332,24.3020924 L18.9730088,26.3658133 Z" id="Shape" fill-rule="nonzero"></path>
                    <path d="M28.8874759,42.9111617 C28.8874759,42.8755803 28.9231394,42.8399989 28.9231394,42.7688361 L30.3496814,38.3567432 C28.8161488,38.3923246 25.7134199,38.9616269 23.7162611,40.8474408 C22.289719,42.1995338 21.2554761,44.3699988 21.3268032,45.4730221 C24.6791769,42.5553477 28.8874759,42.9111617 28.8874759,42.9111617" id="Path" fill-rule="nonzero"></path>
                    <path d="M10.6634016,28.1093016 C10.6990651,28.1093016 10.9130464,27.5755807 11.3053455,26.7216272 L11.3053455,26.6860458 C11.8402988,27.0774411 16.7975323,30.315348 21.5051209,28.6786039 L23.1099807,26.2946505 C17.7247846,28.7497667 12.4465791,25.5474412 11.982953,25.2272086 C12.0542801,25.0493017 12.5179062,24.1241854 12.5179062,24.088604 C6.49076618,22.5941854 3.887327,25.2272086 3.887327,25.2272086 C3.887327,25.2272086 7.5606727,23.910697 10.6634016,28.1093016" id="Path" fill-rule="nonzero"></path>
                    <path d="M3.56635505,39.3886036 C4.0299812,42.5553477 7.06138299,44.1209291 7.06138299,44.1209291 C7.06138299,44.1209291 6.13413068,46.0423244 6.81173814,48.2127894 C7.66766335,50.9525568 6.31244843,53.407673 6.34811198,53.407673 C9.27252312,52.5537195 9.91446703,49.5648824 9.95013058,49.5648824 C10.3067661,49.5648824 14.1584295,49.7427894 15.6562987,54.759766 C17.0471771,59.4920914 12.9458688,62.2318588 12.9458688,62.2318588 C15.5849715,62.6232542 17.9031023,60.4527891 17.9031023,60.4527891 C17.9031023,60.4527891 18.5093827,61.1288356 20.6491957,62.6944169 C20.9345041,60.3104635 20.470878,57.5351148 20.470878,57.5351148 C17.8674388,54.0481381 18.9373453,48.8888359 19.1513266,47.9637197 C12.7675511,45.5086034 8.95155116,40.3137199 9.52216797,36.1862781 C9.80747638,33.9802317 9.80747638,33.1618596 9.02287827,32.2367433 C8.23828016,31.3116271 7.02571944,30.9558131 5.92014938,31.1693015 C6.27678488,31.2404643 6.59775683,31.4539527 6.84740169,31.7741852 C7.52500915,32.5925573 7.45368205,33.7667433 6.63342039,34.4427898 C6.56209328,34.4783712 6.45510263,34.5851154 6.41943908,34.6206968 C5.99147648,33.019534 4.67192511,31.8809294 3.06706534,31.8809294 C1.74751397,31.8809294 0.606280358,32.6993015 -3.55271368e-15,33.8379061 C0.356635505,33.5888363 0.713271009,33.4465107 1.14123361,33.4465107 C2.28246723,33.4465107 3.17405599,34.4072084 3.17405599,35.6525572 C3.17405599,36.897906 2.24680368,37.8586036 1.14123361,37.8586036 C0.713271009,37.8586036 0.356635505,37.7162781 -3.55271368e-15,37.4672083 C0.606280358,38.6058129 1.74751397,39.424185 3.06706534,39.424185 C3.20971954,39.424185 3.38803729,39.3886036 3.56635505,39.3886036" id="Path" fill-rule="nonzero"></path>
                    <path d="M27.2469525,50.2409289 C27.2469525,50.2409289 24.8574947,51.3439521 23.323962,53.8702311 C22.610691,55.1511613 21.9687471,56.9658124 22.0400742,57.9265101 C22.1827284,59.0651147 22.9316629,63.6551146 20.2212331,66.6083703 C20.2212331,66.6083703 20.3638873,67.7825563 19.7219434,69.5260447 C18.9016817,71.5186028 17.1185042,75.2190678 13.9801118,76.2509282 C13.9444482,76.2865096 12.4822427,76.3932538 11.3766726,74.8988352 C8.84456051,71.4830214 6.27678488,72.9418585 5.42085967,73.8669748 C5.63484097,73.7246492 5.88448583,73.6534864 6.13413068,73.6534864 C6.95439234,73.6534864 7.5606727,74.2939515 7.5606727,75.0767422 C7.5606727,75.8951143 6.66908394,76.4644166 5.84882227,76.4644166 C5.84882227,76.4644166 5.84882227,76.4644166 5.81315872,76.4644166 C2.38945788,76.4644166 2.78175694,79.4888351 2.88874759,79.9513932 C2.92441114,79.9158118 2.92441114,79.9158118 2.96007469,79.8802304 C3.24538309,79.3820909 3.8159999,79.026277 4.45794381,79.026277 C5.42085967,79.026277 6.24112133,79.844649 6.24112133,80.8053467 C6.24112133,81.6593002 5.63484097,82.3353467 4.88590641,82.548835 C4.70758866,82.6199978 4.60059801,82.6911606 4.42228026,82.6911606 C6.88306524,83.8653466 7.9886353,82.0862769 7.9886353,82.0862769 C13.1598501,84.5413931 17.2611584,82.0151141 17.2611584,82.0151141 C17.2611584,82.0151141 19.1869901,83.0825559 21.6834387,82.1930211 C23.2882984,81.6593002 25.6777563,80.6630211 27.8532329,82.2641839 C26.9616441,78.4925561 22.8959994,78.2434863 22.8959994,73.8313934 C22.8959994,71.8388353 24.7148405,70.5579051 26.2840367,70.5579051 C28.4951768,70.5579051 29.3154385,72.4081376 29.3154385,72.4081376 C30.3496814,70.1665098 28.958803,68.9923238 28.4238497,68.6009284 C30.4923356,66.2881378 34.1300178,67.9248819 34.1300178,67.9248819 C34.1300178,67.9248819 34.3083355,66.9641843 33.7733823,65.9679052 C39.4082233,64.686975 41.1914008,57.1437194 41.1914008,57.1437194 C32.84613,58.6737194 27.9958871,57.2148822 27.2469525,50.2409289" id="Path" fill-rule="nonzero"></path>
                    <path d="M90.8707266,78.1011607 C87.4470257,75.6460445 86.5911005,73.2620911 87.5183528,72.3369748 C88.3386145,71.5186028 90.1574556,72.3013934 90.1574556,72.3013934 C89.3015303,70.095347 87.9463154,70.095347 87.0190631,69.6683702 C81.8121847,67.3555796 81.8835118,61.4490681 79.6723717,58.2467426 C75.5710634,52.2690684 69.6865776,51.3439521 61.6266152,52.2690684 C61.5909516,53.1586032 61.3413068,57.7841845 58.5952134,60.4172077 C68.4740169,58.6737194 72.3256803,68.1383703 72.5753252,68.8144168 C78.1031755,68.3518587 81.9905025,73.0841841 82.5967829,74.2227887 C83.7023529,76.2153468 81.7765212,78.1723235 78.9947643,75.325812 C76.1060167,72.3725562 74.0018672,73.973719 73.1816055,74.8632538 C73.3955868,74.7209283 73.6452317,74.6497655 73.8948765,74.6497655 C74.6438111,74.6497655 75.285755,75.2902306 75.285755,76.0374398 C75.285755,76.6779049 74.8221289,77.3539514 73.8948765,77.4251142 L73.8948765,77.4251142 C70.2571944,77.9232537 71.4697551,80.8409281 71.4697551,80.8409281 L71.4697551,80.8409281 C71.8263906,80.200463 72.5039981,79.7734863 73.2529326,79.7734863 C74.3941663,79.7734863 75.285755,80.6986025 75.285755,81.8016257 C75.285755,82.5132536 74.893456,83.1181373 74.3941663,83.5095327 C75.999026,83.8653466 77.2115867,83.0469745 77.2115867,83.0469745 C82.6324464,84.7904629 87.268708,82.5844164 87.268708,82.5844164 C87.268708,82.5844164 89.3015303,84.1499978 92.1902779,83.2604629 C95.0076984,82.3709281 96.6838853,84.3634861 96.6838853,84.3634861 C96.0419414,80.3072072 92.9392125,79.5244165 90.8707266,78.1011607" id="Path" fill-rule="nonzero"></path>
                    <path d="M61.9832507,74.4718585 C61.9832507,72.6572074 63.1601479,71.44744 63.1601479,71.44744 C65.371288,71.1983702 65.8349141,73.0841841 65.8349141,73.0841841 C66.5838487,70.6646493 64.8006712,69.5616261 64.8006712,69.5616261 C64.8006712,69.5616261 63.9090824,68.6365098 64.1587273,67.1420912 C64.3013815,66.216975 64.8363347,65.5765099 65.0146525,65.3630215 C65.4782786,64.7225564 65.763587,64.2599983 66.79783,63.5839518 C64.8719983,62.2318588 61.1986526,60.9509286 56.3840733,61.9827891 C52.6037369,64.2955797 54.1372696,68.4586028 54.1372696,68.4586028 C55.8847836,70.0241842 57.275662,71.5186028 58.0959237,73.617905 C58.9875125,75.9306957 56.170092,78.7772072 53.6736434,75.8951143 C51.4981669,73.4044167 49.501008,73.2976725 48.1814567,73.6890678 C48.8590641,73.8313934 49.4296809,74.4006957 49.4296809,75.0767422 C49.4296809,75.8951143 48.5380922,76.4644166 47.7178305,76.4644166 C44.6507652,76.499998 44.6507652,78.8839514 44.7577558,79.7379049 C45.1500549,79.3109281 45.7206717,79.026277 46.326952,79.026277 C47.5038492,79.026277 48.5024286,79.9869746 48.5024286,81.196742 C48.5024286,82.0151141 48.0388025,82.726742 47.361195,83.1181373 C49.108709,83.6162769 50.214279,82.2997653 50.214279,82.2997653 C55.3854939,84.7548815 59.5581293,81.7660443 59.5581293,81.7660443 C59.5581293,81.7660443 61.0916619,83.6874396 63.8377553,82.4065094 C66.0488954,81.374649 67.6180917,82.7979048 67.6180917,82.7979048 C66.2272132,79.1330212 61.9832507,79.8802304 61.9832507,74.4718585" id="Path" fill-rule="nonzero"></path>
                    <path d="M46.5052698,37.4316269 C48.2527838,34.3360456 50.9632136,31.9165108 54.2442602,30.5644178 C55.0645219,30.1730225 55.9561107,29.9239527 56.9190265,29.7104643 C58.0602601,29.4613946 59.2014938,29.319069 60.3427274,29.319069 C65.8349141,29.319069 70.4355122,31.4539527 73.4312504,34.7986037 C73.4312504,34.7986037 67.9034001,30.2086039 60.9490077,30.7067434 C57.5253069,30.9558131 54.7078864,31.9520922 52.0331201,34.4427898 C52.1044472,34.4427898 52.2114379,34.4427898 52.2471014,34.4427898 C54.2442602,34.4427898 58.0245966,34.9409293 60.4853816,38.3567432 C60.4853816,38.3567432 56.9190265,35.72372 52.7463911,35.72372 C51.6051575,35.72372 50.4995874,35.9372084 49.3940174,36.3641851 L49.3583538,36.3641851 C49.1443725,36.4353479 47.7178305,37.1113944 46.9332324,37.7162781 C46.5765969,37.9653478 45.9703165,38.4634874 45.9703165,38.4634874 L46.5052698,37.4316269 Z M83.77368,16.9011623 C83.77368,16.9011623 71.1131196,19.39186 65.9062412,22.6297668 C66.79783,22.5586041 67.2971197,22.5586041 68.2956991,22.5586041 C71.8263906,22.4874413 77.1759232,22.9855808 82.7037735,25.0848831 C82.7037735,25.0848831 77.0689325,23.7683715 69.8292318,23.7683715 C68.8663159,23.7683715 67.9034001,23.8039529 66.9761478,23.8395343 C61.483961,24.1953482 57.3469891,26.5081388 55.5281481,27.4688365 L55.1715126,27.6467435 L55.135849,27.6111621 C64.4440357,19.9255809 75.1787644,17.683953 83.77368,16.9011623 M36.8404476,41.4523245 C37.6963728,39.424185 41.7620176,29.1767434 40.4068027,23.3058133 C37.5893822,24.3376738 36.5551392,25.2272086 35.9131953,25.9388365 C34.5223168,30.1374411 30.6706534,41.5590687 29.6007469,44.7258128 C27.8888965,50.0274405 28.4595133,56.2186032 35.3425785,56.2186032 C38.0530083,56.2186032 41.7620176,55.933952 46.5052698,54.8309288 C49.3226903,54.1904637 52.0331201,53.407673 54.1372696,52.8027893 C54.0659425,51.2372079 54.5295686,42.946743 44.0801484,42.5553477 C48.1101296,41.2388361 51.4625033,43.5160454 51.4625033,43.5160454 C51.4625033,43.5160454 56.3840733,39.246278 62.6251946,42.5909291 C62.6251946,42.5909291 67.5467646,34.9409293 77.0689325,39.1039525 C78.6381288,27.7534876 88.6595864,28.9276737 88.8022406,28.9276737 C88.6239229,28.7853481 80.0646708,20.8862785 91.4056798,17.0079065 C90.1574556,16.5453484 86.0204837,15.6558135 86.8764089,13.2006973 C88.0176425,9.82046486 94.8293807,7.86348816 94.8293807,7.86348816 C75.285755,10.4965113 60.3783909,16.687674 50.535251,27.1130225 C50.3569332,27.2909295 50.1786155,27.5044179 50.0359613,27.6467435 C45.6493446,32.3790689 43.9374942,36.719999 43.5095316,37.5739525 C45.1143913,33.5888363 52.282765,15.5846507 79.3157362,9.17999976 C76.8549512,8.96651139 72.82497,8.2548835 72.3256803,6.47581378 C71.7907271,4.4832557 74.2515121,1.60116275 76.6409699,0.0355813944 C54.3155873,6.08441844 44.5794381,24.2309296 39.194242,38.9972083 C39.194242,39.0327897 37.6250457,39.8511617 36.8404476,41.4523245" id="Shape" fill-rule="nonzero"></path>
                    <path d="M85.5925211,32.5213945 C85.5568575,32.5213945 85.5568575,32.5213945 85.5925211,32.5213945 C82.6324464,32.5213945 79.7080353,34.7986037 79.7080353,38.0365106 C79.7080353,40.1002315 81.5268763,42.3418593 84.2373062,42.3418593 C86.4841099,42.3418593 87.4470257,40.5627896 87.4470257,40.5627896 C87.4470257,40.5627896 87.4113622,39.0683711 86.5197734,38.3923246 C86.5197734,38.3923246 85.842166,39.0327897 85.0219043,39.0327897 C84.2016426,39.0327897 83.6666894,38.5346501 83.6666894,37.7518595 C83.6666894,36.9334874 84.7365959,36.4353479 85.4142033,36.4353479 C87.6966706,36.4353479 88.69525,38.5702315 88.69525,40.9186036 C88.69525,44.2276732 85.2715491,46.7895336 82.0974932,46.7895336 C82.0261661,46.7895336 82.0974932,46.7895336 82.0261661,46.7895336 C76.8549512,46.7895336 73.3955868,41.7013942 63.9804095,43.4093012 C63.9804095,43.4093012 66.6551758,45.2595337 67.118802,50.3832545 C67.118802,50.3832545 68.5096804,50.3832545 70.4711757,50.6679056 C73.7522223,51.2727893 77.7822035,52.6604637 81.1345773,57.7486031 C84.2729697,57.1437194 94.5440723,52.7672079 94.5440723,42.7688361 C94.5440723,39.246278 92.0832873,32.5213945 85.5925211,32.5213945" id="Path" fill-rule="nonzero"></path>
                </g>
            </g>
        </g>
    </g>
</svg>